<svg width="30" height="30" viewBox="0 0 30 30" fill="none" xmlns="http://www.w3.org/2000/svg">
<path d="M23.7644 5.85046H19.0587V5.31809C19.0587 3.85035 17.8859 2.65625 16.4444 2.65625H13.3072C11.8657 2.65625 10.6929 3.85035 10.6929 5.31809V5.85046H5.98713C5.40989 5.85046 4.94141 6.32746 4.94141 6.9152V8.5123C4.94141 9.10004 5.40989 9.57704 5.98713 9.57704H23.7644C24.3417 9.57704 24.8102 9.10004 24.8102 8.5123V6.9152C24.8102 6.32746 24.3417 5.85046 23.7644 5.85046ZM12.7843 5.31809C12.7843 5.02476 13.0191 4.78572 13.3072 4.78572H16.4444C16.7325 4.78572 16.9672 5.02476 16.9672 5.31809V5.85046H12.7843V5.31809Z" fill="#059669"/>
<path d="M23.388 10.9908C23.1899 10.7688 22.9086 10.6421 22.6142 10.6421H7.13748C6.8431 10.6421 6.5618 10.7688 6.36364 10.9908C6.16548 11.2128 6.06875 11.5099 6.09646 11.8085L7.38165 25.484C7.52753 27.0385 8.87076 28.2108 10.5063 28.2108H19.2454C20.8804 28.2108 22.2241 27.0385 22.37 25.484L23.6552 11.8085C23.6834 11.5099 23.5862 11.2128 23.388 10.9908ZM12.432 25.5463C12.4095 25.5473 12.3875 25.5484 12.365 25.5484C11.8176 25.5484 11.3575 25.1151 11.3225 24.5507L10.695 14.4357C10.6589 13.8491 11.0966 13.3433 11.6728 13.3061C12.2505 13.2741 12.7462 13.7149 12.7823 14.3016L13.4097 24.4166C13.4458 25.0033 13.0082 25.509 12.432 25.5463ZM18.4292 24.5507C18.3942 25.1151 17.934 25.5484 17.3866 25.5484C17.3647 25.5484 17.3422 25.5479 17.3197 25.5463C16.743 25.509 16.3059 25.0033 16.3419 24.4166L16.9694 14.3016C17.006 13.7144 17.5001 13.2731 18.0789 13.3061C18.6556 13.3433 19.0927 13.8491 19.0566 14.4357L18.4292 24.5507Z" fill="#059669"/>
</svg>
