<svg width="18" height="18" viewBox="0 0 18 18" fill="none" xmlns="http://www.w3.org/2000/svg">
<path d="M12.9375 2.25H11.1797C10.9294 1.27969 10.0463 0.5625 9 0.5625C7.95375 0.5625 7.07062 1.27969 6.82031 2.25H5.0625C3.51281 2.25 2.25 3.51281 2.25 5.0625V14.625C2.25 16.1747 3.51281 17.4375 5.0625 17.4375H12.9375C14.4872 17.4375 15.75 16.1747 15.75 14.625V5.0625C15.75 3.51281 14.4872 2.25 12.9375 2.25ZM4.68844 11.7478C4.91906 11.5425 5.27625 11.5622 5.48156 11.7928L5.985 12.3581L7.44187 10.6088C7.64156 10.3697 7.99594 10.3387 8.235 10.5356C8.47406 10.7353 8.505 11.0897 8.30813 11.3287L6.43219 13.5787C6.32813 13.7053 6.17344 13.7784 6.01031 13.7812H5.99906C5.83875 13.7812 5.68688 13.7138 5.58 13.5928L4.64344 12.5437C4.43531 12.3103 4.455 11.9559 4.68844 11.7478ZM5.48156 6.73031L5.985 7.29563L7.44187 5.54625C7.64156 5.30719 7.99594 5.27625 8.235 5.47312C8.47406 5.67281 8.505 6.02719 8.30813 6.26625L6.43219 8.51625C6.32813 8.64281 6.17344 8.71594 6.01031 8.71875H5.99906C5.83875 8.71875 5.68688 8.65125 5.58 8.53031L4.64344 7.48125C4.43531 7.24781 4.455 6.89344 4.68844 6.68531C4.91906 6.48 5.27625 6.49969 5.48156 6.73031ZM9 12.375C9 12.0656 9.25312 11.8125 9.5625 11.8125H12.9375C13.2469 11.8125 13.5 12.0656 13.5 12.375C13.5 12.6844 13.2469 12.9375 12.9375 12.9375H9.5625C9.25312 12.9375 9 12.6844 9 12.375ZM12.9375 7.875H9.5625C9.25312 7.875 9 7.62188 9 7.3125C9 7.00312 9.25312 6.75 9.5625 6.75H12.9375C13.2469 6.75 13.5 7.00312 13.5 7.3125C13.5 7.62188 13.2469 7.875 12.9375 7.875Z" fill="white"/>
</svg>
