<svg width="32" height="32" viewBox="0 0 32 32" fill="none" xmlns="http://www.w3.org/2000/svg">
<g clip-path="url(#clip0_2776_2007)">
<path d="M24.0114 0.469263C23.8469 0.17899 23.5394 0 23.2058 0H12.0961C11.6712 0 11.3014 0.289347 11.1983 0.70158L7.49506 15.5763C7.42544 15.8529 7.48784 16.1459 7.66325 16.3701C7.83866 16.5952 8.10807 16.7263 8.39285 16.7263H12.6115L7.52586 30.3497C7.3631 30.7837 7.54666 31.271 7.95439 31.4907C8.36396 31.7102 8.87069 31.5927 9.14146 31.2194L23.9545 10.7898C24.1597 10.5086 24.1886 10.1362 24.0313 9.82515C23.8731 9.51506 23.5539 9.31978 23.2058 9.31978H19.2865L23.9996 1.40223C24.1715 1.11567 24.176 0.759475 24.0114 0.469263Z" fill="#7B2FFF"/>
</g>
<defs>
<clipPath id="clip0_2776_2007">
<rect width="31.601" height="31.601" fill="white"/>
</clipPath>
</defs>
</svg>
