<svg width="32" height="32" viewBox="0 0 32 32" fill="none" xmlns="http://www.w3.org/2000/svg">
<g clip-path="url(#clip0_2776_2010)">
<path d="M24.4803 11.994C24.3951 11.8872 24.2918 11.9082 24.2377 11.93C24.1923 11.9484 24.0884 12.0072 24.1027 12.1544C24.12 12.3313 24.1297 12.5115 24.1316 12.6904C24.1393 13.4321 23.8417 14.1588 23.3152 14.6841C22.7921 15.206 22.104 15.4872 21.3714 15.4791C20.3707 15.4663 19.5406 14.9443 18.971 13.9696C18.5 13.1636 18.707 12.124 18.9262 11.0233C19.0545 10.3791 19.1871 9.71288 19.1871 9.07882C19.1871 4.14184 15.8681 1.29354 13.8897 0.0351191C13.8488 0.00913468 13.8099 0 13.7754 0C13.7193 0 13.6748 0.0241946 13.6529 0.0390075C13.6105 0.0677694 13.5425 0.133317 13.5643 0.249352C14.3205 4.26503 12.065 6.68023 9.67705 9.2372C7.21562 11.8729 4.42578 14.8602 4.42578 20.2479C4.42578 26.5082 9.5188 31.6012 15.779 31.6012C20.9334 31.6012 25.478 28.0075 26.8304 22.8621C27.7527 19.3537 26.7862 14.8847 24.4803 11.994ZM16.0622 29.1778C14.4947 29.2493 13.0039 28.6871 11.8652 27.5983C10.7387 26.5212 10.0926 25.018 10.0926 23.4741C10.0926 20.5769 11.2004 18.45 14.1799 15.6263C14.2286 15.5801 14.2786 15.5655 14.3221 15.5655C14.3615 15.5655 14.3957 15.5775 14.4192 15.5888C14.4688 15.6127 14.5503 15.6718 14.5393 15.7997C14.4328 17.0394 14.4346 18.0683 14.5447 18.8581C14.8262 20.8755 16.303 22.2309 18.2197 22.2309C19.1595 22.2309 20.0546 21.8772 20.7403 21.235C20.8198 21.1605 20.9087 21.17 20.9428 21.1772C20.9879 21.187 21.0483 21.2146 21.08 21.291C21.3643 21.9774 21.5095 22.706 21.5118 23.4564C21.5208 26.4761 19.0762 29.0428 16.0622 29.1778Z" fill="#FA7618"/>
</g>
<defs>
<clipPath id="clip0_2776_2010">
<rect width="31.601" height="31.601" fill="white"/>
</clipPath>
</defs>
</svg>
