<svg width="20" height="20" viewBox="0 0 20 20" fill="none" xmlns="http://www.w3.org/2000/svg">
<path d="M9.99918 10L5.4048 14.5944C5.04184 14.9574 4.83789 15.4396 4.83789 15.8064L5.47187 16.2287H11.4914L9.99918 10Z" fill="#E1F5FB"/>
<path d="M15.1613 18.7097V15.963C15.1613 15.4497 14.9574 14.9574 14.5944 14.5944L10 10V18.7097H15.1613Z" fill="#CCEFFA"/>
<path d="M5.20461 2.17896L4.83789 2.58063V4.037C4.83789 4.55032 5.0418 5.04263 5.4048 5.4056L6.45082 6.45161L12.0174 7.13368L13.4512 2.17896H5.20461Z" fill="#E1F5FB"/>
<path d="M4.83789 1.29028V2.5806H10.9669C11.6795 2.5806 12.2572 3.15829 12.2572 3.87091V4.03696C12.2572 4.55028 12.1553 5.04259 11.9738 5.40556L11.3965 6.56021L13.5475 6.45161L14.5936 5.4056C14.9565 5.04263 15.1605 4.55032 15.1605 4.03696V1.29028H4.83789Z" fill="#CCEFFA"/>
<path d="M6.45117 6.45166L9.39352 9.39404C9.575 9.57553 9.67695 9.82166 9.67695 10.0783L11.7802 6.79439L11.4512 6.4517H6.45117V6.45166Z" fill="#FFE077"/>
<path d="M9.6766 14.1152C9.6766 14.3719 9.57465 14.618 9.39316 14.7995L8.66973 15.523C8.48824 15.7045 8.24207 15.8064 7.98539 15.8064H4.83789V18.7096H10.9993V16.059L9.6766 14.1152Z" fill="#FFE077"/>
<path d="M15.1616 15.8065H12.0141C11.7574 15.8065 11.5113 15.7046 11.3298 15.5231L10.6064 14.7996C10.4249 14.6181 10.3229 14.3719 10.3229 14.1153V10.0783C10.3229 9.82166 10.4248 9.57549 10.6063 9.394L13.5487 6.45166H11.4519L9.9348 9.09334C9.76637 9.38666 9.67773 9.719 9.67773 10.0572V14.1534C9.67773 14.6041 9.78266 15.0486 9.98422 15.4517L10.3389 16.1612C10.5405 16.5644 10.6454 17.0089 10.6454 17.4596V18.7097H15.1616V15.8065H15.1616Z" fill="#FFD05B"/>
<path d="M13.5482 0H4.83852C4.48219 0 4.19336 0.288867 4.19336 0.645156V1.29031L4.83852 1.62781H14.1934V0.645156C14.1934 0.288867 13.9045 0 13.5482 0Z" fill="#F4AA73"/>
<path d="M15.1611 0H13.5482V0.645156C13.5482 1.00145 13.2593 1.29031 12.903 1.29031H4.19336C4.19336 1.6466 4.48223 1.93547 4.83852 1.93547H15.1611C15.5174 1.93547 15.8062 1.6466 15.8062 1.29031V0.645156C15.8062 0.288828 15.5174 0 15.1611 0Z" fill="#E29A6C"/>
<path d="M13.5482 18.0645H4.83852C4.48219 18.0645 4.19336 18.3533 4.19336 18.7096V19.3548L4.83852 19.6923H14.1934V18.7096C14.1934 18.3533 13.9045 18.0645 13.5482 18.0645Z" fill="#F4AA73"/>
<path d="M15.1611 18.0645H13.5482V18.7096C13.5482 19.0659 13.2593 19.3548 12.903 19.3548H4.19336C4.19336 19.7111 4.48223 19.9999 4.83852 19.9999H15.1611C15.5174 19.9999 15.8062 19.7111 15.8062 19.3548V18.7096C15.8062 18.3533 15.5174 18.0645 15.1611 18.0645Z" fill="#E29A6C"/>
</svg>
