<svg width="20" height="20" viewBox="0 0 20 20" fill="none" xmlns="http://www.w3.org/2000/svg">
<path d="M18.3327 6.6665C18.3327 6.2985 18.1833 5.96517 17.9423 5.72384L14.2757 2.05717C14.034 1.81584 13.7007 1.6665 13.3327 1.6665C12.6647 1.6665 12.116 2.1595 12.0193 2.80084L11.9423 2.72384C11.7007 2.4825 11.3673 2.33317 10.9993 2.33317C10.263 2.33317 9.66602 2.93017 9.66602 3.6665C9.66602 4.0345 9.81535 4.36784 10.0563 4.60917L11.898 6.45084L6.45068 11.8988L4.60902 10.0572C4.36735 9.81584 4.03402 9.6665 3.66602 9.6665C2.92968 9.6665 2.33268 10.2635 2.33268 10.9998C2.33268 11.3678 2.48202 11.7012 2.72302 11.9425L2.80035 12.0198C2.15902 12.1165 1.66602 12.6648 1.66602 13.3332C1.66602 13.7012 1.81535 14.0345 2.05635 14.2758L5.72302 17.9425C5.96468 18.1838 6.29802 18.3332 6.66602 18.3332C7.33402 18.3332 7.88268 17.8402 7.97935 17.1988L8.05635 17.2758C8.29802 17.5172 8.63135 17.6665 8.99935 17.6665C9.73568 17.6665 10.3327 17.0695 10.3327 16.3332C10.3327 15.9652 10.1833 15.6318 9.94235 15.3905L8.10068 13.5488L13.5483 8.10117L15.39 9.94284C15.6313 10.1838 15.9647 10.3332 16.3327 10.3332C17.069 10.3332 17.666 9.73617 17.666 8.99984C17.666 8.63184 17.5167 8.2985 17.2757 8.05717L17.1983 7.97984C17.8397 7.88317 18.3327 7.33484 18.3327 6.6665Z" fill="white"/>
</svg>
