<svg width="26" height="26" viewBox="0 0 26 26" fill="none" xmlns="http://www.w3.org/2000/svg">
<path d="M3.59742 17.8608L3.1962 21.1821C3.17741 21.3236 3.18914 21.4674 3.23061 21.6039C3.27207 21.7404 3.34231 21.8664 3.43658 21.9735C3.53085 22.0805 3.64698 22.1662 3.77713 22.2246C3.90728 22.283 4.04844 22.3128 4.1911 22.3121C4.23359 22.3122 4.27605 22.3096 4.3182 22.3041L7.63957 21.9029C8.33783 21.8144 8.98667 21.4958 9.48354 20.9973L18.0898 12.391C18.1645 12.3163 18.2064 12.215 18.2064 12.1093C18.2064 12.0037 18.1645 11.9023 18.0898 11.8276L13.6743 7.40816C13.5996 7.33347 13.4983 7.2915 13.3926 7.2915C13.287 7.2915 13.1856 7.33347 13.1109 7.40816L4.50307 16.0168C4.00457 16.5137 3.68589 17.1625 3.59742 17.8608Z" fill="#059669"/>
<path d="M21.7058 5.8527L19.6458 3.79278C19.4541 3.60089 19.2264 3.44867 18.9757 3.34481C18.7251 3.24096 18.4565 3.1875 18.1852 3.1875C17.9139 3.1875 17.6452 3.24096 17.3946 3.34481C17.144 3.44867 16.9163 3.60089 16.7245 3.79278L14.7905 5.72679C14.7158 5.80151 14.6738 5.90284 14.6738 6.00849C14.6738 6.11414 14.7158 6.21547 14.7905 6.29019L19.2084 10.7081C19.2831 10.7828 19.3844 10.8247 19.4901 10.8247C19.5957 10.8247 19.697 10.7828 19.7718 10.7081L21.7058 8.77404C21.8977 8.58227 22.0499 8.35456 22.1537 8.10393C22.2576 7.8533 22.311 7.58467 22.311 7.31337C22.311 7.04208 22.2576 6.77344 22.1537 6.52282C22.0499 6.27219 21.8977 6.04448 21.7058 5.8527Z" fill="#059669"/>
<path d="M22.3125 21.5156C22.3125 21.3043 22.2285 21.1016 22.0791 20.9521C21.9297 20.8027 21.727 20.7188 21.5156 20.7188H12.3516C12.1402 20.7188 11.9375 20.8027 11.7881 20.9521C11.6386 21.1016 11.5547 21.3043 11.5547 21.5156C11.5547 21.727 11.6386 21.9297 11.7881 22.0791C11.9375 22.2285 12.1402 22.3125 12.3516 22.3125H21.5156C21.727 22.3125 21.9297 22.2285 22.0791 22.0791C22.2285 21.9297 22.3125 21.727 22.3125 21.5156Z" fill="#059669"/>
</svg>
