<svg width="29" height="29" viewBox="0 0 29 29" fill="none" xmlns="http://www.w3.org/2000/svg">
<g clip-path="url(#clip0_2776_2004)">
<path d="M19.047 11.4746C20.9676 9.72354 23.5648 7.35538 23.8016 1.69781H25.5164V0.000488281H3.45117V1.69781H5.16598C5.4027 7.35538 7.99994 9.72354 9.92051 11.4746C11.2088 12.6492 11.9378 13.3681 11.9378 14.4843C11.9378 15.6005 11.2088 16.3194 9.92051 17.494C7.99994 19.2451 5.4027 21.6132 5.16598 27.2708H3.45117V28.9681H25.5164V27.2708H23.8016C23.5648 21.6132 20.9676 19.2451 19.047 17.494C17.7587 16.3194 17.0297 15.6005 17.0297 14.4843C17.0297 13.3681 17.7587 12.6492 19.047 11.4746ZM13.6351 20.8458C13.3703 20.9003 13.1112 20.9798 12.8613 21.0831L7.66313 23.2341C8.51202 21.0757 9.87927 19.8285 11.0641 18.7484C12.3863 17.5429 13.6351 16.4043 13.6351 14.4843V20.8458ZM17.9035 18.7484C19.0883 19.8285 20.4555 21.0757 21.3044 23.2341L16.1062 21.083C15.8564 20.9797 15.5973 20.9003 15.3324 20.8457V14.4843C15.3324 16.4043 16.5813 17.5429 17.9035 18.7484ZM7.63332 5.65823C7.22296 4.58897 6.93956 3.29793 6.86539 1.69781H22.1021C22.0279 3.29793 21.7446 4.58897 21.3342 5.65823H7.63332Z" fill="#0099B9"/>
</g>
<defs>
<clipPath id="clip0_2776_2004">
<rect width="28.9676" height="28.9676" fill="white"/>
</clipPath>
</defs>
</svg>
