<svg width="18" height="18" viewBox="0 0 18 18" fill="none" xmlns="http://www.w3.org/2000/svg">
<g clip-path="url(#clip0_2776_2024)">
<path d="M15.8594 6.74512H13.3073C12.9046 6.74512 12.5781 7.07158 12.5781 7.47428V15.8597C12.5781 16.2624 12.9046 16.5889 13.3073 16.5889H15.8594C16.2621 16.5889 16.5885 16.2624 16.5885 15.8597V7.47428C16.5885 7.07158 16.2621 6.74512 15.8594 6.74512Z" fill="white"/>
<path d="M10.0273 9.66113H7.47526C7.07255 9.66113 6.74609 9.98759 6.74609 10.3903V15.859C6.74609 16.2618 7.07255 16.5882 7.47526 16.5882H10.0273C10.4301 16.5882 10.7565 16.2618 10.7565 15.859V10.3903C10.7565 9.98759 10.4301 9.66113 10.0273 9.66113Z" fill="white"/>
<path d="M4.19337 11.1201H1.64128C1.23857 11.1201 0.912109 11.4466 0.912109 11.8493V15.8597C0.912109 16.2624 1.23857 16.5889 1.64128 16.5889H4.19337C4.59608 16.5889 4.92253 16.2624 4.92253 15.8597V11.8493C4.92253 11.4466 4.59608 11.1201 4.19337 11.1201Z" fill="white"/>
<path d="M2.18915 10.2087C2.01649 10.2066 1.85018 10.1433 1.71981 10.0301C1.58945 9.91687 1.50348 9.76108 1.47723 9.59041C1.45098 9.41974 1.48613 9.24533 1.57644 9.09816C1.66675 8.95099 1.80635 8.84066 1.9704 8.78678C4.20676 8.07916 6.35667 7.12283 8.37976 5.93574C10.725 4.55716 12.8818 2.88072 14.7964 0.948242C14.864 0.879346 14.9445 0.824534 15.0334 0.786984C15.1223 0.749434 15.2177 0.729892 15.3141 0.729492C15.5054 0.730296 15.6888 0.806242 15.8245 0.940951C15.9604 1.07757 16.0366 1.26238 16.0366 1.45501C16.0366 1.64765 15.9604 1.83246 15.8245 1.96908C13.825 3.99367 11.5699 5.74874 9.11621 7.18991C7.00134 8.44637 4.75088 9.45908 2.4079 10.2087C2.33539 10.2197 2.26165 10.2197 2.18915 10.2087Z" fill="white"/>
<path d="M15.3138 5.10449C15.1204 5.10449 14.935 5.02766 14.7982 4.89091C14.6615 4.75416 14.5846 4.5687 14.5846 4.37533V2.18783H12.3971C12.2038 2.18783 12.0183 2.111 11.8816 1.97426C11.7448 1.83751 11.668 1.65205 11.668 1.45866C11.668 1.26527 11.7448 1.0798 11.8816 0.943059C12.0183 0.806313 12.2038 0.729492 12.3971 0.729492H15.3138C15.5072 0.729492 15.6926 0.806313 15.8294 0.943059C15.9661 1.0798 16.043 1.26527 16.043 1.45866V4.37533C16.043 4.5687 15.9661 4.75416 15.8294 4.89091C15.6926 5.02766 15.5072 5.10449 15.3138 5.10449Z" fill="white"/>
</g>
<defs>
<clipPath id="clip0_2776_2024">
<rect width="17.5" height="17.5" fill="white"/>
</clipPath>
</defs>
</svg>
