<svg width="16" height="16" viewBox="0 0 16 16" fill="none" xmlns="http://www.w3.org/2000/svg">
<g clip-path="url(#clip0_2776_1995)">
<path d="M6.00067 7.966C6 4 7.33333 1.33333 10 0C10.3333 4 14 5.33333 14 10C14 11.5913 13.3679 13.1174 12.2426 14.2426C11.1174 15.3679 9.5913 16 8 16C6.4087 16 4.88258 15.3679 3.75736 14.2426C2.63214 13.1174 2 11.5913 2 10C2 7.66667 2.66667 6.66667 4 5.33333C4 7.33333 6.00067 7.966 6.00067 7.966Z" fill="#F16923"/>
<path d="M8.00085 15.8335C5.31685 15.8335 3.04419 14.0895 2.24219 11.6748C2.96752 14.1728 5.26885 16.0001 8.00085 16.0001C10.7329 16.0001 13.0342 14.1728 13.7595 11.6748C12.9575 14.0895 10.6849 15.8335 8.00085 15.8335Z" fill="#010101" fill-opacity="0.063"/>
<path d="M11 11.6668C11 12.4625 10.6839 13.2255 10.1213 13.7881C9.55871 14.3508 8.79565 14.6668 8 14.6668C7.20435 14.6668 6.44129 14.3508 5.87868 13.7881C5.31607 13.2255 5 12.4625 5 11.6668C5 10.5488 5.33333 9.97216 6 9.3335C6 10.6668 7 11.0002 7 11.0002C7 9.10016 7.66667 7.97216 9 7.3335C9.16667 9.25016 11 9.8755 11 11.6668Z" fill="#FDB816"/>
<path opacity="0.2" d="M7 11.1668C7 9.26683 7.66667 8.13883 9 7.50016C9.16333 9.37883 10.924 10.0195 10.9933 11.7315C10.994 11.7095 11 11.6888 11 11.6668C11 9.87483 9.16667 9.25016 9 7.3335C7.66667 7.97216 7 9.10016 7 11.0002C7 11.0002 6 10.6668 6 9.3335C5.33333 9.97216 5 10.5488 5 11.6668C5 11.6828 5.00467 11.6975 5.00467 11.7135C5.02933 10.6768 5.358 10.1148 6 9.50016C6 10.8335 7 11.1668 7 11.1668Z" fill="white"/>
<path opacity="0.1" d="M8 14.5C7.21297 14.4995 6.45769 14.1895 5.89726 13.637C5.33683 13.0844 5.01622 12.3336 5.00467 11.5466C5.004 11.588 5 11.624 5 11.6666C5 12.4623 5.31607 13.2253 5.87868 13.788C6.44129 14.3506 7.20435 14.6666 8 14.6666C8.79565 14.6666 9.55871 14.3506 10.1213 13.788C10.6839 13.2253 11 12.4623 11 11.6666C11 11.6313 10.9947 11.5993 10.9933 11.5646C10.9775 12.3482 10.6552 13.0943 10.0956 13.6431C9.53604 14.1918 8.78373 14.4994 8 14.5Z" fill="#010101"/>
<path opacity="0.2" d="M6.00067 8.13267C6 4.16667 7.33333 1.5 10 0.166667C10.3313 4.14133 13.95 5.48667 13.996 10.082C13.996 10.0547 14 10.028 14 10C14 5.33333 10.3333 4 10 0C7.33333 1.33333 6 4 6.00067 7.966C6.00067 7.966 4 7.33333 4 5.33333C2.66667 6.66667 2 7.66667 2 10C2 10.024 2.00333 10.048 2.00333 10.072C2.02333 7.81 2.68667 6.81333 4 5.5C4 7.5 6.00067 8.13267 6.00067 8.13267Z" fill="white"/>
<path d="M6.00067 7.966C6 4 7.33333 1.33333 10 0C10.3333 4 14 5.33333 14 10C14 11.5913 13.3679 13.1174 12.2426 14.2426C11.1174 15.3679 9.5913 16 8 16C6.4087 16 4.88258 15.3679 3.75736 14.2426C2.63214 13.1174 2 11.5913 2 10C2 7.66667 2.66667 6.66667 4 5.33333C4 7.33333 6.00067 7.966 6.00067 7.966Z" fill="url(#paint0_linear_2776_1995)"/>
</g>
<defs>
<linearGradient id="paint0_linear_2776_1995" x1="3.27067" y1="5.63933" x2="14.2647" y2="10.766" gradientUnits="userSpaceOnUse">
<stop stop-color="white" stop-opacity="0.2"/>
<stop offset="1" stop-color="white" stop-opacity="0"/>
</linearGradient>
<clipPath id="clip0_2776_1995">
<rect width="16" height="16" fill="white"/>
</clipPath>
</defs>
</svg>
