<svg width="20" height="20" viewBox="0 0 20 20" fill="none" xmlns="http://www.w3.org/2000/svg">
<path d="M10.0007 7.66659C10.9211 7.66659 11.6673 6.92039 11.6673 5.99992C11.6673 5.07944 10.9211 4.33325 10.0007 4.33325C9.08018 4.33325 8.33398 5.07944 8.33398 5.99992C8.33398 6.92039 9.08018 7.66659 10.0007 7.66659Z" fill="#FAAC18"/>
<path d="M2.33333 5.33333H3.66667C3.85 5.33333 4 5.18333 4 5V4.02667C4.01667 4.08333 4.04 4.13333 4.07 4.17L7.42333 9.71C7.60333 9.95667 7.72 10.22 7.76667 10.5133L7.95667 11.3467C7.98667 11.5167 7.91333 11.6933 7.75667 11.84L5.95 13.5C5.67667 13.7467 5.50333 14.0667 5.46667 14.3967L5.11667 17.0467C5.07 17.51 5.45667 17.9233 6.01333 17.99C6.06 17.9967 6.10333 18 6.15333 18C6.65333 18 7.08 17.7 7.16667 17.3033L7.72333 15.16C7.77333 14.9467 7.92667 14.75 8.16 14.6067L9.46333 13.8C9.79 13.5967 10.2233 13.6 10.5467 13.8L11.83 14.5933C12.0767 14.7467 12.2433 14.9533 12.2967 15.1933L12.8433 17.29C12.9333 17.7067 13.3667 18 13.86 18C13.91 18 13.96 17.9967 14.01 17.99C14.5233 17.93 14.8967 17.57 14.8967 17.1333C14.8967 17.0933 14.8933 17.0567 14.89 17.04L14.5467 14.4233C14.5067 14.0733 14.3367 13.75 14.05 13.4867L12.12 11.7167C12.08 11.6767 12.0133 11.6 12.0267 11.52L12.2333 10.59C12.2867 10.25 12.43 9.92667 12.6533 9.63C12.66 9.62 12.6667 9.61 12.67 9.6L15.9333 4.21C15.96 4.17333 15.9833 4.13333 16 4.09V5C16 5.18333 16.15 5.33333 16.3333 5.33333H17.6667C17.85 5.33333 18 5.18333 18 5V2.33333C18 2.14667 17.85 2 17.6667 2H16.3333C16.15 2 16 2.14667 16 2.33333V3.33333H4V2.33333C4 2.14667 3.85 2 3.66667 2H2.33333C2.15 2 2 2.14667 2 2.33333V5C2 5.18333 2.15 5.33333 2.33333 5.33333ZM13.9667 4L10.8733 8.14667C10.3167 7.99 9.73667 7.99 9.14 8.15L6.04667 4H13.9667Z" fill="#FAAC18"/>
</svg>
