<svg width="24" height="24" viewBox="0 0 24 24" fill="none" xmlns="http://www.w3.org/2000/svg">
<path d="M3.97735 7.70972H20.0206C20.1173 7.70974 20.213 7.69001 20.3018 7.65173C20.3906 7.61346 20.4706 7.55745 20.537 7.48715C20.6034 7.41684 20.6547 7.33372 20.6878 7.24287C20.721 7.15203 20.7352 7.05538 20.7296 6.95884L20.7207 6.77458C20.6054 4.90998 19.0468 3.4494 17.1719 3.4494H16.2595V2.73935C16.2595 2.55103 16.1847 2.37043 16.0515 2.23727C15.9183 2.10411 15.7377 2.0293 15.5494 2.0293C15.3611 2.0293 15.1805 2.10411 15.0473 2.23727C14.9142 2.37043 14.8394 2.55103 14.8394 2.73935V3.4494H9.15896V2.73935C9.15896 2.55103 9.08416 2.37043 8.95099 2.23727C8.81783 2.10411 8.63723 2.0293 8.44891 2.0293C8.26059 2.0293 8.07999 2.10411 7.94683 2.23727C7.81367 2.37043 7.73886 2.55103 7.73886 2.73935V3.4494H6.82644C4.95154 3.4494 3.39262 4.91034 3.27724 6.776L3.26836 6.9592C3.26269 7.05574 3.27684 7.15242 3.30992 7.24329C3.34301 7.33416 3.39433 7.4173 3.46074 7.4876C3.52715 7.5579 3.60724 7.61387 3.69608 7.65207C3.78492 7.69027 3.88064 7.70989 3.97735 7.70972ZM20.8407 9.82213C20.8362 9.63694 20.7594 9.46086 20.6268 9.33151C20.4942 9.20215 20.3163 9.12978 20.131 9.12983H3.86729C3.68204 9.12986 3.50412 9.20226 3.37148 9.33159C3.23884 9.46091 3.16196 9.63694 3.15724 9.82213C3.09309 12.3346 3.13787 14.8486 3.29144 17.3572C3.40221 19.1395 4.82977 20.5667 6.61129 20.6774C10.1994 20.9023 13.7982 20.9021 17.3863 20.6771C19.1686 20.5663 20.5958 19.1387 20.7069 17.3569C20.8596 14.9008 20.9046 12.3655 20.8407 9.82213ZM15.5494 13.3902C15.2669 13.3902 14.996 13.2779 14.7963 13.0782C14.5966 12.8785 14.4843 12.6075 14.4843 12.3251C14.4843 12.0426 14.5966 11.7717 14.7963 11.5719C14.996 11.3722 15.2669 11.26 15.5494 11.26C15.8319 11.26 16.1028 11.3722 16.3026 11.5719C16.5023 11.7717 16.6145 12.0426 16.6145 12.3251C16.6145 12.6075 16.5023 12.8785 16.3026 13.0782C16.1028 13.2779 15.8319 13.3902 15.5494 13.3902ZM16.6145 15.8753C16.6145 16.1578 16.5023 16.4287 16.3026 16.6285C16.1028 16.8282 15.8319 16.9404 15.5494 16.9404C15.2669 16.9404 14.996 16.8282 14.7963 16.6285C14.5966 16.4287 14.4843 16.1578 14.4843 15.8753C14.4843 15.5929 14.5966 15.322 14.7963 15.1222C14.996 14.9225 15.2669 14.8103 15.5494 14.8103C15.8319 14.8103 16.1028 14.9225 16.3026 15.1222C16.5023 15.322 16.6145 15.5929 16.6145 15.8753ZM8.44891 14.8103C8.73139 14.8103 9.0023 14.9225 9.20204 15.1222C9.40178 15.322 9.51399 15.5929 9.51399 15.8753C9.51399 16.1578 9.40178 16.4287 9.20204 16.6285C9.0023 16.8282 8.73139 16.9404 8.44891 16.9404C8.16643 16.9404 7.89553 16.8282 7.69579 16.6285C7.49604 16.4287 7.38383 16.1578 7.38383 15.8753C7.38383 15.5929 7.49604 15.322 7.69579 15.1222C7.89553 14.9225 8.16643 14.8103 8.44891 14.8103ZM7.38383 12.3251C7.38383 12.1852 7.41138 12.0467 7.46491 11.9175C7.51843 11.7883 7.59688 11.6708 7.69579 11.5719C7.79469 11.473 7.9121 11.3946 8.04132 11.3411C8.17054 11.2875 8.30904 11.26 8.44891 11.26C8.58878 11.26 8.72728 11.2875 8.8565 11.3411C8.98572 11.3946 9.10313 11.473 9.20204 11.5719C9.30094 11.6708 9.37939 11.7883 9.43292 11.9175C9.48644 12.0467 9.51399 12.1852 9.51399 12.3251C9.51399 12.6075 9.40178 12.8785 9.20204 13.0782C9.0023 13.2779 8.73139 13.3902 8.44891 13.3902C8.16643 13.3902 7.89553 13.2779 7.69579 13.0782C7.49604 12.8785 7.38383 12.6075 7.38383 12.3251ZM10.9341 15.8753C10.9341 15.5929 11.0463 15.322 11.246 15.1222C11.4458 14.9225 11.7167 14.8103 11.9992 14.8103C12.2816 14.8103 12.5525 14.9225 12.7523 15.1222C12.952 15.322 13.0642 15.5929 13.0642 15.8753C13.0642 16.1578 12.952 16.4287 12.7523 16.6285C12.5525 16.8282 12.2816 16.9404 11.9992 16.9404C11.7167 16.9404 11.4458 16.8282 11.246 16.6285C11.0463 16.4287 10.9341 16.1578 10.9341 15.8753ZM11.9992 13.3902C11.7167 13.3902 11.4458 13.2779 11.246 13.0782C11.0463 12.8785 10.9341 12.6075 10.9341 12.3251C10.9341 12.0426 11.0463 11.7717 11.246 11.5719C11.4458 11.3722 11.7167 11.26 11.9992 11.26C12.2816 11.26 12.5525 11.3722 12.7523 11.5719C12.952 11.7717 13.0642 12.0426 13.0642 12.3251C13.0642 12.6075 12.952 12.8785 12.7523 13.0782C12.5525 13.2779 12.2816 13.3902 11.9992 13.3902Z" fill="white"/>
</svg>
