<svg width="317" height="328" viewBox="0 0 317 328" fill="none" xmlns="http://www.w3.org/2000/svg">
<g filter="url(#filter0_f_2_658)">
<circle cx="122.499" cy="120.62" r="76.6203" fill="#FFC701" fill-opacity="0.5"/>
</g>
<circle cx="122.499" cy="123.132" r="73.1083" fill="url(#paint0_linear_2_658)" stroke="url(#paint1_linear_2_658)" stroke-width="2"/>
<mask id="mask0_2_658" style="mask-type:alpha" maskUnits="userSpaceOnUse" x="48" y="90" width="149" height="108">
<path d="M196.608 123.133C196.608 164.061 163.428 197.241 122.499 197.241C81.5705 197.241 48.3911 164.061 48.3911 123.133C48.3911 82.2037 75.9182 91.7307 116.847 91.7307C157.776 91.7307 196.608 82.2037 196.608 123.133Z" fill="url(#paint2_linear_2_658)"/>
</mask>
<g mask="url(#mask0_2_658)">
<g filter="url(#filter1_f_2_658)">
<path fill-rule="evenodd" clip-rule="evenodd" d="M235.546 258.788C235.546 288.618 211.364 312.799 181.535 312.799C181.325 312.799 181.116 312.798 180.907 312.796V312.799H-8.76006L-8.75767 312.796C-8.9676 312.799 -9.17782 312.8 -9.38832 312.8C-39.2178 312.8 -63.3994 288.618 -63.3994 258.789C-63.3994 228.959 -39.2178 204.778 -9.38832 204.778C16.3238 204.778 37.8395 222.744 43.2893 246.808L61.58 223.618L118.731 204.777H180.907V204.781C181.116 204.778 181.325 204.777 181.535 204.777C211.364 204.777 235.546 228.959 235.546 258.788Z" fill="#E18700"/>
</g>
</g>
<foreignObject x="0" y="81.8518" width="316.044" height="246.148"><div xmlns="http://www.w3.org/1999/xhtml" style="backdrop-filter:blur(7px);clip-path:url(#bgblur_0_2_658_clip_path);height:100%;width:100%"></div></foreignObject><g filter="url(#filter2_d_2_658)" data-figma-bg-blur-radius="14">
<mask id="path-5-inside-1_2_658" fill="white">
<path fill-rule="evenodd" clip-rule="evenodd" d="M247.556 262.997C247.708 262.999 247.859 263 248.011 263C269.569 263 287.045 245.524 287.045 223.967C287.045 202.409 269.569 184.933 248.011 184.933C247.859 184.933 247.708 184.934 247.556 184.936V184.933H237.473C237.838 182.262 238.026 179.535 238.026 176.763C238.026 143.675 211.202 116.852 178.114 116.852C145.026 116.852 118.203 143.675 118.203 176.763C118.203 179.886 118.442 182.952 118.902 185.945C116.053 185.283 113.084 184.933 110.033 184.933C88.4758 184.933 71 202.409 71 223.967C71 245.524 88.4758 263 110.033 263C110.185 263 110.337 262.999 110.488 262.997L110.486 263H247.556V262.997Z"/>
</mask>
<path fill-rule="evenodd" clip-rule="evenodd" d="M247.556 262.997C247.708 262.999 247.859 263 248.011 263C269.569 263 287.045 245.524 287.045 223.967C287.045 202.409 269.569 184.933 248.011 184.933C247.859 184.933 247.708 184.934 247.556 184.936V184.933H237.473C237.838 182.262 238.026 179.535 238.026 176.763C238.026 143.675 211.202 116.852 178.114 116.852C145.026 116.852 118.203 143.675 118.203 176.763C118.203 179.886 118.442 182.952 118.902 185.945C116.053 185.283 113.084 184.933 110.033 184.933C88.4758 184.933 71 202.409 71 223.967C71 245.524 88.4758 263 110.033 263C110.185 263 110.337 262.999 110.488 262.997L110.486 263H247.556V262.997Z" fill="url(#paint3_linear_2_658)" shape-rendering="crispEdges"/>
<path d="M247.556 262.997L247.579 260.998C247.045 260.991 246.53 261.199 246.15 261.575C245.77 261.951 245.556 262.463 245.556 262.997H247.556ZM247.556 184.936H245.556C245.556 185.47 245.77 185.983 246.15 186.358C246.53 186.734 247.045 186.942 247.579 186.936L247.556 184.936ZM247.556 184.933H249.556C249.556 183.829 248.661 182.933 247.556 182.933V184.933ZM237.473 184.933L235.492 184.663C235.414 185.236 235.587 185.814 235.967 186.249C236.346 186.684 236.896 186.933 237.473 186.933V184.933ZM118.902 185.945L118.449 187.894C119.096 188.044 119.775 187.863 120.262 187.412C120.749 186.961 120.98 186.297 120.879 185.641L118.902 185.945ZM110.488 262.997L112.058 264.237C112.536 263.632 112.623 262.807 112.283 262.115C111.943 261.424 111.236 260.989 110.466 260.998L110.488 262.997ZM110.486 263L108.917 261.76C108.442 262.362 108.352 263.182 108.687 263.872C109.021 264.562 109.72 265 110.486 265V263ZM247.556 263V265C248.661 265 249.556 264.105 249.556 263H247.556ZM247.534 264.997C247.693 264.999 247.852 265 248.011 265V261C247.867 261 247.723 260.999 247.579 260.998L247.534 264.997ZM248.011 265C270.673 265 289.045 246.629 289.045 223.967H285.045C285.045 244.42 268.464 261 248.011 261V265ZM289.045 223.967C289.045 201.305 270.673 182.933 248.011 182.933V186.933C268.464 186.933 285.045 203.514 285.045 223.967H289.045ZM248.011 182.933C247.852 182.933 247.693 182.934 247.534 182.936L247.579 186.936C247.723 186.934 247.867 186.933 248.011 186.933V182.933ZM245.556 184.933V184.936H249.556V184.933H245.556ZM237.473 186.933H247.556V182.933H237.473V186.933ZM239.455 185.204C239.831 182.443 240.026 179.625 240.026 176.763H236.026C236.026 179.444 235.844 182.081 235.492 184.663L239.455 185.204ZM240.026 176.763C240.026 142.571 212.307 114.852 178.114 114.852V118.852C210.098 118.852 236.026 144.78 236.026 176.763H240.026ZM178.114 114.852C143.922 114.852 116.203 142.571 116.203 176.763H120.203C120.203 144.78 146.131 118.852 178.114 118.852V114.852ZM116.203 176.763C116.203 179.988 116.449 183.156 116.925 186.249L120.879 185.641C120.434 182.748 120.203 179.783 120.203 176.763H116.203ZM119.355 183.997C116.358 183.301 113.237 182.933 110.033 182.933V186.933C112.93 186.933 115.748 187.266 118.449 187.894L119.355 183.997ZM110.033 182.933C87.3712 182.933 69 201.305 69 223.967H73C73 203.514 89.5804 186.933 110.033 186.933V182.933ZM69 223.967C69 246.629 87.3712 265 110.033 265V261C89.5804 261 73 244.42 73 223.967H69ZM110.033 265C110.193 265 110.352 264.999 110.511 264.997L110.466 260.998C110.322 260.999 110.178 261 110.033 261V265ZM112.056 264.24L112.058 264.237L108.919 261.758L108.917 261.76L112.056 264.24ZM247.556 261H110.486V265H247.556V261ZM245.556 262.997V263H249.556V262.997H245.556Z" fill="url(#paint4_linear_2_658)" mask="url(#path-5-inside-1_2_658)"/>
</g>
<defs>
<filter id="filter0_f_2_658" x="1.87891" y="0" width="241.241" height="241.241" filterUnits="userSpaceOnUse" color-interpolation-filters="sRGB">
<feFlood flood-opacity="0" result="BackgroundImageFix"/>
<feBlend mode="normal" in="SourceGraphic" in2="BackgroundImageFix" result="shape"/>
<feGaussianBlur stdDeviation="22" result="effect1_foregroundBlur_2_658"/>
</filter>
<filter id="filter1_f_2_658" x="-77.3994" y="190.777" width="326.945" height="136.023" filterUnits="userSpaceOnUse" color-interpolation-filters="sRGB">
<feFlood flood-opacity="0" result="BackgroundImageFix"/>
<feBlend mode="normal" in="SourceGraphic" in2="BackgroundImageFix" result="shape"/>
<feGaussianBlur stdDeviation="7" result="effect1_foregroundBlur_2_658"/>
</filter>
<filter id="filter2_d_2_658" x="0" y="81.8518" width="316.044" height="246.148" filterUnits="userSpaceOnUse" color-interpolation-filters="sRGB">
<feFlood flood-opacity="0" result="BackgroundImageFix"/>
<feColorMatrix in="SourceAlpha" type="matrix" values="0 0 0 0 0 0 0 0 0 0 0 0 0 0 0 0 0 0 127 0" result="hardAlpha"/>
<feOffset dx="-21" dy="15"/>
<feGaussianBlur stdDeviation="25"/>
<feComposite in2="hardAlpha" operator="out"/>
<feColorMatrix type="matrix" values="0 0 0 0 0.113438 0 0 0 0 0.148981 0 0 0 0 0.275 0 0 0 0.25 0"/>
<feBlend mode="normal" in2="BackgroundImageFix" result="effect1_dropShadow_2_658"/>
<feBlend mode="normal" in="SourceGraphic" in2="effect1_dropShadow_2_658" result="shape"/>
</filter>
<clipPath id="bgblur_0_2_658_clip_path" transform="translate(0 -81.8518)"><path fill-rule="evenodd" clip-rule="evenodd" d="M247.556 262.997C247.708 262.999 247.859 263 248.011 263C269.569 263 287.045 245.524 287.045 223.967C287.045 202.409 269.569 184.933 248.011 184.933C247.859 184.933 247.708 184.934 247.556 184.936V184.933H237.473C237.838 182.262 238.026 179.535 238.026 176.763C238.026 143.675 211.202 116.852 178.114 116.852C145.026 116.852 118.203 143.675 118.203 176.763C118.203 179.886 118.442 182.952 118.902 185.945C116.053 185.283 113.084 184.933 110.033 184.933C88.4758 184.933 71 202.409 71 223.967C71 245.524 88.4758 263 110.033 263C110.185 263 110.337 262.999 110.488 262.997L110.486 263H247.556V262.997Z"/>
</clipPath><linearGradient id="paint0_linear_2_658" x1="122.499" y1="49.0241" x2="122.499" y2="197.241" gradientUnits="userSpaceOnUse">
<stop stop-color="#FFE600"/>
<stop offset="1" stop-color="#FF7A00"/>
</linearGradient>
<linearGradient id="paint1_linear_2_658" x1="122.499" y1="49.0241" x2="122.499" y2="197.241" gradientUnits="userSpaceOnUse">
<stop stop-color="white"/>
<stop offset="1" stop-color="white" stop-opacity="0"/>
</linearGradient>
<linearGradient id="paint2_linear_2_658" x1="122.499" y1="49.0243" x2="122.499" y2="197.241" gradientUnits="userSpaceOnUse">
<stop stop-color="#FFD600"/>
<stop offset="1" stop-color="#FF7A00"/>
</linearGradient>
<linearGradient id="paint3_linear_2_658" x1="189.071" y1="121.248" x2="189.071" y2="279.514" gradientUnits="userSpaceOnUse">
<stop stop-color="white"/>
<stop offset="1" stop-color="white" stop-opacity="0"/>
</linearGradient>
<linearGradient id="paint4_linear_2_658" x1="179.022" y1="116.852" x2="179.022" y2="263" gradientUnits="userSpaceOnUse">
<stop stop-color="white"/>
<stop offset="1" stop-color="white" stop-opacity="0"/>
</linearGradient>
</defs>
</svg>
