<svg width="204" height="183" viewBox="0 0 204 183" fill="none" xmlns="http://www.w3.org/2000/svg">
<path d="M193.206 41.0517C190.226 34.1514 185.929 27.8985 180.555 22.6432C175.178 17.372 168.838 13.183 161.88 10.3041C154.665 7.30681 146.927 5.77271 139.114 5.79093C128.153 5.79093 117.46 8.79232 108.166 14.4616C105.943 15.8178 103.831 17.3074 101.83 18.9303C99.8291 17.3074 97.717 15.8178 95.4938 14.4616C86.2006 8.79232 75.5068 5.79093 64.5462 5.79093C56.6536 5.79093 49.0056 7.30274 41.7801 10.3041C34.7991 13.1944 28.5073 17.3518 23.1048 22.6432C17.7242 27.8926 13.4263 34.147 10.4545 41.0517C7.36415 48.2328 5.78564 55.8585 5.78564 63.7066C5.78564 71.11 7.29746 78.8247 10.2988 86.6728C12.8111 93.2314 16.4128 100.035 21.0149 106.904C28.3072 117.776 38.334 129.115 50.7842 140.609C71.416 159.662 91.8477 172.824 92.7147 173.357L97.9838 176.737C100.318 178.226 103.32 178.226 105.654 176.737L110.923 173.357C111.79 172.802 132.2 159.662 152.854 140.609C165.304 129.115 175.331 117.776 182.623 106.904C187.225 100.035 190.849 93.2314 193.339 86.6728C196.34 78.8247 197.852 71.11 197.852 63.7066C197.874 55.8585 196.296 48.2328 193.206 41.0517ZM101.83 159.151C101.83 159.151 22.6823 108.438 22.6823 63.7066C22.6823 41.0517 41.4243 22.6876 64.5462 22.6876C80.7981 22.6876 94.8935 31.7585 101.83 45.0091C108.767 31.7585 122.862 22.6876 139.114 22.6876C162.236 22.6876 180.978 41.0517 180.978 63.7066C180.978 108.438 101.83 159.151 101.83 159.151Z" fill="#191725"/>
<path d="M142.668 14.2278C124.946 14.2278 109.575 24.4268 102.011 39.3254C94.4471 24.4268 79.0766 14.2278 61.3544 14.2278C36.141 14.2278 15.7036 34.8758 15.7036 60.3484C15.7036 110.644 102.011 167.663 102.011 167.663C102.011 167.663 188.319 110.644 188.319 60.3484C188.319 34.8758 167.881 14.2278 142.668 14.2278Z" fill="#080615"/>
<mask id="mask0_2544_1421" style="mask-type:alpha" maskUnits="userSpaceOnUse" x="14" y="14" width="177" height="156">
<path d="M143.953 14.2278C125.903 14.2278 110.248 24.5685 102.544 39.674C94.8398 24.5685 79.1847 14.2278 61.1344 14.2278C35.4541 14.2278 14.6382 35.1626 14.6382 60.989C14.6382 111.983 102.544 169.794 102.544 169.794C102.544 169.794 190.45 111.983 190.45 60.989C190.45 35.1626 169.634 14.2278 143.953 14.2278Z" fill="#191725"/>
</mask>
<g mask="url(#mask0_2544_1421)">
<path d="M98.9724 78.3938C41.2429 99.6101 -9.18352 32.1353 -57.5233 53.6994C-86.388 60.6556 -144.674 75.3331 -146.9 78.3938C-149.125 81.4545 -151.305 149.231 -152.116 182.736L276.682 253.341C305.894 217.285 356.043 134.878 322.935 93.6973C281.551 42.2218 156.702 57.1775 98.9724 78.3938Z" fill="#00A550" fill-opacity="0.72"/>
<path d="M162.485 78.8794C120.33 94.3755 81.6379 56.2499 46.5858 55.565C35.9939 55.3581 25.7636 59.1909 15.448 61.6035C-13.9246 68.4731 -42.5429 76.6937 -44.132 78.8794C-46.0023 81.4521 -47.8337 138.421 -48.5156 166.584L311.822 225.931C336.371 195.624 378.513 126.357 350.691 91.7427C315.914 48.4751 210.998 61.0461 162.485 78.8794Z" fill="#00A550" fill-opacity="0.69"/>
</g>
</svg>
