<svg width="79" height="79" viewBox="0 0 79 79" fill="none" xmlns="http://www.w3.org/2000/svg">
<path d="M39.4998 79C39.3018 79 39.1042 78.9983 38.907 78.9951C14.5646 78.5848 0.651517 51.0359 14.5092 31.0609L34.0985 2.8241C35.3256 1.05539 37.3441 0 39.4998 0C41.6555 0 43.674 1.05539 44.9009 2.8241L64.4903 31.0607C78.3482 51.0359 64.4348 78.5848 40.0927 78.9948C39.8954 78.9983 39.6977 79 39.4998 79Z" fill="#97DBFF"/>
<path d="M44.9094 78.5445C43.3555 78.8125 41.7482 78.9671 40.0922 78.9949C39.8952 78.9983 39.6975 79 39.4996 79C39.2637 79 39.0282 78.9975 38.7934 78.9929C14.5033 78.5032 0.680179 50.994 14.5089 31.0607L34.0983 2.8241C35.3254 1.05539 37.3439 0 39.4996 0C39.5212 0 39.5426 0.000154297 39.5642 0.000308594C42.6452 0.0305508 44.4166 3.52275 42.6637 6.05137L25.3288 31.0607C12.4137 49.6771 23.6203 74.8707 44.9094 78.5445Z" fill="#55C2EB"/>
<path d="M58.4308 61.8267C58.4308 64.6722 56.1195 66.9788 53.2679 66.9788C50.4163 66.9788 48.105 64.6722 48.105 61.8267C48.105 58.9811 50.4163 56.6745 53.2679 56.6745C56.1195 56.6744 58.4308 58.9811 58.4308 61.8267ZM60.1519 46.3701C58.2509 46.3701 56.7098 47.9078 56.7098 49.8049C56.7098 51.702 58.2508 53.2397 60.1519 53.2397C62.0528 53.2397 63.5939 51.702 63.5939 49.8049C63.5939 47.9078 62.0528 46.3701 60.1519 46.3701Z" fill="#B8F4FF"/>
</svg>
