<svg width="48" height="48" viewBox="0 0 48 48" fill="none" xmlns="http://www.w3.org/2000/svg">
<g clip-path="url(#clip0_2401_819)">
<path d="M20.7935 13.0807C20.659 12.8565 20.4648 12.6742 20.2326 12.5541C20.0004 12.4341 19.7394 12.3811 19.4787 12.4011L8.05116 13.2838C6.8942 13.3733 5.86361 13.9796 5.22349 14.9477L0.427747 22.2013C-0.0575925 22.9354 -0.134842 23.8541 0.221218 24.6588C0.577184 25.4635 1.3089 26.0243 2.17842 26.159L11.4446 27.5942C11.7141 27.6359 11.99 27.5983 12.2386 27.4861C12.4872 27.3738 12.6978 27.1917 12.8447 26.9619L20.7719 14.5605C20.9127 14.3402 20.9892 14.0851 20.9931 13.8237C20.9969 13.5623 20.9277 13.305 20.7935 13.0807Z" fill="#059669"/>
<path d="M34.9195 27.2066C34.6952 27.0723 34.4379 27.0032 34.1765 27.007C33.9151 27.0108 33.6599 27.0874 33.4396 27.2282L21.0383 35.1553C20.8085 35.3023 20.6263 35.5128 20.5141 35.7614C20.4018 36.01 20.3642 36.2859 20.406 36.5555L21.8411 45.8217C21.9758 46.6913 22.5366 47.4229 23.3414 47.7789C23.6695 47.9245 24.0243 47.9998 24.3832 48C24.8868 47.9996 25.3792 47.8509 25.7989 47.5724L33.0525 42.7766C34.0206 42.1367 34.6271 41.106 34.7163 39.9489L35.5991 28.5214C35.6192 28.2608 35.5663 27.9996 35.4462 27.7674C35.3262 27.5351 35.1438 27.3409 34.9195 27.2066Z" fill="#059669"/>
<path d="M18.0816 38.6508C18.6413 39.2105 19.4366 39.4723 20.2172 39.3417C31.6651 37.4275 40.724 27.9491 44.1728 21.2814C48.0024 13.8776 48.1442 6.0537 47.944 2.38435C47.8754 1.12699 46.8731 0.124712 45.6158 0.0560879C41.9464 -0.143973 34.1226 -0.00213037 26.7187 3.82743C20.0511 7.27619 10.5727 16.3351 8.6585 27.783C8.528 28.5636 8.78975 29.3589 9.34943 29.9186L18.0816 38.6508Z" fill="#FED095"/>
<path d="M47.2255 0.774414L13.7153 34.2846L18.0814 38.6507C18.6411 39.2104 19.4364 39.4721 20.217 39.3416C31.6649 37.4275 40.7238 27.949 44.1726 21.2814C48.0022 13.8777 48.144 6.05372 47.9438 2.38437C47.9114 1.77743 47.6556 1.20395 47.2255 0.774414Z" fill="#FFDAAA"/>
<path d="M32.881 22.1471C31.0801 22.1472 29.2801 21.4619 27.9092 20.091C26.5811 18.7631 25.8497 16.9973 25.8497 15.1192C25.8497 13.2411 26.5811 11.4754 27.9092 10.1474C30.6505 7.40599 35.1112 7.4059 37.8527 10.1474C39.1807 11.4754 39.9121 13.2411 39.9121 15.1192C39.9121 16.9973 39.1807 18.7631 37.8527 20.091C36.4822 21.4616 34.6812 22.1469 32.881 22.1471ZM8.6585 27.783C8.528 28.5636 8.78975 29.3589 9.34943 29.9186L18.0816 38.6507C18.6413 39.2104 19.4366 39.4722 20.2172 39.3417C22.7082 38.9251 25.0859 38.1502 27.3175 37.1243L10.8759 20.6828C9.84996 22.9143 9.07503 25.292 8.6585 27.783Z" fill="#466288"/>
<path d="M1.4349 39.5565C1.79471 39.5565 2.15471 39.4192 2.4292 39.1446L7.02039 34.5534C7.56957 34.0043 7.56957 33.1139 7.02039 32.5647C6.4713 32.0155 5.58096 32.0155 5.03168 32.5647L0.440594 37.1559C-0.108589 37.705 -0.108589 38.5954 0.440594 39.1446C0.571004 39.2754 0.725985 39.3791 0.896624 39.4498C1.06726 39.5205 1.2502 39.5568 1.4349 39.5565ZM11.2279 36.7724C10.6789 36.2233 9.78843 36.2233 9.23924 36.7724L0.412376 45.5992C-0.136808 46.1483 -0.136808 47.0388 0.412376 47.5879C0.686967 47.8625 1.04687 47.9998 1.40677 47.9998C1.76668 47.9998 2.12658 47.8624 2.40108 47.5879L11.2279 38.761C11.7771 38.2119 11.7771 37.3215 11.2279 36.7724Z" fill="#FFDAAA"/>
<path d="M15.4355 40.9799C14.8864 40.4308 13.996 40.4308 13.4468 40.9799L8.85569 45.571C8.30651 46.12 8.30651 47.0105 8.85569 47.5597C9.13029 47.8343 9.49019 47.9716 9.85 47.9716C10.2098 47.9716 10.5698 47.8343 10.8443 47.5597L15.4355 42.9685C15.9847 42.4194 15.9847 41.529 15.4355 40.9799ZM0.412354 47.5879C0.686945 47.8625 1.04685 47.9997 1.40675 47.9997C1.76666 47.9997 2.12656 47.8624 2.40106 47.5878L11.2279 38.7609C11.7771 38.2118 11.7771 37.3214 11.2279 36.7722L0.412354 47.5879Z" fill="#FACC91"/>
<path d="M13.7153 34.2847L18.0814 38.6508C18.6411 39.2105 19.4364 39.4722 20.217 39.3417C22.708 38.9252 25.0857 38.1503 27.3173 37.1244L19.0965 28.9036L13.7153 34.2847ZM27.909 20.0911C29.2799 21.462 31.0799 22.1474 32.8808 22.1472C34.681 22.147 36.482 21.4616 37.8525 20.0911C39.1805 18.763 39.9119 16.9973 39.9119 15.1193C39.9119 13.2412 39.1805 11.4754 37.8525 10.1475L27.909 20.0911Z" fill="#354A67"/>
<path d="M32.8806 10.9026C31.8003 10.9026 30.72 11.3138 29.8976 12.1362C29.1008 12.933 28.6619 13.9924 28.6619 15.1193C28.6619 16.2462 29.1008 17.3055 29.8976 18.1023C31.5424 19.7472 34.219 19.7472 35.8638 18.1023C36.6606 17.3054 37.0995 16.2461 37.0995 15.1192C37.0995 13.9923 36.6606 12.9329 35.8638 12.1362C35.0414 11.3138 33.9611 10.9026 32.8806 10.9026Z" fill="#018E62"/>
<path d="M35.8641 12.1362L29.8979 18.1024C31.5428 19.7472 34.2194 19.7473 35.8641 18.1024C36.6609 17.3055 37.0997 16.2461 37.0997 15.1193C37.0997 13.9924 36.661 12.933 35.8641 12.1362Z" fill="#059669"/>
</g>
<defs>
<clipPath id="clip0_2401_819">
<rect width="48" height="48" fill="white"/>
</clipPath>
</defs>
</svg>
