<svg width="48" height="48" viewBox="0 0 48 48" fill="none" xmlns="http://www.w3.org/2000/svg">
<g clip-path="url(#clip0_2401_792)">
<path d="M47.25 44.25V47.25C37.5 47.25 33 45 33 45C33 45 30.75 46.5 21.75 46.5C12.75 46.5 3 39 3 39H0.75V36.75L8.25 7.5L21 0.75L26.25 7.5L23.88 9.6075L21.5175 11.7075L19.5 13.5L18 11.25C18 12.75 14.25 12.75 14.25 12.75L16.1475 26.01C22.6125 22.155 26.85 24.2325 29.3475 26.8725C36.84 16.575 47.25 25.5 47.25 25.5V44.25Z" fill="#FFDAAA"/>
<path d="M17.2506 4.5L22.3093 11.004L23.8806 9.6075L26.2506 7.5L21.0006 0.75L8.25055 7.5L7.72705 9.54225L17.2506 4.5ZM29.3481 26.8725C26.8506 24.2325 22.6131 22.155 16.1481 26.01L14.6608 15.615L14.2506 12.75C14.2506 14.25 10.5006 16.5 10.5006 16.5L12.3981 29.76C18.8631 25.905 23.1006 27.9825 25.5981 30.6225C33.0906 20.325 43.5005 29.25 43.5005 29.25V47.1285C44.654 47.2035 45.9005 47.25 47.2505 47.25V25.5C47.2505 25.5 36.8406 16.575 29.3481 26.8725Z" fill="#FFB680"/>
<path d="M21.7498 44.25C16.2913 44.25 11.7118 40.4858 11.519 40.3268L12.4798 39.1732C12.5248 39.2092 16.844 42.75 21.7498 42.75C24.7184 42.7673 27.6682 42.278 30.4723 41.3032L31.028 42.6968C28.0494 43.751 24.9094 44.2767 21.7498 44.25ZM47.2498 45C43.514 45.0026 39.8204 44.21 36.4145 42.675L37.0843 41.3325C40.286 42.7515 43.7477 43.4896 47.2498 43.5V45ZM33.5998 28.95L32.3998 28.05C32.6533 27.7118 34.9498 24.75 37.4998 24.75C39.0891 24.7793 40.6123 25.3913 41.78 26.4697L40.7195 27.5303C39.8315 26.7361 38.6907 26.2825 37.4998 26.25C35.9683 26.25 34.1653 28.2 33.5998 28.95Z" fill="#EB975D"/>
<path d="M28.5 15H30V19.5H28.5V15Z" fill="#059669"/>
<path d="M27 16.5H31.5V18H27V16.5ZM31.5 3.75H33V8.25H31.5V3.75Z" fill="#059669"/>
<path d="M30 5.25H34.5V6.75H30V5.25ZM42 15.75H43.5V20.25H42V15.75Z" fill="#059669"/>
<path d="M40.5 17.25H45V18.75H40.5V17.25Z" fill="#059669"/>
</g>
<defs>
<clipPath id="clip0_2401_792">
<rect width="48" height="48" fill="white"/>
</clipPath>
</defs>
</svg>
