<svg width="50" height="50" viewBox="0 0 50 50" fill="none" xmlns="http://www.w3.org/2000/svg">
<g clip-path="url(#clip0_2401_1105)">
<path d="M44.8806 43.7686H1.20809C0.540521 43.7686 0 43.2273 0 42.5601V6.64937C0 4.53221 1.7158 2.81641 3.83297 2.81641H42.2557C44.3725 2.81641 46.0886 4.53221 46.0886 6.64937V42.5601C46.0886 43.2277 45.5477 43.7686 44.8806 43.7686Z" fill="#FFECD4"/>
<path d="M46.0887 6.64986V42.5598C46.0887 43.2274 45.5486 43.7688 44.881 43.7688H41.2163C41.8835 43.7688 42.4248 43.2274 42.4248 42.5598V6.64986C42.4248 4.53191 40.7085 2.81689 38.5918 2.81689H42.2568C44.3733 2.81689 46.0888 4.53191 46.0888 6.64986H46.0887Z" fill="#FED9AB"/>
<path d="M46.0886 6.64962V12.5116H0V6.64962C0 4.53167 1.71658 2.81665 3.83414 2.81665H42.2569C44.3732 2.81665 46.0886 4.53167 46.0886 6.64962Z" fill="#059669"/>
<path d="M46.0888 6.64986V12.5118H42.4248V6.64986C42.4248 4.53191 40.7086 2.81689 38.5918 2.81689H42.257C44.3734 2.81689 46.0888 4.53191 46.0888 6.64986Z" fill="#058960"/>
<path d="M7.76149 16.9764H5.13935C4.72236 16.9764 4.38477 16.6384 4.38477 16.2218C4.38477 15.8052 4.72236 15.4673 5.13935 15.4673H7.76149C8.17847 15.4673 8.51607 15.8052 8.51607 16.2218C8.51607 16.6384 8.17847 16.9764 7.76149 16.9764ZM15.8215 16.9764H13.1989C12.7823 16.9764 12.4443 16.6384 12.4443 16.2218C12.4443 15.8052 12.7823 15.4673 13.1989 15.4673H15.8215C16.2381 15.4673 16.576 15.8052 16.576 16.2218C16.576 16.6384 16.2381 16.9764 15.8215 16.9764ZM23.8811 16.9764H21.2585C20.842 16.9764 20.5044 16.6384 20.5044 16.2218C20.5044 15.8052 20.842 15.4673 21.2585 15.4673H23.8811C24.2981 15.4673 24.6356 15.8052 24.6356 16.2218C24.6356 16.6384 24.298 16.9764 23.8811 16.9764ZM31.9411 16.9764H29.3185C28.902 16.9764 28.564 16.6384 28.564 16.2218C28.564 15.8052 28.9019 15.4673 29.3185 15.4673H31.9411C32.3576 15.4673 32.6956 15.8052 32.6956 16.2218C32.6956 16.6384 32.3577 16.9764 31.9411 16.9764ZM40.0007 16.9764H37.3785C36.9615 16.9764 36.624 16.6384 36.624 16.2218C36.624 15.8052 36.9615 15.4673 37.3785 15.4673H40.0007C40.4177 15.4673 40.7553 15.8052 40.7553 16.2218C40.7553 16.6384 40.4177 16.9764 40.0007 16.9764ZM7.76149 20.7704H5.13935C4.72236 20.7704 4.38477 20.4325 4.38477 20.0159C4.38477 19.5993 4.72236 19.2613 5.13935 19.2613H7.76149C8.17847 19.2613 8.51607 19.5993 8.51607 20.0159C8.51607 20.4325 8.17847 20.7704 7.76149 20.7704ZM15.8215 20.7704H13.1989C12.7823 20.7704 12.4443 20.4325 12.4443 20.0159C12.4443 19.5993 12.7823 19.2613 13.1989 19.2613H15.8215C16.2381 19.2613 16.576 19.5993 16.576 20.0159C16.576 20.4325 16.2381 20.7704 15.8215 20.7704ZM23.8811 20.7704H21.2585C20.842 20.7704 20.5044 20.4325 20.5044 20.0159C20.5044 19.5993 20.842 19.2613 21.2585 19.2613H23.8811C24.2981 19.2613 24.6356 19.5993 24.6356 20.0159C24.6356 20.4325 24.298 20.7704 23.8811 20.7704ZM31.9411 20.7704H29.3185C28.902 20.7704 28.564 20.4325 28.564 20.0159C28.564 19.5993 28.9019 19.2613 29.3185 19.2613H31.9411C32.3576 19.2613 32.6956 19.5993 32.6956 20.0159C32.6956 20.4325 32.3577 20.7704 31.9411 20.7704ZM40.0007 20.7704H37.3785C36.9615 20.7704 36.624 20.4325 36.624 20.0159C36.624 19.5993 36.9615 19.2613 37.3785 19.2613H40.0007C40.4177 19.2613 40.7553 19.5993 40.7553 20.0159C40.7553 20.4325 40.4177 20.7704 40.0007 20.7704Z" fill="#0284C7"/>
<path d="M19.198 39.5779C18.9068 39.5783 18.6185 39.5212 18.3495 39.4097C18.0805 39.2983 17.8361 39.1348 17.6305 38.9287L13.751 35.0491C12.8851 34.1836 12.8851 32.7802 13.751 31.9143C14.6166 31.0487 16.0204 31.0487 16.8859 31.9143L19.198 34.2263L28.2543 25.1695C29.1203 24.3043 30.5237 24.304 31.3892 25.1695C32.2552 26.0354 32.2552 27.4389 31.3892 28.3049L20.7655 38.9287C20.5599 39.1348 20.3156 39.2983 20.0466 39.4097C19.7776 39.5211 19.4891 39.5783 19.198 39.5779Z" fill="#059669"/>
<path d="M8.22986 5.87113H6.82841C6.2329 5.87113 5.75 5.38861 5.75 4.79272V1.12694C5.7499 0.531342 6.2329 0.0488281 6.82841 0.0488281H8.22986C8.82536 0.0488281 9.30826 0.531342 9.30826 1.12694V4.79272C9.30826 5.38861 8.82536 5.87113 8.22986 5.87113ZM18.3013 5.87113H16.8994C16.304 5.87113 15.8214 5.38861 15.8214 4.79272V1.12694C15.8214 0.53144 16.304 0.0489258 16.8995 0.0489258H18.3013C18.8968 0.0489258 19.3793 0.53144 19.3793 1.12704V4.79282C19.3793 5.38871 18.8968 5.87122 18.3013 5.87122V5.87113ZM28.3727 5.87113H26.9709C26.3755 5.87113 25.8928 5.38861 25.8928 4.79272V1.12694C25.8928 0.53144 26.3755 0.0489258 26.971 0.0489258H28.3728C28.9682 0.0489258 29.4508 0.53144 29.4508 1.12704V4.79282C29.4508 5.38871 28.9679 5.87122 28.3727 5.87122V5.87113ZM38.4439 5.87113H37.0423C36.4468 5.87113 35.9639 5.38861 35.9639 4.79272V1.12694C35.9639 0.531342 36.4468 0.0488281 37.0423 0.0488281H38.4439C39.0393 0.0488281 39.5223 0.531342 39.5223 1.12694V4.79272C39.5223 5.38861 39.0393 5.87113 38.4439 5.87113Z" fill="#FFBD47"/>
<path d="M49.998 38.9513C49.998 44.0633 45.8541 48.2072 40.7422 48.2072C35.6302 48.2072 31.4863 44.0633 31.4863 38.9513C31.4863 33.8397 35.6301 29.6958 40.7421 29.6958C45.854 29.6958 49.998 33.8397 49.998 38.9513Z" fill="#0284C7"/>
<path d="M47.401 38.9511C47.401 42.6277 44.4206 45.6077 40.7445 45.6077C37.0683 45.6077 34.0879 42.6277 34.0879 38.9511C34.0879 35.275 37.0683 32.2949 40.7445 32.2949C44.4206 32.2949 47.401 35.275 47.401 38.9511Z" fill="#D0F4EF"/>
<path d="M40.7429 35.0969C40.6438 35.097 40.5457 35.0775 40.4541 35.0395C40.3626 35.0016 40.2794 34.9461 40.2093 34.876C40.1392 34.8059 40.0836 34.7228 40.0457 34.6312C40.0078 34.5397 39.9883 34.4415 39.9883 34.3425V33.4235C39.9883 33.0069 40.3263 32.6689 40.7429 32.6689C41.1595 32.6689 41.4973 33.0069 41.4973 33.4235V34.3425C41.4973 34.7594 41.1595 35.0969 40.7429 35.0969ZM40.7429 45.2333C40.5428 45.2332 40.3509 45.1537 40.2094 45.0122C40.0679 44.8707 39.9884 44.6789 39.9883 44.4788V43.5598C39.9883 43.1428 40.3263 42.8053 40.7429 42.8053C41.1595 42.8053 41.4973 43.1428 41.4973 43.5598V44.4788C41.4973 44.6789 41.4178 44.8707 41.2763 45.0122C41.1348 45.1537 40.9429 45.2332 40.7429 45.2333ZM46.2702 39.7055H45.3513C45.1512 39.7055 44.9594 39.626 44.8179 39.4845C44.6764 39.3431 44.5969 39.1512 44.5969 38.9511C44.5969 38.751 44.6764 38.5591 44.8179 38.4177C44.9594 38.2762 45.1512 38.1967 45.3513 38.1967H46.2702C46.3693 38.1967 46.4674 38.2161 46.559 38.254C46.6505 38.2919 46.7337 38.3474 46.8038 38.4175C46.8739 38.4875 46.9295 38.5707 46.9674 38.6622C47.0053 38.7537 47.0248 38.8518 47.0248 38.9509C47.0249 39.05 47.0054 39.1482 46.9675 39.2397C46.9296 39.3313 46.874 39.4145 46.8039 39.4846C46.7338 39.5546 46.6506 39.6102 46.5591 39.6481C46.4675 39.686 46.3693 39.7055 46.2702 39.7055Z" fill="#628FB1"/>
<path d="M42.406 39.7054H40.7429C40.6438 39.7054 40.5456 39.6859 40.4541 39.648C40.3625 39.6101 40.2793 39.5545 40.2093 39.4845C40.1392 39.4144 40.0836 39.3312 40.0457 39.2396C40.0078 39.1481 39.9883 39.05 39.9883 38.9509V37.4227C39.9883 37.2226 40.0678 37.0307 40.2093 36.8892C40.3508 36.7477 40.5427 36.6682 40.7428 36.6682C40.9429 36.6682 41.1348 36.7477 41.2763 36.8892C41.4178 37.0307 41.4973 37.2226 41.4973 37.4227V38.1968H42.4056C42.5047 38.1967 42.6028 38.2162 42.6943 38.254C42.7859 38.2919 42.8691 38.3475 42.9391 38.4175C43.0092 38.4875 43.0648 38.5707 43.1027 38.6622C43.1407 38.7537 43.1602 38.8518 43.1602 38.9509C43.1603 39.0499 43.1408 39.148 43.1029 39.2396C43.065 39.3311 43.0095 39.4143 42.9395 39.4844C42.8694 39.5545 42.7863 39.6101 42.6947 39.648C42.6032 39.6859 42.5051 39.7054 42.406 39.7054Z" fill="#FFBD47"/>
<path d="M36.1344 39.7055H35.2154C35.1163 39.7055 35.0182 39.686 34.9266 39.6481C34.8351 39.6102 34.7519 39.5546 34.6818 39.4845C34.6118 39.4145 34.5562 39.3313 34.5183 39.2397C34.4804 39.1481 34.4609 39.05 34.4609 38.9509C34.461 38.8519 34.4805 38.7538 34.5184 38.6623C34.5563 38.5708 34.6119 38.4876 34.682 38.4176C34.752 38.3476 34.8352 38.292 34.9267 38.2541C35.0183 38.2163 35.1164 38.1968 35.2154 38.1968H36.1344C36.2341 38.1957 36.3332 38.2144 36.4257 38.2518C36.5182 38.2892 36.6024 38.3445 36.6733 38.4147C36.7443 38.4849 36.8006 38.5684 36.8391 38.6605C36.8775 38.7526 36.8973 38.8514 36.8973 38.9512C36.8973 39.051 36.8775 39.1498 36.8391 39.2418C36.8006 39.3339 36.7443 39.4175 36.6733 39.4876C36.6024 39.5578 36.5182 39.6132 36.4257 39.6506C36.3332 39.688 36.2341 39.7066 36.1344 39.7055Z" fill="#628FB1"/>
</g>
<defs>
<clipPath id="clip0_2401_1105">
<rect width="50" height="49.9018" fill="white"/>
</clipPath>
</defs>
</svg>
