<svg width="24" height="25" viewBox="0 0 24 25" fill="none" xmlns="http://www.w3.org/2000/svg">
<path d="M2.1416 18.1832V6.66324C2.1416 5.31924 2.1416 4.64724 2.4032 4.13364C2.6336 3.68124 2.9996 3.31524 3.452 3.08484C3.9656 2.82324 4.6376 2.82324 5.9816 2.82324H17.5016C18.8456 2.82324 19.5176 2.82324 20.03 3.08484C20.4824 3.31524 20.8496 3.68124 21.08 4.13364C21.3416 4.64604 21.3416 5.31804 21.3416 6.65964V18.188C21.3416 19.5296 21.3416 20.2004 21.08 20.7128C20.8496 21.1646 20.482 21.5318 20.03 21.7616C19.5176 22.0232 18.8468 22.0232 17.5052 22.0232H5.978C4.6364 22.0232 3.9644 22.0232 3.452 21.7616C3.00043 21.5315 2.63329 21.1644 2.4032 20.7128C2.1416 20.1992 2.1416 19.5272 2.1416 18.1832Z" stroke="white" stroke-opacity="0.85" stroke-width="2.4" stroke-linecap="round" stroke-linejoin="round"/>
</svg>
