<svg width="134" height="134" viewBox="0 0 134 134" fill="none" xmlns="http://www.w3.org/2000/svg">
<path d="M129.812 67C129.812 72.36 123.228 76.7778 121.909 81.7191C120.548 86.8278 123.992 93.9466 121.406 98.4167C118.778 102.96 110.875 103.505 107.19 107.19C103.505 110.875 102.96 118.778 98.4167 121.406C93.9466 123.992 86.8278 120.548 81.7191 121.909C76.7778 123.228 72.36 129.812 67 129.812C61.64 129.812 57.2222 123.228 52.2809 121.909C47.1722 120.548 40.0534 123.992 35.5833 121.406C31.0398 118.778 30.4955 110.875 26.8105 107.19C23.1255 103.505 15.2216 102.96 12.5939 98.4167C10.0081 93.9466 13.4523 86.8278 12.0914 81.7191C10.7723 76.7778 4.1875 72.36 4.1875 67C4.1875 61.64 10.7723 57.2222 12.0914 52.2809C13.4523 47.1722 10.0081 40.0534 12.5939 35.5833C15.2216 31.0398 23.1255 30.4955 26.8105 26.8105C30.4955 23.1255 31.0398 15.2216 35.5833 12.5939C40.0534 10.0081 47.1722 13.4523 52.2809 12.0914C57.2222 10.7723 61.64 4.1875 67 4.1875C72.36 4.1875 76.7778 10.7723 81.7191 12.0914C86.8278 13.4523 93.9466 10.0081 98.4167 12.5939C102.96 15.2216 103.505 23.1255 107.19 26.8105C110.875 30.4955 118.778 31.0398 121.406 35.5833C123.992 40.0534 120.548 47.1722 121.909 52.2809C123.228 57.2222 129.812 61.64 129.812 67Z" fill="#059669"/>
<path d="M85.1538 48.2819L61.2431 72.1925L48.8481 59.808C47.5554 58.516 45.8026 57.7902 43.9749 57.7902C42.1473 57.7902 40.3944 58.516 39.1017 59.808C37.8098 61.1007 37.084 62.8535 37.084 64.6812C37.084 66.5088 37.8098 68.2617 39.1017 69.5544L56.4903 86.943C57.7486 88.1998 59.4543 88.9058 61.2327 88.9058C63.0111 88.9058 64.7168 88.1998 65.975 86.943L94.8897 58.0283C96.1817 56.7356 96.9075 54.9827 96.9075 53.1551C96.9075 51.3274 96.1817 49.5746 94.8897 48.2819C94.2506 47.6422 93.4918 47.1348 92.6565 46.7886C91.8212 46.4424 90.9259 46.2642 90.0217 46.2642C89.1175 46.2642 88.2222 46.4424 87.3869 46.7886C86.5517 47.1348 85.7928 47.6422 85.1538 48.2819Z" fill="#FFFCEE"/>
</svg>
