<svg width="28" height="28" viewBox="0 0 28 28" fill="none" xmlns="http://www.w3.org/2000/svg">
<path d="M11.8154 27.8532L22.6156 9.25705C22.8601 8.83601 22.5133 8.3179 22.0308 8.38352L14.8469 9.35997L16.5633 0.348454C16.6212 0.0446652 16.2295 -0.129405 16.0428 0.117071L5.42394 14.134C5.11462 14.5423 5.44215 15.1228 5.95151 15.0692L13.8718 14.2355L11.2753 27.6508C11.2127 27.9743 11.6499 28.1382 11.8154 27.8532Z" fill="#FFDC64"/>
<path d="M8.74467 13.1407C8.54632 13.1566 8.41458 12.9398 8.52001 12.771L16.4595 0.0679096C16.3414 -0.0255513 16.1554 -0.0315669 16.0428 0.117074L5.42394 14.134C5.11462 14.5423 5.44215 15.1228 5.95151 15.0692L13.8718 14.2355L11.2753 27.6508C11.2403 27.8317 11.3623 27.959 11.505 27.9895L15.9543 13.9104C16.1629 13.2504 15.6367 12.5893 14.9468 12.6446L8.74467 13.1407Z" fill="#FFC850"/>
</svg>
