<svg width="48" height="48" viewBox="0 0 48 48" fill="none" xmlns="http://www.w3.org/2000/svg">
<g clip-path="url(#clip0_2401_890)">
<path d="M17.8998 6.92609L15.6339 12.4523L8.64795 5.46636C11.639 3.93562 15.396 4.4222 17.8998 6.92609Z" fill="#16B684"/>
<path d="M12.2725 12.5536L20.6246 24.166L25.7176 19.073L20.1714 13.5269C20.46 11.179 19.7025 8.72833 17.9002 6.92603L12.2725 12.5536Z" fill="#16B684"/>
<path d="M12.2723 12.5534L22.2546 22.5357L18.7912 25.9992L13.245 20.453C10.8977 20.741 8.44703 19.9836 6.64472 18.1812C4.14075 15.6772 3.65448 11.9209 5.18514 8.92969L10.5406 14.2851L12.2723 12.5534Z" fill="#059669"/>
<path d="M30.0723 41.6087L32.3382 36.0825L39.3242 43.0684C36.3331 44.5992 32.5762 44.1126 30.0723 41.6087Z" fill="#059669"/>
<path d="M35.7001 35.9813L27.3479 24.3689L22.2549 29.4619L27.801 35.0081C27.5125 37.356 28.2699 39.8066 30.0723 41.6089L35.7001 35.9813Z" fill="#059669"/>
<path d="M35.7001 35.9814L25.7178 25.9991L29.1812 22.5356L34.7274 28.0818C37.0747 27.7938 39.5254 28.5512 41.3277 30.3536C43.8315 32.8574 44.3179 36.6138 42.7872 39.6051L37.4318 34.2496L35.7001 35.9814Z" fill="#16B684"/>
<path d="M41.7202 6.5332L42.586 7.39901C44.0145 8.82754 44.0145 11.1652 42.586 12.5938L40.4838 14.6959L34.8472 11.2328L41.7202 6.5332Z" fill="#059669"/>
<path d="M40.855 5.66741L41.7208 6.53321L35.9345 12.3195L33.5581 7.76956L35.6603 5.66741C37.0888 4.23879 39.4265 4.23879 40.855 5.66741Z" fill="#16B684"/>
<path d="M37.0209 11.2324L40.4841 14.6956L37.0209 18.1588L31.3843 14.6956L37.0209 11.2324Z" fill="#A3FDF6"/>
<path d="M33.5579 7.76929L37.0211 11.2325L32.4711 15.7824L30.0947 11.2325L33.5579 7.76929Z" fill="#DBFFFA"/>
<path d="M7.4923 39.6746L8.25298 42.6088L4.77539 43.4782L7.4923 39.6746Z" fill="#059669"/>
<path d="M5.64481 40.0007L6.94893 41.3048L4.77539 43.4783L5.64481 40.0007Z" fill="#059669"/>
<path d="M11.0913 36.0762L14.0108 41.1693L8.25327 42.6092L6.94922 41.305L11.0913 36.0762Z" fill="#FFB680"/>
<path d="M7.0839 34.2429L10.5473 37.7064L6.94866 41.3051L5.64453 40.001L7.0839 34.2429Z" fill="#FFDAAA"/>
<path d="M33.5578 14.6958L37.0211 18.159L14.0106 41.1695L10.5474 37.7063L20.4225 24.571L33.5578 14.6958Z" fill="#FFB680"/>
<path d="M30.0952 11.2324L33.5583 14.6956L10.5474 37.7057L7.08436 34.2425L30.0952 11.2324Z" fill="#FFDAAA"/>
</g>
<defs>
<clipPath id="clip0_2401_890">
<rect width="39.3443" height="39.3443" fill="white" transform="translate(4.31396 4.59521)"/>
</clipPath>
</defs>
</svg>
