<svg width="20" height="20" viewBox="0 0 20 20" fill="none" xmlns="http://www.w3.org/2000/svg">
<g clip-path="url(#clip0_2401_1047)">
<path d="M19.1574 14.472C18.9787 14.252 18.6787 14.1707 18.4147 14.2653C17.6747 14.5307 16.872 14.6667 16.0267 14.6667C11.9827 14.6667 8.69336 11.376 8.69336 7.33333C8.69336 4.9 9.89469 2.63467 11.9067 1.272C12.1347 1.11733 12.244 0.838667 12.1827 0.570667C12.1214 0.302667 11.9014 0.1 11.628 0.06C11.316 0.0146667 11.0054 0 10.6934 0C5.17869 0 0.693359 4.48533 0.693359 10C0.693359 15.5147 5.17869 20 10.6934 20C14.1934 20 17.3774 18.2213 19.208 15.2427C19.356 15.0013 19.3347 14.6933 19.1574 14.472Z" fill="white"/>
</g>
<defs>
<clipPath id="clip0_2401_1047">
<rect width="20" height="20" fill="white"/>
</clipPath>
</defs>
</svg>
