<svg width="40" height="40" viewBox="0 0 40 40" fill="none" xmlns="http://www.w3.org/2000/svg">
<g clip-path="url(#clip0_2401_1032)">
<path d="M0 40L2.75859 30C0.965547 26.8966 0 23.4483 0 19.862C0 8.96555 8.96555 0 19.931 0C30.8965 0 40 8.96555 40 19.862C40 30.7585 30.8966 40 19.931 40C16.4827 40 13.1724 38.8966 10.2069 37.2414L0 40Z" fill="#EDEDED"/>
<path d="M10.7595 33.6551L11.3802 34C13.932 35.5861 16.8975 36.5517 20.0009 36.5517C29.0354 36.5517 36.5527 29.0344 36.5527 19.862C36.5527 10.6896 29.0354 3.44824 19.932 3.44824C10.8285 3.44824 3.44922 10.7586 3.44922 19.862C3.44922 23.0344 4.34578 26.1379 6.00094 28.7586L6.41477 29.3793L4.82859 35.1724L10.7595 33.6551Z" fill="#55CD6C"/>
<path d="M14.6219 10.6207L13.3116 10.5518C12.8977 10.5518 12.484 10.6897 12.2081 10.9656C11.5874 11.5173 10.553 12.5518 10.2771 13.9311C9.79439 16.0001 10.553 18.4829 12.3461 20.9656C14.1392 23.4483 17.5875 27.4483 23.6564 29.1725C25.5874 29.7242 27.1047 29.3793 28.3461 28.6207C29.3117 28 29.9323 27.0346 30.1392 26L30.3461 25.0345C30.4151 24.7586 30.2771 24.4138 30.0013 24.2759L25.6564 22.2759C25.3806 22.1379 25.0357 22.2069 24.8288 22.4828L23.1047 24.6896C22.9667 24.8276 22.7599 24.8965 22.553 24.8276C21.3806 24.4138 17.4495 22.7586 15.3116 18.6207C15.2426 18.4139 15.2426 18.2069 15.3806 18.069L17.0357 16.207C17.1737 16.0001 17.2426 15.7243 17.1737 15.5173L15.1737 11.0346C15.1046 10.8276 14.8977 10.6207 14.6219 10.6207Z" fill="#FEFEFE"/>
</g>
<defs>
<clipPath id="clip0_2401_1032">
<rect width="40" height="40" fill="white"/>
</clipPath>
</defs>
</svg>
