<svg width="42" height="42" viewBox="0 0 42 42" fill="none" xmlns="http://www.w3.org/2000/svg">
<g clip-path="url(#clip0_2401_1006)">
<path d="M5.075 36.925L29.925 12.075C26.775 8.925 22.4 7 17.5 7C7.875 7 0 14.875 0 24.5C0 29.4 1.925 33.775 5.075 36.925Z" fill="#06B27C"/>
<path d="M5.07617 36.9252C8.22617 40.0752 12.6012 42.0002 17.5012 42.0002C27.1262 42.0002 35.0012 34.1252 35.0012 24.5002C35.0012 19.6002 33.0762 15.2252 29.9262 12.0752L5.07617 36.9252Z" fill="#059669"/>
<path d="M8.925 33.075L26.25 15.75C23.975 13.65 20.825 12.25 17.5 12.25C10.675 12.25 5.25 17.675 5.25 24.5C5.25 27.825 6.65 30.975 8.925 33.075Z" fill="#F0F0F0"/>
<path d="M8.92578 33.0748C11.2008 35.3498 14.1758 36.7498 17.5008 36.7498C24.3258 36.7498 29.7508 31.3248 29.7508 24.4998C29.7508 21.1748 28.3508 18.0248 26.0758 15.9248L8.92578 33.0748Z" fill="#F0F0F0"/>
<path d="M12.6 29.4L22.575 19.425C21.175 18.2 19.425 17.5 17.5 17.5C13.65 17.5 10.5 20.65 10.5 24.5C10.5 26.425 11.2 28.175 12.6 29.4Z" fill="#FFCBBE"/>
<path d="M12.5996 29.4001C13.8246 30.8001 15.5746 31.5001 17.4996 31.5001C21.3496 31.5001 24.4996 28.3501 24.4996 24.5001C24.4996 22.5751 23.7996 20.8251 22.3996 19.6001L12.5996 29.4001Z" fill="#FFDDD4"/>
<path d="M16.275 25.725L18.725 23.275C18.375 22.925 18.025 22.75 17.5 22.75C16.45 22.75 15.75 23.45 15.75 24.5C15.75 25.025 15.925 25.375 16.275 25.725Z" fill="#F0F0F0"/>
<path d="M16.2754 25.7249C16.6254 26.0749 16.9754 26.2499 17.5004 26.2499C18.5504 26.2499 19.2504 25.5499 19.2504 24.4999C19.2504 23.9749 19.0754 23.6249 18.7254 23.2749L16.2754 25.7249Z" fill="#CFD3D4"/>
<path d="M16.7993 25.2L31.1493 10.85C31.1493 10.5 30.7993 10.5 30.6243 10.5C30.4493 10.5 30.0993 10.5 29.9243 10.675L16.7993 23.8C16.4703 24.129 16.4196 24.8203 16.7993 25.2Z" fill="#787780"/>
<path d="M16.8008 25.1996C17.1508 25.5496 17.6758 25.5496 18.0258 25.1996L31.1508 12.0746C31.5008 11.7246 31.5008 11.1996 31.1508 10.8496L16.8008 25.1996Z" fill="#57555C"/>
<path d="M29.925 12.075L38.325 3.675L37.625 0.7C37.625 0.35 37.275 0.175 36.925 0C36.575 0 36.225 0 36.05 0.175L29.925 6.3C29.925 6.475 29.75 6.825 29.75 7V11.375C29.75 11.55 29.925 11.9 29.925 12.075Z" fill="#06B27C"/>
<path d="M41.3008 4.3748L38.3258 3.6748L29.9258 12.0748C30.1008 12.0748 30.4508 12.2498 30.6258 12.2498H35.0008C35.1758 12.2498 35.5258 12.0748 35.7008 12.0748L41.8258 5.94981C42.0008 5.59981 42.0008 5.24981 42.0008 5.07481C41.8258 4.72481 41.6508 4.5498 41.3008 4.3748Z" fill="#059669"/>
</g>
<defs>
<clipPath id="clip0_2401_1006">
<rect width="42" height="42" fill="white"/>
</clipPath>
</defs>
</svg>
