<svg width="48" height="48" viewBox="0 0 48 48" fill="none" xmlns="http://www.w3.org/2000/svg">
<g clip-path="url(#clip0_2401_909)">
<path d="M44.5683 32.7125L44.6403 31.6216L44.6401 31.6212C45.6436 30.4324 46.2495 28.8971 46.2495 27.2196C46.2495 25.1782 45.3527 23.3473 43.9329 22.0958C44.1962 21.3946 44.3308 20.6515 44.3302 19.9025C44.3302 17.9561 43.4394 16.2182 42.0436 15.073L41.4206 13.6797L42.3231 13.5797C42.3353 13.4124 42.3418 13.2436 42.3418 13.0732C42.3418 9.30159 39.2843 6.24394 35.5125 6.24394L34.7159 5.72559L35.3521 4.84022C34.715 2.06813 32.2341 0 29.2686 0C27.0531 0 25.1086 1.15491 24.0003 2.89444C22.892 1.15491 20.9475 0 18.732 0C15.7665 0 13.2857 2.06813 12.6485 4.84022L12.9654 5.40009L12.4881 6.24384C8.71641 6.24384 5.65876 9.3015 5.65876 13.0732C5.65881 13.2422 5.66507 13.4112 5.67751 13.5797L6.26063 14.0933L5.95688 15.073C4.56104 16.2181 3.67032 17.9561 3.67032 19.9025C3.66973 20.6515 3.80429 21.3946 4.06754 22.0958C2.64779 23.3473 1.75098 25.1782 1.75098 27.2196C1.75098 28.897 2.35688 30.4324 3.36038 31.6212L3.3602 31.6216L3.48245 32.4518L2.85704 33.1341C2.77834 33.5317 2.73843 33.9361 2.73788 34.3415C2.73788 37.0785 4.49973 39.4025 6.95054 40.2456C6.95035 40.2648 6.94904 40.2838 6.94904 40.3031C6.94904 42.8894 9.04566 44.986 11.6319 44.986C11.9017 44.9857 12.1709 44.9622 12.4366 44.9157C13.6572 46.7729 15.7581 47.9999 18.1465 47.9999C20.6311 47.9999 22.8053 46.6728 24.0002 44.6891C25.1952 46.6729 27.3694 48 29.8539 48C32.2424 48 34.3433 46.773 35.5639 44.9158C35.8254 44.9611 36.094 44.9861 36.3685 44.9861C38.9548 44.9861 41.0514 42.8895 41.0514 40.3032C41.0514 40.2839 41.0502 40.2649 41.0499 40.2457C43.5008 39.4026 45.2626 37.0785 45.2626 34.3416C45.262 33.9362 45.2221 33.5318 45.1434 33.1342L44.5683 32.7125Z" fill="#FE99A0"/>
<path d="M44.5681 32.7125L44.6401 31.6216L44.64 31.6212C45.6435 30.4324 46.2494 28.8971 46.2494 27.2196C46.2494 25.1782 45.3526 23.3473 43.9328 22.0958C44.196 21.3946 44.3306 20.6515 44.33 19.9025C44.33 17.9561 43.4392 16.2182 42.0435 15.073L41.4205 13.6797L42.3229 13.5797C42.3352 13.4124 42.3417 13.2436 42.3417 13.0732C42.3417 9.30159 39.2841 6.24394 35.5124 6.24394L34.7158 5.72559L35.352 4.84022C34.7148 2.06813 32.2339 6.52494e-07 29.2684 6.52494e-07C28.7075 -0.000255789 28.1492 0.0750784 27.6084 0.223969C29.8504 0.839813 31.5886 2.67328 32.065 4.96931C32.2137 5.68566 32.793 6.23034 33.511 6.3705C36.6531 6.98372 39.0245 9.7515 39.0245 13.0732C39.0245 13.4467 38.9943 13.813 38.9365 14.1702C38.8461 14.728 39.0174 15.2927 39.3969 15.7114C40.4011 16.8193 41.013 18.2893 41.013 19.9025C41.013 20.3528 40.965 20.7919 40.8741 21.2151C40.7547 21.7713 40.9201 22.3478 41.2903 22.7797C42.3136 23.9735 42.9323 25.5239 42.9323 27.2196C42.9323 28.5733 42.5377 29.8345 41.858 30.8957C41.5628 31.3565 41.4857 31.9231 41.6519 32.4445C41.8471 33.0579 41.9461 33.6978 41.9455 34.3415C41.9455 36.8209 40.4998 38.9614 38.4057 39.9691C38.003 40.1629 37.6785 40.4894 37.5042 40.901C37.0459 41.9831 35.7977 44.0934 32.885 44.7908C32.488 44.8858 32.1299 45.1088 31.8751 45.4279C30.9551 46.5802 29.6701 47.428 28.1952 47.7964C28.7376 47.9318 29.2946 48.0002 29.8537 48.0001C32.2422 48.0001 34.343 46.7731 35.5636 44.9159C35.8252 44.9612 36.0938 44.9862 36.3683 44.9862C38.9546 44.9862 41.0512 42.8896 41.0512 40.3033C41.0512 40.284 41.05 40.265 41.0497 40.2457C43.5005 39.4027 45.2624 37.0786 45.2624 34.3417C45.2618 33.9363 45.2219 33.5319 45.1432 33.1343L44.5681 32.7125Z" fill="#FD8087"/>
<path d="M31.6855 39.4349C31.4991 39.4349 31.3202 39.3608 31.1884 39.2289C31.0565 39.0971 30.9824 38.9182 30.9824 38.7317C30.9824 35.7618 33.3985 33.3457 36.3685 33.3457C36.5549 33.3457 36.7338 33.4198 36.8656 33.5516C36.9975 33.6835 37.0716 33.8623 37.0716 34.0488C37.0716 34.2353 36.9975 34.4141 36.8656 34.546C36.7338 34.6779 36.5549 34.752 36.3685 34.752C34.174 34.752 32.3887 36.5372 32.3887 38.7317C32.3887 38.9182 32.3146 39.0971 32.1827 39.2289C32.0509 39.3608 31.872 39.4349 31.6855 39.4349Z" fill="#FE646F"/>
<path d="M38.804 14.0273C39.9694 14.0284 41.1049 14.3962 42.0496 15.0787L42.0431 15.073C42.1916 14.5872 42.2853 14.0863 42.3226 13.5797C41.262 12.9573 40.0454 12.6211 38.804 12.6211C36.5834 12.6211 34.479 13.696 33.1747 15.4965C33.1206 15.5713 33.0816 15.656 33.0602 15.7458C33.0388 15.8356 33.0353 15.9288 33.0498 16.02C33.0644 16.1112 33.0968 16.1986 33.1451 16.2772C33.1935 16.3559 33.2569 16.4243 33.3317 16.4784C33.4064 16.5326 33.4912 16.5715 33.581 16.5929C33.6708 16.6144 33.764 16.6179 33.8551 16.6033C33.9463 16.5888 34.0337 16.5564 34.1124 16.508C34.1911 16.4597 34.2594 16.3963 34.3136 16.3215C35.3541 14.8849 37.0328 14.0273 38.804 14.0273Z" fill="#FE646F"/>
<path d="M39.1306 25.509C38.0929 25.509 37.0815 25.146 36.2827 24.4869C35.4144 23.7703 34.8582 22.769 34.7005 21.6738C36.2632 21.4474 37.6921 20.5957 38.6311 19.2993C38.6853 19.2245 38.7242 19.1398 38.7456 19.05C38.767 18.9602 38.7706 18.867 38.756 18.7758C38.7414 18.6846 38.709 18.5972 38.6607 18.5186C38.6123 18.4399 38.5489 18.3715 38.4741 18.3174C38.3994 18.2632 38.3147 18.2243 38.2248 18.2028C38.135 18.1814 38.0419 18.1779 37.9507 18.1925C37.8595 18.207 37.7721 18.2394 37.6934 18.2878C37.6147 18.3361 37.5464 18.3995 37.4922 18.4743C36.6513 19.6352 35.2946 20.3283 33.8633 20.3283C32.8256 20.3283 31.8142 19.9653 31.0155 19.3061C29.9797 18.4514 29.3857 17.192 29.3857 15.8508C29.3857 15.6643 29.3117 15.4855 29.1798 15.3536C29.0479 15.2218 28.8691 15.1477 28.6826 15.1477C28.4961 15.1477 28.3173 15.2218 28.1854 15.3536C28.0536 15.4855 27.9795 15.6643 27.9795 15.8508C27.9795 17.6132 28.7598 19.268 30.1204 20.3908C31.0213 21.1344 32.128 21.5902 33.2854 21.7049C33.4304 22.9781 33.9889 24.1686 34.8752 25.094C34.1198 25.3786 33.4522 25.8562 32.9389 26.4792C32.2565 27.3079 31.8831 28.3478 31.8825 29.4213C31.8825 29.6078 31.9566 29.7866 32.0884 29.9185C32.2203 30.0503 32.3991 30.1244 32.5856 30.1244C32.7721 30.1244 32.9509 30.0503 33.0828 29.9185C33.2147 29.7866 33.2887 29.6078 33.2887 29.4213C33.2887 28.6754 33.5496 27.9485 34.0235 27.3744C34.6013 26.6741 35.4365 26.255 36.3358 26.2076C37.1893 26.6677 38.1507 26.9153 39.1304 26.9153C39.3169 26.9153 39.4957 26.8412 39.6276 26.7094C39.7595 26.5776 39.8336 26.3987 39.8336 26.2122C39.8336 26.0258 39.7596 25.8469 39.6277 25.715C39.4959 25.5831 39.3171 25.509 39.1306 25.509ZM35.512 6.24396V6.24246C35.5116 5.77082 35.4579 5.30074 35.3519 4.84118L35.3517 4.84033C34.0254 4.86789 32.7299 5.24523 31.5963 5.93417C30.4626 6.62311 29.531 7.59922 28.8957 8.76377C28.8068 8.9274 28.7865 9.11961 28.8391 9.29823C28.8918 9.47684 29.0131 9.62728 29.1766 9.71653C29.34 9.80578 29.5322 9.82655 29.7109 9.77428C29.8896 9.72201 30.0403 9.60098 30.1299 9.43774C30.657 8.47116 31.4348 7.66445 32.3815 7.10243C33.3282 6.5404 34.4088 6.24382 35.5098 6.24386L35.512 6.24396ZM44.6398 31.6217C43.5152 32.9591 41.831 33.8111 39.951 33.8111C39.7645 33.8111 39.5857 33.8851 39.4538 34.017C39.3219 34.1489 39.2479 34.3277 39.2479 34.5142C39.2479 34.7007 39.3219 34.8795 39.4538 35.0114C39.5857 35.1432 39.7645 35.2173 39.951 35.2173C41.9624 35.2173 43.7906 34.4233 45.143 33.1343C45.041 32.6105 44.8719 32.1022 44.6398 31.6217Z" fill="#FE646F"/>
<path d="M16.3147 39.4349C16.5012 39.4349 16.6801 39.3608 16.8119 39.2289C16.9438 39.0971 17.0179 38.9182 17.0179 38.7317C17.0179 35.7618 14.6017 33.3457 11.6318 33.3457C11.4454 33.3457 11.2665 33.4198 11.1347 33.5516C11.0028 33.6835 10.9287 33.8623 10.9287 34.0488C10.9287 34.2353 11.0028 34.4141 11.1347 34.546C11.2665 34.6779 11.4454 34.752 11.6318 34.752C13.8263 34.752 15.6116 36.5372 15.6116 38.7317C15.6116 38.9182 15.6857 39.0971 15.8176 39.2289C15.9494 39.3608 16.1283 39.4349 16.3147 39.4349Z" fill="#FE646F"/>
<path d="M9.19627 14.0273C8.03088 14.0284 6.89539 14.3962 5.95073 15.0787L5.9572 15.073C5.80872 14.5872 5.71498 14.0863 5.67773 13.5797C6.73833 12.9573 7.95492 12.6211 9.19627 12.6211C11.4169 12.6211 13.5213 13.696 14.8256 15.4965C14.8797 15.5713 14.9187 15.656 14.9401 15.7458C14.9615 15.8356 14.965 15.9288 14.9505 16.02C14.9359 16.1112 14.9035 16.1986 14.8552 16.2772C14.8068 16.3559 14.7434 16.4243 14.6686 16.4784C14.5939 16.5326 14.5091 16.5715 14.4193 16.5929C14.3295 16.6144 14.2364 16.6179 14.1452 16.6033C14.054 16.5888 13.9666 16.5564 13.8879 16.508C13.8092 16.4597 13.7409 16.3963 13.6867 16.3215C12.6462 14.8849 10.9675 14.0273 9.19627 14.0273Z" fill="#FE646F"/>
<path d="M8.86882 25.5085C9.90654 25.5085 10.9179 25.1455 11.7167 24.4864C12.585 23.7698 13.1412 22.7685 13.2989 21.6733C11.7362 21.4469 10.3073 20.5952 9.36832 19.2988C9.31415 19.224 9.27523 19.1393 9.2538 19.0495C9.23237 18.9597 9.22884 18.8665 9.24341 18.7753C9.25799 18.6842 9.29038 18.5967 9.33874 18.5181C9.3871 18.4394 9.45048 18.371 9.52526 18.3169C9.60004 18.2627 9.68475 18.2238 9.77457 18.2024C9.86439 18.1809 9.95755 18.1774 10.0487 18.192C10.1399 18.2065 10.2273 18.2389 10.306 18.2873C10.3847 18.3357 10.453 18.399 10.5072 18.4738C11.3481 19.6347 12.7048 20.3278 14.1361 20.3278C15.1738 20.3278 16.1852 19.9648 16.9839 19.3057C18.0197 18.4509 18.6137 17.1915 18.6137 15.8503C18.6137 15.6638 18.6877 15.485 18.8196 15.3531C18.9515 15.2213 19.1303 15.1472 19.3168 15.1472C19.5033 15.1472 19.6821 15.2213 19.814 15.3531C19.9458 15.485 20.0199 15.6638 20.0199 15.8503C20.0199 17.6127 19.2396 19.2675 17.879 20.3903C16.9781 21.1339 15.8714 21.5897 14.714 21.7044C14.569 22.9776 14.0105 24.1681 13.1242 25.0935C13.8796 25.3781 14.5472 25.8557 15.0605 26.4788C15.7429 27.3074 16.1163 28.3474 16.1169 29.4208C16.1169 29.6073 16.0428 29.7861 15.911 29.918C15.7791 30.0499 15.6003 30.1239 15.4138 30.1239C15.2273 30.1239 15.0485 30.0499 14.9166 29.918C14.7847 29.7861 14.7107 29.6073 14.7107 29.4208C14.7107 28.6749 14.4498 27.948 13.9759 27.3739C13.3981 26.6737 12.5629 26.2545 11.6636 26.2071C10.8101 26.6672 9.8487 26.9148 8.86901 26.9148C8.68253 26.9148 8.50367 26.8408 8.3718 26.7089C8.23992 26.5771 8.16581 26.3982 8.16579 26.2118C8.16576 26.0253 8.23982 25.8464 8.37166 25.7145C8.50351 25.5827 8.68234 25.5086 8.86882 25.5085ZM12.4874 6.24347V6.24197C12.4878 5.77033 12.5415 5.30025 12.6475 4.84069L12.6477 4.83984C13.974 4.86741 15.2695 5.24474 16.4031 5.93368C17.5368 6.62262 18.4684 7.59873 19.1037 8.76328C19.1926 8.92691 19.2129 9.11912 19.1603 9.29774C19.1076 9.47636 18.9863 9.62679 18.8228 9.71604C18.6594 9.80529 18.4672 9.82606 18.2885 9.77379C18.1098 9.72153 17.9591 9.60049 17.8695 9.43725C17.3424 8.47067 16.5646 7.66397 15.6179 7.10194C14.6712 6.53991 13.5906 6.24333 12.4896 6.24337L12.4874 6.24347ZM3.3596 31.6212C4.48423 32.9586 6.16845 33.8106 8.04841 33.8106C8.23489 33.8106 8.41374 33.8846 8.5456 34.0165C8.67746 34.1484 8.75154 34.3272 8.75154 34.5137C8.75154 34.7002 8.67746 34.879 8.5456 35.0109C8.41374 35.1427 8.23489 35.2168 8.04841 35.2168C6.03701 35.2168 4.20879 34.4228 2.85645 33.1338C2.95841 32.6101 3.12753 32.1017 3.3596 31.6212Z" fill="#FE646F"/>
<path d="M30.5569 33.5398C30.5569 33.3533 30.4828 33.1744 30.351 33.0426C30.2191 32.9107 30.0403 32.8366 29.8538 32.8366C27.7663 32.8366 25.9049 33.8185 24.7033 35.3432V26.073C24.7033 24.3276 25.5768 22.7146 27.0401 21.7582C27.1944 21.6554 27.3018 21.4958 27.3391 21.3142C27.3763 21.1325 27.3402 20.9435 27.2388 20.7883C27.1373 20.6331 26.9787 20.5243 26.7974 20.4855C26.616 20.4467 26.4268 20.4811 26.2707 20.5812C25.6742 20.9708 25.1449 21.4546 24.7033 22.0137V10.5362C24.7033 8.7908 25.5768 7.17783 27.0401 6.22139C27.1944 6.11859 27.3018 5.959 27.3391 5.77735C27.3763 5.59571 27.3402 5.40671 27.2388 5.25151C27.1373 5.09631 26.9787 4.98747 26.7974 4.94867C26.616 4.90987 26.4268 4.94427 26.2707 5.04436C25.6742 5.43398 25.1449 5.91776 24.7033 6.47686V1.98633C24.4417 2.26683 24.2063 2.57069 24.0001 2.89411C23.794 2.57068 23.5586 2.26681 23.297 1.98633V6.47686C22.8555 5.91769 22.3261 5.4339 21.7296 5.04436C21.5735 4.94427 21.3842 4.90987 21.2029 4.94867C21.0216 4.98747 20.863 5.09631 20.7615 5.25151C20.6601 5.40671 20.624 5.59571 20.6612 5.77735C20.6984 5.959 20.8059 6.11859 20.9602 6.22139C22.4235 7.17783 23.297 8.7908 23.297 10.5362V22.0136C22.8555 21.4544 22.3261 20.9706 21.7296 20.5811C21.5735 20.4831 21.3853 20.4504 21.2053 20.4898C21.0253 20.5292 20.868 20.6377 20.7672 20.7919C20.6664 20.9462 20.6301 21.1338 20.6662 21.3145C20.7023 21.4952 20.8079 21.6545 20.9602 21.7581C22.4235 22.7145 23.297 24.3275 23.297 26.073V35.3431C22.0954 33.8184 20.234 32.8365 18.1465 32.8365C17.96 32.8365 17.7812 32.9106 17.6493 33.0425C17.5174 33.1743 17.4434 33.3532 17.4434 33.5397C17.4434 33.7262 17.5174 33.905 17.6493 34.0369C17.7812 34.1687 17.96 34.2428 18.1465 34.2428C20.9865 34.2428 23.297 36.5534 23.297 39.3933V45.6529C23.559 45.3526 23.7942 45.03 24.0001 44.6888C24.206 45.03 24.4413 45.3526 24.7033 45.6529V39.3934C24.7033 36.5535 27.0138 34.2429 29.8538 34.2429C30.0403 34.2429 30.2191 34.1688 30.351 34.0369C30.4828 33.9051 30.5569 33.7262 30.5569 33.5398Z" fill="#FE646F"/>
</g>
<defs>
<clipPath id="clip0_2401_909">
<rect width="48" height="48" fill="white"/>
</clipPath>
</defs>
</svg>
