<svg width="36" height="36" viewBox="0 0 36 36" fill="none" xmlns="http://www.w3.org/2000/svg">
<path d="M25.7318 10.4368C26.6302 10.4335 27.4907 10.0748 28.1254 9.43904C28.7601 8.80327 29.1174 7.94213 29.1192 7.04377C28.9606 2.56065 22.5025 2.56121 22.3445 7.04377C22.3461 7.94218 22.7033 8.8034 23.3381 9.4392C23.9728 10.075 24.8334 10.4337 25.7318 10.4368ZM33.6828 14.8479C33.5503 14.3211 33.2173 13.8669 32.7547 13.5822C32.2921 13.2974 31.7366 13.2046 31.2066 13.3235L29.2885 13.7454C29.2177 13.7614 29.1441 13.7606 29.0737 13.743C29.0032 13.7254 28.9379 13.6916 28.8829 13.6441C28.5612 13.4113 26.4361 11.4858 26.0806 11.4268C25.7431 11.3407 21.89 9.7899 21.6301 9.9024H16.3971C15.9366 9.9023 15.4825 10.0101 15.0711 10.2172C14.6598 10.4243 14.3027 10.7249 14.0284 11.0949L11.9241 13.9479C11.6787 14.2656 11.5316 14.6483 11.5011 15.0486C11.4705 15.4489 11.5579 15.8494 11.7524 16.2007C11.9469 16.552 12.2399 16.8386 12.5954 17.0252C12.9509 17.2118 13.3533 17.2903 13.7528 17.2509C14.0254 17.2218 14.2892 17.1375 14.5281 17.0031C14.7669 16.8687 14.9759 16.6869 15.1422 16.469L16.9034 14.1504L18.2315 14.2516L16.2008 19.4227C15.9498 20.0593 15.9569 20.7686 16.2205 21.4001C16.4841 22.0316 16.9836 22.5354 17.6127 22.8045C18.2877 23.0784 22.5813 24.9363 22.5813 24.9363C22.6663 24.9726 22.7387 25.0331 22.7897 25.1102C22.8407 25.1873 22.868 25.2776 22.8681 25.37V30.018C22.8572 30.4515 22.9731 30.8789 23.2017 31.2475C23.4303 31.6161 23.7616 31.9098 24.1549 32.0927C24.5482 32.2755 24.9863 32.3395 25.4155 32.2767C25.8446 32.2139 26.2461 32.0271 26.5705 31.7392C26.7905 31.5391 26.9673 31.2962 27.0901 31.0254C27.213 30.7546 27.2792 30.4615 27.2849 30.1642L27.4368 24.1432C27.4452 23.692 27.3386 23.2461 27.127 22.8476C26.9154 22.449 26.6058 22.1109 26.2274 21.8651L24.1394 20.5196C23.9398 20.3936 23.7881 20.2044 23.7086 19.9821C23.629 19.7599 23.6262 19.5174 23.7006 19.2933L24.9213 16.2997C24.9347 16.2634 24.9594 16.2323 24.9918 16.211C25.0242 16.1897 25.0626 16.1794 25.1013 16.1816C25.1394 16.1831 25.1765 16.1947 25.2087 16.2153L27.3411 17.706C27.6543 17.9244 28.0115 18.0718 28.3875 18.138C28.7636 18.2042 29.1496 18.1875 29.5186 18.089L32.1916 17.3859C32.7239 17.244 33.1789 16.898 33.458 16.4229C33.737 15.9479 33.8181 15.382 33.6828 14.8479Z" fill="#FFA000"/>
<path d="M17.1687 23.8336C16.5359 23.5614 15.9893 23.1219 15.5875 22.5624L14.8788 23.8842H10.9171C10.4573 23.8897 10.0093 24.0301 9.6287 24.2879C9.24806 24.5458 8.95155 24.9098 8.77599 25.3347C8.60043 25.7597 8.55357 26.2268 8.6412 26.6782C8.72884 27.1295 8.94713 27.5451 9.26895 27.8735C9.48502 28.0903 9.74195 28.262 10.0248 28.3789C10.3077 28.4957 10.611 28.5553 10.9171 28.5541H15.8013C16.2115 28.5537 16.616 28.4574 16.9823 28.2728C17.3487 28.0882 17.6668 27.8205 17.9112 27.491L19.7849 24.9592C19.1712 24.6937 17.7931 24.1059 17.1687 23.8342V23.8336ZM8.18052 13.1748H10.5773C10.7265 13.1748 10.8696 13.1155 10.9751 13.0101C11.0806 12.9046 11.1398 12.7615 11.1398 12.6123C11.1398 12.4631 11.0806 12.32 10.9751 12.2146C10.8696 12.1091 10.7265 12.0498 10.5773 12.0498H8.18108C8.03189 12.0498 7.88882 12.1091 7.78333 12.2146C7.67784 12.32 7.61858 12.4631 7.61858 12.6123C7.61858 12.7615 7.67784 12.9046 7.78333 13.0101C7.88882 13.1155 8.03133 13.1748 8.18052 13.1748ZM5.13908 16.079H9.5277C9.67689 16.079 9.81996 16.0197 9.92545 15.9142C10.0309 15.8087 10.0902 15.6657 10.0902 15.5165C10.0902 15.3673 10.0309 15.2242 9.92545 15.1187C9.81996 15.0133 9.67689 14.954 9.5277 14.954H5.13908C4.98989 14.954 4.84682 15.0133 4.74133 15.1187C4.63584 15.2242 4.57658 15.3673 4.57658 15.5165C4.57658 15.6657 4.63584 15.8087 4.74133 15.9142C4.84682 16.0197 4.98989 16.079 5.13908 16.079ZM8.18052 17.8582H2.80302C2.65376 17.8582 2.51061 17.9175 2.40507 18.023C2.29953 18.1286 2.24023 18.2717 2.24023 18.421C2.24023 18.5702 2.29953 18.7134 2.40507 18.8189C2.51061 18.9244 2.65376 18.9837 2.80302 18.9837H8.18052C8.3297 18.9837 8.47277 18.9245 8.57826 18.819C8.68375 18.7135 8.74302 18.5704 8.74302 18.4212C8.74302 18.2721 8.68375 18.129 8.57826 18.0235C8.47277 17.918 8.3297 17.8587 8.18052 17.8587V17.8582Z" fill="#FFA000"/>
</svg>
