<svg width="42" height="42" viewBox="0 0 42 42" fill="none" xmlns="http://www.w3.org/2000/svg">
<path d="M35.3276 9.89959V25.8213C35.3276 28.4399 33.197 30.5705 30.5778 30.5705H16.6655L6.30041 37.5105V30.5705H4.74977C2.13052 30.5705 0 28.4399 0 25.8213V9.89959C0 7.28099 2.1306 5.15039 4.74977 5.15039H30.5778C33.1971 5.15039 35.3276 7.28099 35.3276 9.89959Z" fill="#F4D34E"/>
<path d="M35.3277 9.89959V25.8213C35.3277 28.4399 33.1971 30.5705 30.5779 30.5705H17.6641V5.15039H30.5779C33.1972 5.15039 35.3277 7.28099 35.3277 9.89959Z" fill="#FFA41F"/>
<path d="M10.0703 13.6494H25.2592V16.1104H10.0703V13.6494ZM10.0703 19.6114H25.2592V22.0724H10.0703V19.6114Z" fill="#FFA001"/>
<path d="M17.6641 13.6494H25.2587V16.1104H17.6641V13.6494ZM17.6641 19.6114H25.2587V22.0724H17.6641V19.6114Z" fill="#F87F02"/>
</svg>
