<svg width="42" height="42" viewBox="0 0 42 42" fill="none" xmlns="http://www.w3.org/2000/svg">
<g opacity="0.7">
<path d="M17.0265 13.9729H9.68964C9.48351 13.9712 9.28128 14.0291 9.10717 14.1394C8.93305 14.2497 8.79443 14.4079 8.70789 14.595L5.23633 21.7888H13.2596L17.0265 13.9729ZM26.2941 21.7888L22.539 13.9729H19.4599L15.693 21.7888H26.2941ZM28.7275 21.7888H36.7626L33.291 14.5963C33.2023 14.4105 33.063 14.2535 32.8891 14.1433C32.7152 14.033 32.5138 13.974 32.308 13.9729H24.9632L28.7275 21.7888ZM5.4227 23.9728L18.3692 38.4562C18.7288 38.871 19.1659 39.1886 19.6568 39.3737L13.2163 23.9728H5.4227ZM26.403 23.9728H15.5854L20.989 36.9298L26.403 23.9728ZM36.5762 23.9728H28.7721L22.3408 39.375C22.8225 39.1781 23.2596 38.8723 23.6192 38.4694L36.5762 23.9728ZM20.9995 8.43937C21.7751 8.43937 22.4038 7.80938 22.4038 7.035V4.02937C22.4038 3.65691 22.2559 3.2997 21.9925 3.03633C21.7291 2.77296 21.3719 2.625 20.9995 2.625C20.627 2.625 20.2698 2.77296 20.0064 3.03633C19.743 3.2997 19.5951 3.65691 19.5951 4.02937V7.035C19.5951 7.80938 20.2238 8.43937 20.9995 8.43937ZM15.5395 10.7284C15.6552 10.872 15.7982 10.9913 15.9602 11.0795C16.1223 11.1676 16.3001 11.2229 16.4836 11.242C16.6671 11.2612 16.8525 11.2438 17.0292 11.1911C17.206 11.1383 17.3705 11.0511 17.5135 10.9344C17.8027 10.6998 17.9869 10.3599 18.0256 9.98946C18.0642 9.61902 17.9541 9.2484 17.7195 8.95913L15.2835 5.9535C15.0469 5.67024 14.7082 5.49153 14.3409 5.45602C13.9735 5.4205 13.6069 5.53105 13.3204 5.76374C13.0339 5.99643 12.8505 6.33256 12.8099 6.69941C12.7693 7.06627 12.8748 7.43436 13.1035 7.72406L15.5395 10.7284ZM25.3688 11.2481C25.7783 11.2481 26.1825 11.0709 26.4595 10.7284L28.8955 7.72275C29.0178 7.58035 29.1103 7.41486 29.1676 7.23609C29.2248 7.05731 29.2457 6.86886 29.2289 6.68189C29.2121 6.49491 29.1579 6.31321 29.0697 6.14751C28.9815 5.98182 28.8609 5.8355 28.7151 5.7172C28.5694 5.5989 28.4013 5.51103 28.221 5.45878C28.0407 5.40653 27.8518 5.39096 27.6653 5.41299C27.4789 5.43502 27.2988 5.4942 27.1356 5.58704C26.9725 5.67988 26.8296 5.80449 26.7154 5.9535L24.2794 8.95913C24.1123 9.16511 24.007 9.4142 23.9756 9.67756C23.9442 9.94091 23.9881 10.2078 24.102 10.4473C24.216 10.6867 24.3955 10.8891 24.6196 11.0308C24.8438 11.1725 25.1035 11.2479 25.3688 11.2481Z" fill="white"/>
</g>
</svg>
