<svg width="42" height="42" viewBox="0 0 42 42" fill="none" xmlns="http://www.w3.org/2000/svg">
<path d="M1.16681 25.6668H5.83319C6.47741 25.6668 7 26.1889 7 26.8332V38.5C7 39.1442 6.47752 39.6668 5.83319 39.6668H1.16681C0.522594 39.6668 0 39.1443 0 38.5V26.8332C0 26.189 0.522484 25.6668 1.16681 25.6668ZM12.8332 16.3332H17.5C18.1442 16.3332 18.6668 16.8557 18.6668 17.5V38.5C18.6668 39.1442 18.1443 39.6668 17.5 39.6668H12.8332C12.189 39.6668 11.6668 39.1443 11.6668 38.5V17.5C11.6668 16.8558 12.1889 16.3332 12.8332 16.3332ZM24.5 21H29.1668C29.811 21 30.3332 21.5225 30.3332 22.1668V38.5C30.3332 39.1442 29.8111 39.6668 29.1668 39.6668H24.5C23.8558 39.6668 23.3332 39.1443 23.3332 38.5V22.1668C23.3332 21.5226 23.8557 21 24.5 21ZM36.1668 14H40.8332C41.4774 14 42 14.5225 42 15.1668V38.5C42 39.1442 41.4775 39.6668 40.8332 39.6668H36.1668C35.5226 39.6668 35 39.1443 35 38.5V15.1668C35 14.5226 35.5225 14 36.1668 14Z" fill="#059669"/>
<path d="M38.5 0C36.568 0.0021875 35.0022 1.568 35 3.5C35.0047 3.88106 35.0722 4.25884 35.1999 4.6177L29.3595 8.08937C28.9817 7.68862 28.5138 7.38357 27.9947 7.19945C27.4756 7.01533 26.9201 6.95742 26.3741 7.03053C25.8282 7.10363 25.3075 7.30564 24.8551 7.61985C24.4027 7.93406 24.0316 8.35145 23.7724 8.8375L18.6211 6.28611C18.6463 6.13616 18.6612 5.98489 18.6668 5.83319C18.6681 5.14047 18.4639 4.46293 18.0799 3.88638C17.6959 3.30982 17.1495 2.86018 16.5098 2.59438C15.8701 2.32859 15.1659 2.2586 14.4864 2.39327C13.8069 2.52795 13.1826 2.86123 12.6926 3.35092C12.2026 3.8405 11.8688 4.46454 11.7337 5.14397C11.5986 5.8234 11.6683 6.52763 11.9338 7.16745L5.25175 12.1543C4.72175 11.8385 4.11694 11.6702 3.5 11.6668C1.56712 11.6668 0 13.2335 0 15.1668C0 17.0997 1.56712 18.6668 3.5 18.6668C5.43288 18.6668 7 17.0997 7 15.1668C6.99702 14.7458 6.91752 14.3289 6.76539 13.9363L13.5143 8.89962C14.8344 9.63572 16.4811 9.41992 17.5666 8.36806L23.4246 11.2695C23.8151 13.0088 25.4519 14.176 27.2237 13.9787C28.9955 13.7812 30.3354 12.2829 30.3332 10.5C30.3332 10.4111 30.3135 10.3274 30.3072 10.2402L36.6594 6.46384C37.2103 6.8121 37.8483 6.99793 38.5 7C40.4329 7 42 5.43287 42 3.5C42 1.56712 40.4329 0 38.5 0Z" fill="#17BA88"/>
</svg>
