<svg width="49" height="49" viewBox="0 0 49 49" fill="none" xmlns="http://www.w3.org/2000/svg">
<g clip-path="url(#clip0_2401_925)">
<path d="M20.3633 48.0038L38.9768 15.9541C39.3982 15.2285 38.8006 14.3355 37.9691 14.4486L25.5878 16.1315L28.5461 0.600546C28.6458 0.0769785 27.9708 -0.223024 27.649 0.201767L9.34783 24.3594C8.81474 25.063 9.37921 26.0634 10.2571 25.9711L23.9073 24.5342L19.4324 47.6549C19.3244 48.2126 20.078 48.495 20.3633 48.0038Z" fill="#FFDC64"/>
<path d="M15.071 22.6478C14.7291 22.6751 14.5021 22.3014 14.6838 22.0106L28.3671 0.117309C28.1635 -0.0437665 27.8431 -0.0541342 27.649 0.202041L9.34783 24.3596C8.81474 25.0633 9.37921 26.0637 10.2571 25.9713L23.9073 24.5345L19.4324 47.6551C19.372 47.967 19.5824 48.1864 19.8283 48.2389L27.4965 23.9742C27.856 22.8368 26.9491 21.6974 25.7601 21.7926L15.071 22.6478Z" fill="#FFC850"/>
</g>
<defs>
<clipPath id="clip0_2401_925">
<rect width="48.2568" height="48.2568" fill="white"/>
</clipPath>
</defs>
</svg>
