<svg width="24" height="24" viewBox="0 0 24 24" fill="none" xmlns="http://www.w3.org/2000/svg">
<path d="M3.97833 7.70972H20.0216C20.1183 7.70974 20.214 7.69001 20.3028 7.65173C20.3916 7.61346 20.4716 7.55745 20.538 7.48715C20.6044 7.41684 20.6557 7.33372 20.6888 7.24287C20.722 7.15203 20.7362 7.05538 20.7306 6.95884L20.7217 6.77458C20.6064 4.90998 19.0478 3.4494 17.1729 3.4494H16.2605V2.73935C16.2605 2.55103 16.1857 2.37043 16.0525 2.23727C15.9193 2.10411 15.7387 2.0293 15.5504 2.0293C15.3621 2.0293 15.1815 2.10411 15.0483 2.23727C14.9152 2.37043 14.8404 2.55103 14.8404 2.73935V3.4494H9.15994V2.73935C9.15994 2.55103 9.08514 2.37043 8.95197 2.23727C8.81881 2.10411 8.63821 2.0293 8.44989 2.0293C8.26157 2.0293 8.08097 2.10411 7.94781 2.23727C7.81465 2.37043 7.73984 2.55103 7.73984 2.73935V3.4494H6.82742C4.95252 3.4494 3.3936 4.91034 3.27822 6.776L3.26934 6.9592C3.26367 7.05574 3.27782 7.15242 3.3109 7.24329C3.34399 7.33416 3.39531 7.4173 3.46172 7.4876C3.52813 7.5579 3.60822 7.61387 3.69706 7.65207C3.7859 7.69027 3.88162 7.70989 3.97833 7.70972ZM20.8417 9.82213C20.8372 9.63694 20.7604 9.46086 20.6278 9.33151C20.4952 9.20215 20.3173 9.12978 20.132 9.12983H3.86827C3.68302 9.12986 3.5051 9.20226 3.37246 9.33159C3.23982 9.46091 3.16294 9.63694 3.15822 9.82213C3.09407 12.3346 3.13885 14.8486 3.29242 17.3572C3.40319 19.1395 4.83075 20.5667 6.61227 20.6774C10.2004 20.9023 13.7992 20.9021 17.3873 20.6771C19.1696 20.5663 20.5968 19.1387 20.7079 17.3569C20.8606 14.9008 20.9056 12.3655 20.8417 9.82213ZM15.5504 13.3902C15.2679 13.3902 14.997 13.2779 14.7973 13.0782C14.5976 12.8785 14.4853 12.6075 14.4853 12.3251C14.4853 12.0426 14.5976 11.7717 14.7973 11.5719C14.997 11.3722 15.2679 11.26 15.5504 11.26C15.8329 11.26 16.1038 11.3722 16.3036 11.5719C16.5033 11.7717 16.6155 12.0426 16.6155 12.3251C16.6155 12.6075 16.5033 12.8785 16.3036 13.0782C16.1038 13.2779 15.8329 13.3902 15.5504 13.3902ZM16.6155 15.8753C16.6155 16.1578 16.5033 16.4287 16.3036 16.6285C16.1038 16.8282 15.8329 16.9404 15.5504 16.9404C15.2679 16.9404 14.997 16.8282 14.7973 16.6285C14.5976 16.4287 14.4853 16.1578 14.4853 15.8753C14.4853 15.5929 14.5976 15.322 14.7973 15.1222C14.997 14.9225 15.2679 14.8103 15.5504 14.8103C15.8329 14.8103 16.1038 14.9225 16.3036 15.1222C16.5033 15.322 16.6155 15.5929 16.6155 15.8753ZM8.44989 14.8103C8.73237 14.8103 9.00328 14.9225 9.20302 15.1222C9.40276 15.322 9.51497 15.5929 9.51497 15.8753C9.51497 16.1578 9.40276 16.4287 9.20302 16.6285C9.00328 16.8282 8.73237 16.9404 8.44989 16.9404C8.16741 16.9404 7.89651 16.8282 7.69677 16.6285C7.49702 16.4287 7.38481 16.1578 7.38481 15.8753C7.38481 15.5929 7.49702 15.322 7.69677 15.1222C7.89651 14.9225 8.16741 14.8103 8.44989 14.8103ZM7.38481 12.3251C7.38481 12.1852 7.41236 12.0467 7.46589 11.9175C7.51941 11.7883 7.59786 11.6708 7.69677 11.5719C7.79567 11.473 7.91308 11.3946 8.0423 11.3411C8.17152 11.2875 8.31002 11.26 8.44989 11.26C8.58976 11.26 8.72826 11.2875 8.85748 11.3411C8.9867 11.3946 9.10411 11.473 9.20302 11.5719C9.30192 11.6708 9.38037 11.7883 9.4339 11.9175C9.48742 12.0467 9.51497 12.1852 9.51497 12.3251C9.51497 12.6075 9.40276 12.8785 9.20302 13.0782C9.00328 13.2779 8.73237 13.3902 8.44989 13.3902C8.16741 13.3902 7.89651 13.2779 7.69677 13.0782C7.49702 12.8785 7.38481 12.6075 7.38481 12.3251ZM10.9351 15.8753C10.9351 15.5929 11.0473 15.322 11.247 15.1222C11.4468 14.9225 11.7177 14.8103 12.0002 14.8103C12.2826 14.8103 12.5535 14.9225 12.7533 15.1222C12.953 15.322 13.0652 15.5929 13.0652 15.8753C13.0652 16.1578 12.953 16.4287 12.7533 16.6285C12.5535 16.8282 12.2826 16.9404 12.0002 16.9404C11.7177 16.9404 11.4468 16.8282 11.247 16.6285C11.0473 16.4287 10.9351 16.1578 10.9351 15.8753ZM12.0002 13.3902C11.7177 13.3902 11.4468 13.2779 11.247 13.0782C11.0473 12.8785 10.9351 12.6075 10.9351 12.3251C10.9351 12.0426 11.0473 11.7717 11.247 11.5719C11.4468 11.3722 11.7177 11.26 12.0002 11.26C12.2826 11.26 12.5535 11.3722 12.7533 11.5719C12.953 11.7717 13.0652 12.0426 13.0652 12.3251C13.0652 12.6075 12.953 12.8785 12.7533 13.0782C12.5535 13.2779 12.2826 13.3902 12.0002 13.3902Z" fill="white" fill-opacity="0.7"/>
</svg>
