<svg width="39" height="39" viewBox="0 0 39 39" fill="none" xmlns="http://www.w3.org/2000/svg">
<path d="M22.833 10.9473C24.9041 10.9473 26.583 9.26833 26.583 7.19727C26.583 5.1262 24.9041 3.44727 22.833 3.44727C20.7619 3.44727 19.083 5.1262 19.083 7.19727C19.083 9.26833 20.7619 10.9473 22.833 10.9473Z" fill="#059669"/>
<path d="M17.3307 20.6599C17.384 20.4991 17.4115 20.3316 17.4115 20.1624C17.4115 19.1533 16.4665 18.3858 15.4824 18.6258C14.8824 18.7724 14.3532 18.9574 13.9674 19.1091C13.8815 19.1434 13.7896 19.1598 13.6972 19.1574C13.6048 19.155 13.5138 19.1337 13.4299 19.095C13.346 19.0562 13.2708 19.0007 13.2091 18.932C13.1473 18.8632 13.1002 18.7825 13.0707 18.6949L12.4515 16.8449C12.4008 16.6949 12.4045 16.5318 12.4621 16.3842C12.5198 16.2367 12.6275 16.1142 12.7665 16.0383C13.7899 15.4749 16.3282 14.2808 19.4649 14.2808H19.5874C22.9315 14.3141 25.3199 17.5391 24.509 20.7716L21.6699 30.4016C21.6165 30.562 21.5892 30.73 21.589 30.8991C21.589 31.9083 22.534 32.6758 23.5182 32.4358C24.1182 32.2891 24.6474 32.1041 25.0332 31.9524C25.119 31.9181 25.211 31.9017 25.3034 31.9041C25.3958 31.9065 25.4867 31.9278 25.5706 31.9666C25.6546 32.0053 25.7297 32.0608 25.7915 32.1296C25.8532 32.1983 25.9003 32.279 25.9299 32.3666L26.549 34.2166C26.5998 34.3666 26.596 34.5298 26.5384 34.6773C26.4808 34.8248 26.373 34.9473 26.234 35.0233C25.2107 35.5866 22.6724 36.7808 19.5357 36.7808H19.4132C16.069 36.7474 13.6807 33.5224 14.4915 30.2899L17.3307 20.6599Z" fill="#059669"/>
</svg>
