<svg width="42" height="42" viewBox="0 0 42 42" fill="none" xmlns="http://www.w3.org/2000/svg">
<g opacity="0.7">
<path d="M38.0625 16.1875H31.9375C30.971 16.1875 30.1875 16.971 30.1875 17.9375V38.0625C30.1875 39.029 30.971 39.8125 31.9375 39.8125H38.0625C39.029 39.8125 39.8125 39.029 39.8125 38.0625V17.9375C39.8125 16.971 39.029 16.1875 38.0625 16.1875Z" fill="white"/>
<path d="M24.0625 23.1875H17.9375C16.971 23.1875 16.1875 23.971 16.1875 24.9375V38.0625C16.1875 39.029 16.971 39.8125 17.9375 39.8125H24.0625C25.029 39.8125 25.8125 39.029 25.8125 38.0625V24.9375C25.8125 23.971 25.029 23.1875 24.0625 23.1875Z" fill="white"/>
<path d="M10.0635 26.6875H3.93848C2.97198 26.6875 2.18848 27.471 2.18848 28.4375V38.0625C2.18848 39.029 2.97198 39.8125 3.93848 39.8125H10.0635C11.03 39.8125 11.8135 39.029 11.8135 38.0625V28.4375C11.8135 27.471 11.03 26.6875 10.0635 26.6875Z" fill="white"/>
<path d="M5.25044 24.5C4.83607 24.495 4.43692 24.3431 4.12404 24.0714C3.81116 23.7997 3.60485 23.4258 3.54184 23.0162C3.47883 22.6066 3.5632 22.188 3.77994 21.8348C3.99669 21.4816 4.33173 21.2168 4.72544 21.0875C10.0927 19.3892 15.2525 17.094 20.1079 14.245C25.7364 10.9364 30.9127 6.91295 35.5079 2.275C35.67 2.10965 35.8633 1.9781 36.0766 1.88798C36.2899 1.79786 36.5189 1.75096 36.7504 1.75C37.2095 1.75193 37.6495 1.9342 37.9754 2.2575C38.3014 2.58538 38.4843 3.02892 38.4843 3.49125C38.4843 3.95357 38.3014 4.39712 37.9754 4.725C33.1765 9.58403 27.7642 13.7962 21.8754 17.255C16.7997 20.2705 11.3986 22.701 5.77544 24.5C5.60143 24.5264 5.42444 24.5264 5.25044 24.5Z" fill="white"/>
<path d="M36.75 12.25C36.2859 12.25 35.8408 12.0656 35.5126 11.7374C35.1844 11.4092 35 10.9641 35 10.5V5.25H29.75C29.2859 5.25 28.8408 5.06563 28.5126 4.73744C28.1844 4.40925 28 3.96413 28 3.5C28 3.03587 28.1844 2.59075 28.5126 2.26256C28.8408 1.93437 29.2859 1.75 29.75 1.75H36.75C37.2141 1.75 37.6592 1.93437 37.9874 2.26256C38.3156 2.59075 38.5 3.03587 38.5 3.5V10.5C38.5 10.9641 38.3156 11.4092 37.9874 11.7374C37.6592 12.0656 37.2141 12.25 36.75 12.25Z" fill="white"/>
</g>
</svg>
