<svg width="32" height="32" viewBox="0 0 32 32" fill="none" xmlns="http://www.w3.org/2000/svg">
<path d="M21.1645 29.9907C20.6693 30.0312 20.1712 29.9637 19.7047 29.7928C19.2381 29.6218 18.8143 29.3516 18.4625 29.0007C17.8415 28.7507 14.3655 20.1457 13.9655 19.4547L20.6125 12.8077C20.7057 12.7151 20.7797 12.6049 20.8301 12.4836C20.8806 12.3622 20.9066 12.2321 20.9066 12.1007C20.9066 11.9693 20.8806 11.8392 20.8301 11.7179C20.7797 11.5965 20.7057 11.4864 20.6125 11.3937C20.5203 11.2997 20.4103 11.225 20.2889 11.174C20.1675 11.123 20.0372 11.0967 19.9055 11.0967C19.7738 11.0967 19.6435 11.123 19.5221 11.174C19.4007 11.225 19.2907 11.2997 19.1985 11.3937L12.5515 18.0407L4.05152 14.2647C3.39505 13.9785 2.84486 13.4936 2.47838 12.8783C2.1119 12.263 1.94757 11.5483 2.00852 10.8347C2.0613 10.1218 2.33586 9.44337 2.7937 8.89442C3.25154 8.34548 3.86971 7.95359 4.56152 7.7737L25.6475 2.1167C26.2346 1.9578 26.8532 1.95718 27.4406 2.11491C28.0279 2.27264 28.5631 2.5831 28.9915 3.0147C29.4212 3.44309 29.73 3.9775 29.8865 4.56374C30.0429 5.14997 30.0416 5.76716 29.8825 6.3527L24.2255 27.4377C24.0456 28.1295 23.6537 28.7477 23.1048 29.2055C22.5559 29.6634 21.8774 29.9379 21.1645 29.9907Z" fill="#0284C7"/>
</svg>
