<svg width="42" height="42" viewBox="0 0 42 42" fill="none" xmlns="http://www.w3.org/2000/svg">
<path d="M24.9375 31.5H17.0625C16.7144 31.5 16.3806 31.6383 16.1344 31.8844C15.8883 32.1306 15.75 32.4644 15.75 32.8125V34.125C15.75 35.5174 16.3031 36.8527 17.2877 37.8373C18.2723 38.8219 19.6076 39.375 21 39.375C22.3924 39.375 23.7277 38.8219 24.7123 37.8373C25.6969 36.8527 26.25 35.5174 26.25 34.125V32.8125C26.25 32.4644 26.1117 32.1306 25.8656 31.8844C25.6194 31.6383 25.2856 31.5 24.9375 31.5ZM21 7.875C20.6519 7.875 20.3181 7.73672 20.0719 7.49058C19.8258 7.24444 19.6875 6.9106 19.6875 6.5625V3.9375C19.6875 3.5894 19.8258 3.25556 20.0719 3.00942C20.3181 2.76328 20.6519 2.625 21 2.625C21.3481 2.625 21.6819 2.76328 21.9281 3.00942C22.1742 3.25556 22.3125 3.5894 22.3125 3.9375V6.5625C22.3125 6.9106 22.1742 7.24444 21.9281 7.49058C21.6819 7.73672 21.3481 7.875 21 7.875Z" fill="#FF9800"/>
<path d="M33.7981 26.9982C33.4715 26.7287 33.2124 26.3866 33.0415 25.9992C32.8706 25.6118 32.7926 25.1898 32.8137 24.7669V17.4169C32.8608 14.3691 31.7484 11.4172 29.7016 9.15839C27.6548 6.8996 24.8264 5.50262 21.7887 5.25007C20.1715 5.13705 18.5484 5.36228 17.023 5.91141C15.4976 6.46055 14.1035 7.32153 12.9293 8.43945C11.7489 9.54427 10.8078 10.8797 10.1644 12.3629C9.52096 13.8462 9.18888 15.4458 9.18871 17.0626V24.7538C9.21089 25.1788 9.13344 25.603 8.96252 25.9927C8.79161 26.3824 8.53197 26.7267 8.20434 26.9982C7.59738 27.4205 7.12159 28.0052 6.83144 28.6853C6.54129 29.3654 6.44851 30.1134 6.56371 30.8438C6.74648 31.785 7.25676 32.631 8.004 33.2316C8.75125 33.8323 9.68713 34.1489 10.6456 34.1251H31.3568C32.3153 34.1489 33.2512 33.8323 33.9984 33.2316C34.7457 32.631 35.2559 31.785 35.4387 30.8438C35.5539 30.1134 35.4611 29.3654 35.171 28.6853C34.8808 28.0052 34.405 27.4205 33.7981 26.9982Z" fill="#FFC107"/>
<path d="M35.4375 13.1252C35.0894 13.1252 34.7556 12.9869 34.5094 12.7407C34.2633 12.4946 34.125 12.1608 34.125 11.8127C34.1282 10.6056 33.7265 9.43229 32.9841 8.4805C32.2417 7.52871 31.2015 6.85342 30.03 6.56266H29.8725C29.7001 6.5213 29.5376 6.44638 29.3942 6.34221C29.2508 6.23803 29.1293 6.10663 29.0367 5.9555C28.9441 5.80437 28.8821 5.63648 28.8544 5.46141C28.8266 5.28634 28.8336 5.10752 28.875 4.93516C28.9164 4.7628 28.9913 4.60028 29.0955 4.45687C29.1996 4.31346 29.331 4.19197 29.4822 4.09935C29.6333 4.00672 29.8012 3.94477 29.9763 3.91702C30.1513 3.88928 30.3301 3.89629 30.5025 3.93766H30.66C32.4127 4.37439 33.967 5.38911 35.072 6.81798C36.177 8.24686 36.7682 10.0065 36.75 11.8127C36.75 12.1608 36.6117 12.4946 36.3656 12.7407C36.1194 12.9869 35.7856 13.1252 35.4375 13.1252ZM6.5625 13.1252C6.2144 13.1252 5.88056 12.9869 5.63442 12.7407C5.38828 12.4946 5.25 12.1608 5.25 11.8127C5.24952 10.0199 5.84877 8.27854 6.95237 6.86575C8.05597 5.45295 9.60047 4.44995 11.34 4.01641H11.4975C11.8298 3.94774 12.1757 4.01041 12.4628 4.19127C12.7499 4.37214 12.9557 4.65715 13.0372 4.98651C13.1187 5.31587 13.0695 5.664 12.8999 5.95786C12.7303 6.25172 12.4535 6.46847 12.1275 6.56266H11.97C10.7985 6.85342 9.75828 7.52871 9.01588 8.4805C8.27348 9.43229 7.87177 10.6056 7.875 11.8127C7.875 12.1608 7.73672 12.4946 7.49058 12.7407C7.24444 12.9869 6.9106 13.1252 6.5625 13.1252Z" fill="#059669"/>
</svg>
