<svg width="25" height="24" viewBox="0 0 25 24" fill="none" xmlns="http://www.w3.org/2000/svg">
<path d="M23.3334 5.9319C23.3359 5.79065 23.3101 5.65033 23.2577 5.51916C23.2052 5.38798 23.1272 5.26858 23.028 5.16794C22.9289 5.0673 22.8107 4.98744 22.6803 4.93303C22.5499 4.87863 22.41 4.85076 22.2687 4.85108H17.582C17.5173 4.85139 17.4542 4.87082 17.4006 4.90692C17.347 4.94303 17.3053 4.99419 17.2807 5.05396C17.2561 5.11374 17.2497 5.17946 17.2624 5.24285C17.2751 5.30624 17.3062 5.36446 17.3519 5.41017L18.2554 6.31294C18.3261 6.38322 18.3822 6.46677 18.4205 6.55879C18.4588 6.65081 18.4785 6.74949 18.4786 6.84917C18.4787 6.94884 18.4591 7.04755 18.4209 7.13962C18.3827 7.2317 18.3267 7.31532 18.2561 7.3857L13.669 11.9706C13.5759 12.0642 13.4652 12.1384 13.3433 12.1891C13.2214 12.2397 13.0906 12.2658 12.9586 12.2658C12.8266 12.2658 12.6959 12.2397 12.574 12.1891C12.4521 12.1384 12.3414 12.0642 12.2482 11.9706L9.28859 9.01097C9.20206 8.92409 9.09923 8.85516 8.98599 8.80813C8.87276 8.7611 8.75135 8.73688 8.62874 8.73688C8.50612 8.73688 8.38472 8.7611 8.27148 8.80813C8.15825 8.85516 8.05542 8.92409 7.96889 9.01097L0.27269 16.7028C0.0980444 16.8783 0 17.1158 0 17.3633C0 17.6109 0.0980444 17.8484 0.27269 18.0239L1.26485 19.0146C1.43996 19.189 1.67693 19.287 1.92403 19.2873C2.17114 19.2875 2.40832 19.1901 2.58382 19.0161L7.91613 13.6845C8.10475 13.4962 8.36038 13.3905 8.62691 13.3905C8.89343 13.3905 9.14906 13.4962 9.33769 13.6845L12.2453 16.5928C12.4343 16.7804 12.6886 16.8852 12.9568 16.8852C13.225 16.8852 13.4807 16.7782 13.6698 16.5928L20.5695 9.69243C20.6397 9.62209 20.7232 9.56631 20.8151 9.52827C20.907 9.49023 21.0055 9.47068 21.1049 9.47075C21.2043 9.47082 21.3028 9.4905 21.3946 9.52866C21.4864 9.56683 21.5698 9.62273 21.64 9.69317L22.7047 10.7608C22.7502 10.8063 22.808 10.8373 22.871 10.8501C22.934 10.863 22.9993 10.857 23.0589 10.8329C23.1185 10.8089 23.1698 10.7678 23.2062 10.7148C23.2426 10.6619 23.2627 10.5994 23.2638 10.5351L23.3334 5.9319Z" fill="white" fill-opacity="0.7"/>
</svg>
