<svg width="43" height="43" viewBox="0 0 43 43" fill="none" xmlns="http://www.w3.org/2000/svg">
<g clip-path="url(#clip0_2401_997)">
<path d="M16.1268 21.4086C16.125 10.75 19.7083 3.58333 26.875 0C27.7708 10.75 37.625 14.3333 37.625 26.875C37.625 31.1516 35.9261 35.2531 32.9021 38.2771C29.8781 41.3011 25.7766 43 21.5 43C17.2234 43 13.1219 41.3011 10.0979 38.2771C7.07388 35.2531 5.375 31.1516 5.375 26.875C5.375 20.6042 7.16667 17.9167 10.75 14.3333C10.75 19.7083 16.1268 21.4086 16.1268 21.4086Z" fill="#F16923"/>
<path d="M21.4999 42.5524C14.2866 42.5524 8.17881 37.8654 6.02344 31.376C7.97277 38.0894 14.1576 43.0003 21.4999 43.0003C28.8421 43.0003 35.0269 38.0894 36.9763 31.376C34.8209 37.8654 28.7131 42.5524 21.4999 42.5524Z" fill="#010101" fill-opacity="0.063"/>
<path d="M29.5625 31.3543C29.5625 33.4926 28.7131 35.5434 27.201 37.0554C25.689 38.5674 23.6383 39.4168 21.5 39.4168C19.3617 39.4168 17.311 38.5674 15.799 37.0554C14.2869 35.5434 13.4375 33.4926 13.4375 31.3543C13.4375 28.3497 14.3333 26.7999 16.125 25.0835C16.125 28.6668 18.8125 29.5627 18.8125 29.5627C18.8125 24.4564 20.6042 21.4249 24.1875 19.7085C24.6354 24.8595 29.5625 26.5401 29.5625 31.3543Z" fill="#FDB816"/>
<path opacity="0.2" d="M18.8125 30.0106C18.8125 24.9043 20.6042 21.8728 24.1875 20.1564C24.6265 25.2053 29.3582 26.9271 29.5446 31.5281C29.5464 31.469 29.5625 31.4135 29.5625 31.3543C29.5625 26.5383 24.6354 24.8595 24.1875 19.7085C20.6042 21.4249 18.8125 24.4564 18.8125 29.5627C18.8125 29.5627 16.125 28.6668 16.125 25.0835C14.3333 26.7999 13.4375 28.3497 13.4375 31.3543C13.4375 31.3973 13.45 31.4367 13.45 31.4797C13.5163 28.6937 14.3996 27.1833 16.125 25.5314C16.125 29.1147 18.8125 30.0106 18.8125 30.0106Z" fill="white"/>
<path opacity="0.1" d="M21.5 38.9688C19.3849 38.9676 17.355 38.1346 15.8489 36.6495C14.3427 35.1645 13.4811 33.1467 13.45 31.0317C13.4482 31.1428 13.4375 31.2396 13.4375 31.3542C13.4375 33.4925 14.2869 35.5433 15.799 37.0553C17.311 38.5673 19.3617 39.4167 21.5 39.4167C23.6383 39.4167 25.689 38.5673 27.201 37.0553C28.7131 35.5433 29.5625 33.4925 29.5625 31.3542C29.5625 31.2593 29.5482 31.1733 29.5446 31.0801C29.5019 33.1859 28.6358 35.1912 27.132 36.6659C25.6281 38.1407 23.6063 38.9674 21.5 38.9688Z" fill="#010101"/>
<path opacity="0.2" d="M16.1268 21.8565C16.125 11.1979 19.7083 4.03125 26.875 0.447917C27.7655 11.1298 37.4906 14.7454 37.6142 27.0954C37.6142 27.0219 37.625 26.9502 37.625 26.875C37.625 14.3333 27.7708 10.75 26.875 0C19.7083 3.58333 16.125 10.75 16.1268 21.4086C16.1268 21.4086 10.75 19.7083 10.75 14.3333C7.16667 17.9167 5.375 20.6042 5.375 26.875C5.375 26.9395 5.38396 27.004 5.38396 27.0685C5.43771 20.9894 7.22042 18.3108 10.75 14.7812C10.75 20.1562 16.1268 21.8565 16.1268 21.8565Z" fill="white"/>
<path d="M16.1268 21.4086C16.125 10.75 19.7083 3.58333 26.875 0C27.7708 10.75 37.625 14.3333 37.625 26.875C37.625 31.1516 35.9261 35.2531 32.9021 38.2771C29.8781 41.3011 25.7766 43 21.5 43C17.2234 43 13.1219 41.3011 10.0979 38.2771C7.07388 35.2531 5.375 31.1516 5.375 26.875C5.375 20.6042 7.16667 17.9167 10.75 14.3333C10.75 19.7083 16.1268 21.4086 16.1268 21.4086Z" fill="url(#paint0_linear_2401_997)"/>
</g>
<defs>
<linearGradient id="paint0_linear_2401_997" x1="8.78992" y1="15.1557" x2="38.3363" y2="28.9336" gradientUnits="userSpaceOnUse">
<stop stop-color="white" stop-opacity="0.2"/>
<stop offset="1" stop-color="white" stop-opacity="0"/>
</linearGradient>
<clipPath id="clip0_2401_997">
<rect width="43" height="43" fill="white"/>
</clipPath>
</defs>
</svg>
