<svg width="36" height="36" viewBox="0 0 36 36" fill="none" xmlns="http://www.w3.org/2000/svg">
<path d="M22.5598 10.1897C23.7117 9.0378 23.7117 7.17021 22.5598 6.01832C21.4079 4.86643 19.5403 4.86643 18.3884 6.01832C17.2365 7.17021 17.2365 9.0378 18.3884 10.1897C19.5403 11.3416 21.4079 11.3416 22.5598 10.1897Z" fill="#059669"/>
<path d="M10.7291 30.1022L12.8975 29.639C13.863 29.4314 14.7648 28.9956 15.5274 28.368C16.2899 27.7405 16.8911 26.9394 17.2805 26.0318L17.7995 24.8138L19.3517 25.3436C19.8788 25.5214 20.355 25.824 20.7397 26.2257C21.1244 26.6275 21.4062 27.1164 21.5609 27.6506L22.1417 29.624C22.2426 29.9768 22.4558 30.287 22.7489 30.5077C23.042 30.7283 23.399 30.8474 23.7659 30.8468C23.8319 30.8468 23.8991 30.842 23.9711 30.8312C24.2123 30.803 24.4445 30.7232 24.6521 30.5974C24.8597 30.4715 25.0377 30.3024 25.1742 30.1016C25.3107 29.9008 25.4024 29.673 25.443 29.4337C25.4837 29.1943 25.4724 28.949 25.4099 28.7144L24.7781 26.3144C24.3705 24.7773 23.4651 23.4186 22.2035 22.4504L20.3483 21.032L21.0575 17.111C21.8613 17.6102 22.7876 17.8769 23.7338 17.8815C24.6799 17.886 25.6088 17.6283 26.4173 17.1368L26.7461 16.9418C27.065 16.7484 27.2942 16.4365 27.3837 16.0744C27.4732 15.7124 27.4157 15.3296 27.2237 15.0098C27.0401 14.7076 26.75 14.4851 26.4105 14.3862C26.071 14.2872 25.7068 14.319 25.3895 14.4752C24.9729 14.6798 24.4989 14.7363 24.0459 14.6354C23.5928 14.5345 23.1876 14.2823 22.8971 13.9202L22.6043 13.55C21.9537 12.7294 21.0148 12.1874 19.9787 12.0344L17.7533 11.705C16.9806 11.5901 16.1912 11.697 15.4769 12.0134L15.1169 12.1676C12.4553 13.3448 10.7849 16.0832 10.9649 18.9866C10.9859 19.3568 11.1653 19.7006 11.4533 19.9376C11.7413 20.1686 12.1109 20.2766 12.4811 20.2256C12.791 20.1805 13.0753 20.0282 13.2846 19.7953C13.4939 19.5624 13.6151 19.2636 13.6271 18.9506C13.6513 18.3183 13.8273 17.701 14.1403 17.1509C14.4533 16.6009 14.894 16.1343 15.4253 15.7904L13.4525 25.2254L9.70613 26.6948C9.37082 26.8236 9.0826 27.0513 8.87974 27.3477C8.67688 27.6442 8.56897 27.9953 8.57033 28.3544C8.57033 28.8944 8.81213 29.4032 9.23333 29.7422C9.65513 30.0812 10.1993 30.215 10.7291 30.1022Z" fill="#059669"/>
</svg>
