<svg width="32" height="32" viewBox="0 0 32 32" fill="none" xmlns="http://www.w3.org/2000/svg">
<g clip-path="url(#clip0_2401_963)">
<path d="M19.2324 29.1464C18.9676 29.2124 18.7008 29.2702 18.4324 29.3197C17.7344 29.4495 17.2729 30.1209 17.402 30.8196C17.463 31.15 17.6511 31.4433 17.926 31.6365C18.0661 31.7354 18.2245 31.8053 18.392 31.8419C18.5594 31.8785 18.7326 31.8811 18.9011 31.8497C19.2208 31.7904 19.5386 31.7214 19.8541 31.6428C20.5434 31.4712 20.9633 30.7729 20.7914 30.0839C20.6198 29.3943 19.9221 28.9747 19.2324 29.1464ZM28.7454 11.9036C28.8317 12.165 28.9998 12.3916 29.2249 12.5501C29.5471 12.777 29.9687 12.8534 30.371 12.7203C31.0455 12.4964 31.411 11.769 31.1879 11.0948C31.0857 10.7862 30.9741 10.4808 30.8532 10.179C30.5893 9.5193 29.8411 9.19813 29.1811 9.462C28.5217 9.72573 28.2004 10.4742 28.4645 11.1341C28.566 11.3877 28.6596 11.6443 28.7454 11.9036ZM23.4125 27.3097C23.1846 27.4603 22.9521 27.6039 22.7154 27.7404C22.0999 28.0955 21.889 28.8823 22.244 29.4976C22.337 29.6593 22.4641 29.7988 22.6165 29.9064C23.0134 30.1856 23.5523 30.2274 24.001 29.9689C24.2827 29.8065 24.5594 29.6355 24.8307 29.4563C25.4233 29.0648 25.5864 28.2667 25.1947 27.6739C24.8031 27.0808 24.0053 26.918 23.4125 27.3097ZM31.9877 15.4965C31.9597 14.7865 31.3617 14.2339 30.6515 14.2616C29.9421 14.2896 29.3891 14.8878 29.4169 15.5976C29.4276 15.8689 29.4303 16.1444 29.4241 16.4155C29.4141 16.8607 29.6319 17.2576 29.9703 17.4962C30.179 17.6432 30.4267 17.7247 30.6819 17.7301C31.392 17.7459 31.9804 17.1827 31.9961 16.4723C32.0032 16.1484 32.0005 15.8202 31.9877 15.4965ZM28.5355 23.9256C27.9661 23.4984 27.1606 23.6144 26.7342 24.1827C26.5703 24.401 26.3998 24.6143 26.2228 24.8223C25.7627 25.3629 25.8277 26.175 26.3683 26.6356C26.3991 26.6617 26.4303 26.6857 26.4626 26.7083C27.0001 27.0872 27.7472 27.0002 28.1818 26.4902C28.393 26.2419 28.5966 25.9872 28.7922 25.7265C29.2187 25.1582 29.1033 24.3521 28.5355 23.9256ZM30.4265 19.2753C29.7486 19.0628 29.0266 19.4401 28.8142 20.118C28.7324 20.3787 28.6428 20.6368 28.5455 20.8921C28.3319 21.4531 28.5366 22.0704 29.0057 22.4012C29.0936 22.4631 29.189 22.5138 29.2895 22.5519C29.9533 22.8051 30.6965 22.4721 30.9495 21.8081C31.0651 21.5045 31.1716 21.1975 31.2691 20.8876C31.4813 20.2096 31.1042 19.4879 30.4265 19.2753ZM13.6199 29.3313C12.4789 29.1272 11.3697 28.7747 10.3202 28.2827C10.3079 28.2762 10.2968 28.2689 10.2838 28.263C10.0365 28.1467 9.79266 28.0232 9.55258 27.8927C9.55175 27.8918 9.55024 27.8912 9.54893 27.8906C9.10796 27.6477 8.6807 27.3806 8.26907 27.0907C2.21769 22.828 0.762691 14.4367 5.02573 8.3854C5.95272 7.07004 7.07451 5.97267 8.32513 5.10292C8.34054 5.09219 8.35595 5.08153 8.37122 5.07073C12.7782 2.03417 18.7623 1.82953 23.4418 4.94987L22.4368 6.40205C22.1574 6.80624 22.3293 7.10079 22.8184 7.05677L27.1842 6.66592C27.6739 6.62189 27.9668 6.19823 27.8351 5.72525L26.6627 1.50127C26.5315 1.02774 26.1955 0.971058 25.9158 1.37519L24.9084 2.8308C21.4742 0.525521 17.3553 -0.353516 13.267 0.355409C12.8578 0.426417 12.4514 0.513153 12.0489 0.615426C12.0458 0.615976 12.0433 0.61632 12.0408 0.616871C12.0254 0.620654 12.0097 0.625675 11.9946 0.629871C8.46924 1.53519 5.3934 3.59132 3.1986 6.52497C3.18009 6.54691 3.16104 6.56838 3.14357 6.59224C3.07024 6.69117 2.99812 6.79099 2.92723 6.89168C2.81079 7.05705 2.69755 7.22465 2.58756 7.39438C2.57387 7.41474 2.56341 7.43544 2.55144 7.45601C0.740266 10.2626 -0.133336 13.5073 0.0164829 16.8106C0.0168269 16.8215 0.0162078 16.8325 0.0164829 16.8436C0.031348 17.1683 0.056307 17.4924 0.0913239 17.8155C0.0931811 17.8363 0.0977899 17.8559 0.101298 17.8767C0.137065 18.2024 0.182899 18.5269 0.238736 18.8497C0.8127 22.161 2.37473 25.1407 4.71537 27.4592C4.7208 27.4646 4.72644 27.4705 4.73194 27.4762C4.73387 27.4783 4.736 27.4794 4.73786 27.4814C5.37271 28.1077 6.05817 28.6805 6.78725 29.1941C8.71468 30.5522 10.8609 31.45 13.1659 31.8636C13.8652 31.9893 14.5333 31.5237 14.6588 30.8247C14.7842 30.1252 14.319 29.4566 13.6199 29.3313Z" fill="white" fill-opacity="0.7"/>
<path d="M15.2102 5.72314C14.6349 5.72314 14.1689 6.18952 14.1689 6.76397V17.1335L23.6527 22.0361C23.8 22.1125 23.9636 22.1524 24.1296 22.1523C24.5063 22.1523 24.8701 21.9472 25.0551 21.5893C25.3189 21.0785 25.1192 20.4509 24.6084 20.1871L16.2503 15.866V6.76397C16.2502 6.18952 15.7848 5.72314 15.2102 5.72314Z" fill="white" fill-opacity="0.7"/>
</g>
<defs>
<clipPath id="clip0_2401_963">
<rect width="32" height="32" fill="white"/>
</clipPath>
</defs>
</svg>
