<svg width="42" height="42" viewBox="0 0 42 42" fill="none" xmlns="http://www.w3.org/2000/svg">
<g opacity="0.7">
<path d="M36.7772 20.7045C36.6874 20.4479 36.5277 20.2216 36.316 20.051C36.1044 19.8804 35.8493 19.7724 35.5796 19.7391C35.1035 19.5897 34.5941 19.5834 34.1145 19.721C33.6349 19.8585 33.2062 20.1339 32.8817 20.5128L28.0931 27.0537C28.0225 27.6872 27.7252 28.2739 27.256 28.7054C26.7869 29.137 26.1775 29.3843 25.5402 29.4017H16.3737C16.1983 29.4017 16.03 29.332 15.906 29.208C15.7819 29.0839 15.7122 28.9157 15.7122 28.7402C15.7122 28.5648 15.7819 28.3965 15.906 28.2725C16.03 28.1484 16.1983 28.0787 16.3737 28.0787H25.5409C25.8932 28.0557 26.2224 27.8952 26.4575 27.6318C26.6926 27.3683 26.8147 27.0231 26.7976 26.6704C26.8307 25.9623 26.5821 25.2699 26.1062 24.7445C25.6303 24.219 24.9659 23.9033 24.2579 23.8663H21.9545C21.9611 23.5631 21.9204 23.2179 21.9433 22.8871C21.7701 17.8012 22.9061 14.8133 17.1947 11.6705C17.0476 11.5813 16.9411 11.4382 16.8981 11.2716C16.855 11.1051 16.8787 10.9283 16.9642 10.7789C17.0496 10.6296 17.19 10.5196 17.3555 10.4723C17.5209 10.4251 17.6982 10.4444 17.8496 10.526C20.8087 12.3386 22.0142 13.4877 22.8765 15.7839C22.9717 16.1363 22.9467 16.2262 23.101 15.8167C23.7474 14.2746 24.0347 12.6057 23.941 10.9362C23.4868 4.95052 13.1817 5.58052 9.57434 2.80852C9.48244 2.72219 9.36786 2.66379 9.244 2.64017C9.12013 2.61655 8.99211 2.62868 8.87489 2.67515C8.75766 2.72161 8.65609 2.80048 8.58204 2.90254C8.508 3.00461 8.46454 3.12564 8.45674 3.25149C7.8438 12.4606 12.4238 18.1595 20.4746 17.2788C20.6282 19.2187 20.6249 22.0078 20.6125 23.8656H13.6496C12.4695 23.8832 11.3137 24.2039 10.2932 24.7969C9.27269 25.3899 8.42178 26.2353 7.82215 27.2519L5.1709 31.5575L8.72121 39.3748L13.2782 36.7563C14.0357 36.2571 14.8825 35.9089 15.772 35.7306L25.1629 34.5736C26.4297 34.3096 27.5696 33.6242 28.3969 32.6292L36.5186 21.8818C36.6578 21.7234 36.7545 21.5323 36.7996 21.3264C36.8447 21.1205 36.8374 20.9065 36.7772 20.7045Z" fill="white"/>
<path d="M23.9473 17.2111C28.8934 17.4539 31.6779 13.5072 31.2625 7.84638C31.2565 7.71956 31.2141 7.59714 31.1403 7.49382C31.0665 7.39049 30.9645 7.31063 30.8465 7.26381C30.7285 7.21699 30.5994 7.2052 30.4749 7.22984C30.3503 7.25448 30.2355 7.31452 30.1442 7.40276C29.6553 7.87263 28.167 8.27557 26.7317 8.66604C26.1138 8.82925 25.4988 9.0034 24.887 9.18841C25.0761 9.70706 25.2005 10.2471 25.2571 10.7962C25.4625 13.5617 24.6908 15.4307 23.9473 17.2111Z" fill="white"/>
</g>
</svg>
