<svg width="42" height="42" viewBox="0 0 42 42" fill="none" xmlns="http://www.w3.org/2000/svg">
<path d="M2.20984 9.03564H36.7307C37.3167 9.03571 37.8787 9.26855 38.2931 9.68295C38.7075 10.0974 38.9402 10.6594 38.9402 11.2454V33.5087C38.9402 34.0948 38.7074 34.6569 38.293 35.0713C37.8786 35.4857 37.3165 35.7185 36.7304 35.7185H2.20976C1.62375 35.7185 1.06174 35.4858 0.647339 35.0714C0.232939 34.6571 8.70401e-05 34.0951 2.43628e-08 33.5091V11.2458C-4.30697e-05 10.9556 0.0570843 10.6682 0.16812 10.4C0.279155 10.1319 0.441924 9.88824 0.647131 9.68301C0.852338 9.47777 1.09596 9.31496 1.36409 9.20389C1.63223 9.09281 1.91961 9.03564 2.20984 9.03564Z" fill="#E57E25"/>
<path d="M38.0438 35.2473C38.3226 35.0342 38.5484 34.7596 38.7037 34.4449C38.8591 34.1303 38.9397 33.784 38.9394 33.4331V11.3214C38.9394 10.7152 38.6987 10.1339 38.2701 9.70523C37.8415 9.27659 37.2602 9.03573 36.654 9.03564H14.5371L37.9968 35.23L38.0438 35.2473Z" fill="#F29C1F"/>
<path d="M24.4026 9.03564H2.28572C1.67951 9.03564 1.09813 9.27646 0.669472 9.70512C0.240817 10.1338 7.97184e-07 10.7152 7.97184e-07 11.3214V33.4331C-0.000283726 33.7735 0.0755973 34.1096 0.222082 34.4168C0.368566 34.724 0.58194 34.9945 0.846563 35.2085L0.942868 35.23L24.4026 9.03564Z" fill="#F29C1F"/>
<path d="M36.6548 9.03564H2.28572C1.67951 9.03564 1.09813 9.27646 0.669472 9.70512C0.240816 10.1338 0 10.7152 0 11.3214L0 12.2L16.4944 23.5658C17.3696 24.1689 18.4074 24.4918 19.4703 24.4918C20.5332 24.4918 21.571 24.1689 22.4462 23.5658L38.9402 12.2V11.3214C38.9402 10.7152 38.6995 10.1339 38.2709 9.70523C37.8423 9.27659 37.261 9.03573 36.6548 9.03564Z" fill="#F0C419"/>
</svg>
