<svg width="35" height="35" viewBox="0 0 35 35" fill="none" xmlns="http://www.w3.org/2000/svg">
<path d="M14.5397 8.13286L15.418 10.5719C15.8999 11.909 16.6709 13.1234 17.6759 14.1284C18.6809 15.1334 19.8952 15.9044 21.2324 16.3863L23.6714 17.2646C23.7196 17.2822 23.7612 17.3143 23.7905 17.3563C23.8199 17.3984 23.8357 17.4484 23.8357 17.4997C23.8357 17.551 23.8199 17.6011 23.7905 17.6432C23.7612 17.6852 23.7196 17.7172 23.6714 17.7349L21.2324 18.6132C19.8952 19.0951 18.6809 19.866 17.6759 20.8711C16.6709 21.8761 15.8999 23.0904 15.418 24.4275L14.5397 26.8666C14.522 26.9148 14.49 26.9564 14.448 26.9857C14.4059 27.0151 14.3558 27.0308 14.3045 27.0308C14.2533 27.0308 14.2032 27.0151 14.1611 26.9857C14.1191 26.9564 14.0871 26.9148 14.0694 26.8666L13.1911 24.4275C12.7092 23.0904 11.9382 21.8761 10.9332 20.8711C9.9282 19.866 8.71386 19.0951 7.37674 18.6132L4.93767 17.7349C4.88951 17.7172 4.84793 17.6852 4.81856 17.6432C4.78919 17.6011 4.77344 17.551 4.77344 17.4997C4.77344 17.4484 4.78919 17.3984 4.81856 17.3563C4.84793 17.3143 4.88951 17.2822 4.93767 17.2646L7.37674 16.3863C8.71386 15.9044 9.9282 15.1334 10.9332 14.1284C11.9382 13.1234 12.7092 11.909 13.1911 10.5719L14.0694 8.13286C14.0866 8.08421 14.1184 8.04209 14.1605 8.01229C14.2026 7.98249 14.253 7.96649 14.3045 7.96649C14.3561 7.96649 14.4065 7.98249 14.4486 8.01229C14.4907 8.04209 14.5225 8.08421 14.5397 8.13286ZM25.5188 2.27146L25.9639 3.5063C26.2082 4.1833 26.5986 4.79814 27.1075 5.30705C27.6165 5.81596 28.2313 6.20643 28.9083 6.45068L30.1431 6.89583C30.1676 6.90474 30.1887 6.92096 30.2037 6.94228C30.2186 6.96361 30.2266 6.98902 30.2266 7.01505C30.2266 7.04109 30.2186 7.06649 30.2037 7.08782C30.1887 7.10914 30.1676 7.12536 30.1431 7.13427L28.9083 7.57943C28.2313 7.82367 27.6165 8.21414 27.1075 8.72305C26.5986 9.23196 26.2082 9.8468 25.9639 10.5238L25.5188 11.7586C25.5099 11.7831 25.4936 11.8042 25.4723 11.8192C25.451 11.8341 25.4256 11.8421 25.3995 11.8421C25.3735 11.8421 25.3481 11.8341 25.3268 11.8192C25.3055 11.8042 25.2892 11.7831 25.2803 11.7586L24.8352 10.5238C24.5909 9.8468 24.2005 9.23196 23.6915 8.72305C23.1826 8.21414 22.5678 7.82367 21.8908 7.57943L20.656 7.13427C20.6315 7.12536 20.6104 7.10914 20.5954 7.08782C20.5805 7.06649 20.5725 7.04109 20.5725 7.01505C20.5725 6.98902 20.5805 6.96361 20.5954 6.94228C20.6104 6.92096 20.6315 6.90474 20.656 6.89583L21.8908 6.45068C22.5678 6.20643 23.1826 5.81596 23.6915 5.30705C24.2005 4.79814 24.5909 4.1833 24.8352 3.5063L25.2803 2.27146C25.2892 2.24699 25.3055 2.22586 25.3268 2.21093C25.3481 2.196 25.3735 2.18799 25.3995 2.18799C25.4256 2.18799 25.451 2.196 25.4723 2.21093C25.4936 2.22586 25.5099 2.24699 25.5188 2.27146ZM25.5188 23.2419L25.9639 24.4768C26.2082 25.1538 26.5986 25.7686 27.1075 26.2775C27.6165 26.7864 28.2313 27.1769 28.9083 27.4211L30.1431 27.8663C30.1676 27.8752 30.1887 27.8914 30.2037 27.9128C30.2186 27.9341 30.2266 27.9595 30.2266 27.9855C30.2266 28.0116 30.2186 28.037 30.2037 28.0583C30.1887 28.0796 30.1676 28.0958 30.1431 28.1047L28.9083 28.5499C28.2313 28.7941 27.6165 29.1846 27.1075 29.6935C26.5986 30.2024 26.2082 30.8173 25.9639 31.4943L25.5188 32.7291C25.5099 32.7536 25.4936 32.7747 25.4723 32.7896C25.451 32.8046 25.4256 32.8126 25.3995 32.8126C25.3735 32.8126 25.3481 32.8046 25.3268 32.7896C25.3055 32.7747 25.2892 32.7536 25.2803 32.7291L24.8352 31.4943C24.5909 30.8173 24.2005 30.2024 23.6915 29.6935C23.1826 29.1846 22.5678 28.7941 21.8908 28.5499L20.656 28.1047C20.6315 28.0958 20.6104 28.0796 20.5954 28.0583C20.5805 28.037 20.5725 28.0116 20.5725 27.9855C20.5725 27.9595 20.5805 27.9341 20.5954 27.9128C20.6104 27.8914 20.6315 27.8752 20.656 27.8663L21.8908 27.4211C22.5678 27.1769 23.1826 26.7864 23.6915 26.2775C24.2005 25.7686 24.5909 25.1538 24.8352 24.4768L25.2803 23.2419C25.3208 23.1304 25.4794 23.1304 25.5188 23.2419Z" fill="#059669"/>
</svg>
