<svg width="61" height="62" viewBox="0 0 61 62" fill="none" xmlns="http://www.w3.org/2000/svg">
<path d="M54.3334 31.1667C54.3334 44.5225 43.5225 55.3333 30.1667 55.3333C25.4413 55.3422 20.8182 53.9582 16.875 51.3542L10.9942 53.5617C8.98004 54.3192 7.01504 52.3533 7.77171 50.3392L9.97921 44.4583C7.37519 40.5152 5.99114 35.892 6.00004 31.1667C6.00004 17.8108 16.8109 7 30.1667 7C43.5225 7 54.3334 17.8108 54.3334 31.1667Z" fill="#0284C7"/>
<path d="M30.167 4C45.1796 4.00015 57.333 16.1544 57.333 31.167C57.3328 46.1778 45.1821 58.3292 30.1719 58.332L30.1729 58.333C30.1714 58.333 30.1694 58.332 30.168 58.332L30.167 58.333V58.332C25.3758 58.3401 20.6787 57.0754 16.5508 54.6797L12.0488 56.3691L12.0498 56.3701C7.62068 58.0354 3.30081 53.7089 4.96289 49.2842L6.65234 44.7822C4.25613 40.653 2.99099 35.9538 3 31.1611C3.00299 16.151 15.1561 4 30.167 4Z" stroke="white" stroke-opacity="0.09" stroke-width="6"/>
<path d="M32.25 22C34.3211 22 36 20.3211 36 18.25C36 16.1789 34.3211 14.5 32.25 14.5C30.1789 14.5 28.5 16.1789 28.5 18.25C28.5 20.3211 30.1789 22 32.25 22Z" fill="white"/>
<path d="M26.7477 31.7127C26.801 31.5518 26.8285 31.3843 26.8285 31.2152C26.8285 30.206 25.8835 29.4385 24.8993 29.6785C24.2993 29.8252 23.7702 30.0102 23.3843 30.1618C23.2985 30.1961 23.2066 30.2126 23.1142 30.2101C23.0218 30.2077 22.9308 30.1865 22.8469 30.1477C22.763 30.1089 22.6878 30.0535 22.6261 29.9847C22.5643 29.9159 22.5172 29.8353 22.4877 29.7477L21.8685 27.8977C21.8178 27.7476 21.8215 27.5845 21.8791 27.437C21.9367 27.2894 22.0445 27.1669 22.1835 27.091C23.2068 26.5277 25.7452 25.3335 28.8818 25.3335H29.0043C32.3485 25.3668 34.7369 28.5918 33.926 31.8243L31.0868 41.4543C31.0334 41.6148 31.0062 41.7827 31.006 41.9518C31.006 42.961 31.951 43.7285 32.9352 43.4885C33.5352 43.3418 34.0643 43.1568 34.4502 43.0052C34.536 42.9709 34.628 42.9544 34.7204 42.9569C34.8128 42.9593 34.9037 42.9805 34.9876 43.0193C35.0716 43.0581 35.1467 43.1135 35.2085 43.1823C35.2702 43.2511 35.3173 43.3317 35.3468 43.4193L35.966 45.2693C36.0168 45.4194 36.013 45.5825 35.9554 45.73C35.8978 45.8776 35.79 46.0001 35.651 46.076C34.6277 46.6393 32.0893 47.8335 28.9527 47.8335H28.8302C25.486 47.8002 23.0977 44.5752 23.9085 41.3427L26.7477 31.7127Z" fill="white"/>
</svg>
