<svg width="42" height="42" viewBox="0 0 42 42" fill="none" xmlns="http://www.w3.org/2000/svg">
<g opacity="0.7">
<path d="M34.8639 9.17062C33.6675 9.17167 32.5204 9.64741 31.6744 10.4934C30.8284 11.3394 30.3526 12.4866 30.3516 13.683C30.3516 14.6779 30.6849 15.5901 31.2322 16.3369L28.1479 20.4476L24.1185 12.4939C24.5581 12.0749 24.9082 11.5712 25.1476 11.013C25.3869 10.4549 25.5106 9.85404 25.5111 9.24675C25.5111 6.75825 23.4885 4.73438 21 4.73438C18.5115 4.73438 16.4876 6.75825 16.4876 9.24675C16.4876 10.5238 17.0258 11.6722 17.8828 12.4939L13.8521 20.4476L10.7678 16.3369C11.3375 15.5692 11.6462 14.639 11.6484 13.683C11.6484 11.1945 9.62456 9.17062 7.13606 9.17062C4.64756 9.17062 2.625 11.1958 2.625 13.683C2.625 15.9011 4.23544 17.7386 6.34725 18.114L7.875 30.8584C7.91291 31.1774 8.06652 31.4714 8.30672 31.6848C8.54692 31.8982 8.85704 32.016 9.17831 32.016H32.8191C33.1401 32.016 33.4501 31.8984 33.6903 31.6853C33.9304 31.4722 34.0842 31.1785 34.1224 30.8597L35.6514 18.1153C36.6936 17.9305 37.6376 17.3852 38.3183 16.5747C38.9991 15.7642 39.3731 14.7401 39.375 13.6817C39.374 12.4853 38.8982 11.3381 38.0522 10.4921C37.2062 9.6461 36.0591 9.17036 34.8626 9.16931L34.8639 9.17062ZM32.8204 37.266C33.1685 37.266 33.5023 37.1277 33.7485 36.8816C33.9946 36.6354 34.1329 36.3016 34.1329 35.9535C34.1329 35.6054 33.9946 35.2716 33.7485 35.0254C33.5023 34.7793 33.1685 34.641 32.8204 34.641H9.17962C8.83153 34.641 8.49769 34.7793 8.25155 35.0254C8.00541 35.2716 7.86712 35.6054 7.86712 35.9535C7.86712 36.3016 8.00541 36.6354 8.25155 36.8816C8.49769 37.1277 8.83153 37.266 9.17962 37.266H32.8204Z" fill="white"/>
</g>
</svg>
