<svg width="48" height="48" viewBox="0 0 48 48" fill="none" xmlns="http://www.w3.org/2000/svg">
<g clip-path="url(#clip0_2401_780)">
<path d="M41.8046 29.8066C41.7591 29.3018 41.6957 28.7988 41.6145 28.2984L35.5313 28.2986L38.6553 20.2954L35.4565 15.0775C34.9925 14.3221 34.6992 13.4743 34.5972 12.5936C34.4952 11.7129 34.587 10.8205 34.8662 9.97903L37.5556 1.84781C37.6255 1.63653 37.6443 1.41166 37.6104 1.19171C37.5764 0.971752 37.4908 0.762993 37.3604 0.582598C37.2301 0.402203 37.0588 0.255325 36.8606 0.154042C36.6625 0.0527585 36.4431 -3.59453e-05 36.2205 1.83616e-08H11.7795C11.557 5.13293e-06 11.3376 0.0528263 11.1395 0.154121C10.9413 0.255416 10.77 0.402292 10.6397 0.582676C10.5094 0.763059 10.4237 0.971799 10.3898 1.19174C10.3558 1.41167 10.3745 1.63653 10.4444 1.84781L13.1338 9.97913C13.413 10.8206 13.5049 11.713 13.4029 12.5937C13.3009 13.4744 13.0076 14.3222 12.5435 15.0776L9.34474 20.2954L9.35749 20.2746L12.4688 28.2988L6.38645 28.2991C6.30481 28.7992 6.24108 29.302 6.19539 29.8066C5.89436 33.1592 6.38017 36.5896 7.60005 39.7267L10.4689 47.1035C10.5716 47.3676 10.7517 47.5945 10.9855 47.7544C11.2194 47.9144 11.4962 48 11.7795 48H36.2204C36.5038 48 36.7805 47.9144 37.0144 47.7544C37.2483 47.5944 37.4283 47.3676 37.531 47.1035L40.3999 39.7267C41.6199 36.5895 42.1057 33.1591 41.8046 29.8066Z" fill="#FFDDCE"/>
<path d="M41.8046 29.8066C41.7591 29.3018 41.6956 28.7988 41.6145 28.2984L35.5312 28.2986L38.6553 20.2954L35.4565 15.0775C34.9924 14.3221 34.6991 13.4743 34.5972 12.5936C34.4952 11.7129 34.587 10.8205 34.8662 9.97903L37.5556 1.84781C37.6255 1.63653 37.6443 1.41166 37.6104 1.19171C37.5764 0.971752 37.4908 0.762993 37.3604 0.582598C37.2301 0.402203 37.0588 0.255325 36.8606 0.154042C36.6624 0.0527585 36.4431 -3.59453e-05 36.2205 1.83616e-08H24V48H36.2205C36.5038 48 36.7806 47.9144 37.0145 47.7544C37.2483 47.5944 37.4284 47.3676 37.5311 47.1035L40.4 39.7267C41.6198 36.5895 42.1057 33.1591 41.8046 29.8066Z" fill="#FFCBBC"/>
<path d="M25.4062 31.5C25.4062 30.7234 24.7766 30.0938 24 30.0938C23.2234 30.0938 22.5938 30.7234 22.5938 31.5V48H25.4062V31.5Z" fill="#FFCBBC"/>
<path d="M25.4062 48V31.5C25.4062 30.7234 24.7766 30.0938 24 30.0938V48H25.4062Z" fill="#FFBCA7"/>
<path d="M38.6552 20.2955L38.6425 20.2747L37.4083 21.0069C29.5137 25.6906 18.4861 25.6906 10.5915 21.0069L9.35732 20.2747L9.34457 20.2955C7.85001 22.7333 6.84135 25.4741 6.38647 28.2992L19.7842 37.3362C21.0289 38.1778 22.4974 38.6267 23.9999 38.6251C25.5077 38.6251 26.9655 38.1794 28.2158 37.3362L41.6134 28.2992C41.1584 25.4741 40.1498 22.7333 38.6552 20.2955Z" fill="#24B689"/>
<path d="M28.2157 37.3362L41.6134 28.2992C41.1585 25.4741 40.1498 22.7333 38.6553 20.2955L38.6425 20.2747L37.4083 21.0069C33.4611 23.3487 28.7305 24.5197 24 24.5197V38.6251C25.5077 38.6251 26.9655 38.1794 28.2157 37.3362Z" fill="#059669"/>
<path d="M24 21.75C24.7767 21.75 25.4062 21.1204 25.4062 20.3438C25.4062 19.5671 24.7767 18.9375 24 18.9375C23.2233 18.9375 22.5938 19.5671 22.5938 20.3438C22.5938 21.1204 23.2233 21.75 24 21.75Z" fill="#FFCBBC"/>
<path d="M25.4062 20.3438C25.4062 19.5671 24.7766 18.9375 24 18.9375V21.75C24.7766 21.75 25.4062 21.1204 25.4062 20.3438Z" fill="#FFBCA7"/>
<path d="M46.5937 10.5H42.9574L43.3694 10.088C43.9185 9.53895 43.9185 8.64851 43.3694 8.09932C42.8203 7.55023 41.9298 7.55023 41.3806 8.09932L38.5681 10.9118C38.019 11.4609 38.019 12.3514 38.5681 12.9005L41.3806 15.713C41.6551 15.9876 42.015 16.125 42.375 16.125C42.7349 16.125 43.0948 15.9876 43.3693 15.713C43.9185 15.1639 43.9185 14.2735 43.3693 13.7243L42.9574 13.3125H46.5937C47.3703 13.3125 48 12.6829 48 11.9062C48 11.1296 47.3703 10.5 46.5937 10.5Z" fill="#059669"/>
<path d="M9.43181 10.9121L6.61931 8.09956C6.07022 7.55047 5.17978 7.55047 4.63059 8.09956C4.08141 8.64866 4.08141 9.5391 4.63059 10.0883L5.04253 10.5001H1.40625C0.629625 10.5001 0 11.1298 0 11.9064C0 12.683 0.629625 13.3126 1.40625 13.3126H5.04253L4.63059 13.7246C4.08141 14.2737 4.08141 15.1641 4.63059 15.7133C4.90519 15.9878 5.26509 16.1251 5.625 16.1251C5.98491 16.1251 6.34481 15.9878 6.61931 15.7132L9.43181 12.9007C9.98109 12.3516 9.98109 11.4612 9.43181 10.9121Z" fill="#059669"/>
</g>
<defs>
<clipPath id="clip0_2401_780">
<rect width="48" height="48" fill="white"/>
</clipPath>
</defs>
</svg>
