<svg width="48" height="48" viewBox="0 0 48 48" fill="none" xmlns="http://www.w3.org/2000/svg">
<g clip-path="url(#clip0_2401_850)">
<path d="M37.0973 6.83494C37.0973 3.06009 34.0372 0 30.2624 0C27.6326 0 25.3497 1.48519 24.2067 3.66263C24.1188 3.83025 23.8815 3.83025 23.7936 3.66263C22.6506 1.48519 20.3676 0 17.7378 0C13.9629 0 10.9028 3.06009 10.9028 6.83494C10.9028 14.2917 22.5646 21.5604 23.8798 22.3565C23.9539 22.4013 24.0462 22.4013 24.1203 22.3565C25.4355 21.5604 37.0973 14.2917 37.0973 6.83494Z" fill="#E28086"/>
<path d="M31.2301 0.0681152C32.4683 1.30515 33.2344 3.01486 33.2344 4.90346C33.2344 11.8598 23.0852 18.6526 20.6553 20.1792C22.2435 21.3482 23.4981 22.1254 23.8801 22.3566C23.9541 22.4014 24.0465 22.4014 24.1206 22.3566C25.4358 21.5606 37.0975 14.2919 37.0975 6.83508C37.0975 3.38865 34.5467 0.538084 31.2301 0.0681152Z" fill="#DD636E"/>
<path d="M6.07253 10.4699H3.34721C2.63134 10.4699 2.05103 9.8896 2.05103 9.17373C2.05103 8.45785 2.63134 7.87754 3.34721 7.87754H6.07243C6.78831 7.87754 7.36862 8.45785 7.36862 9.17373C7.36862 9.8896 6.78831 10.4699 6.07253 10.4699ZM7.42224 16.0153L4.86137 16.9474C4.18871 17.1923 3.4449 16.8454 3.20012 16.1727C2.95524 15.5001 3.30212 14.7563 3.97478 14.5115L6.53565 13.5794C7.20831 13.3345 7.95212 13.6814 8.1969 14.3541C8.44178 15.0267 8.0949 15.7704 7.42224 16.0153ZM7.42224 2.33213L4.86137 1.40007C4.18871 1.1552 3.4449 1.50207 3.20012 2.17473C2.95524 2.84738 3.30212 3.5912 3.97478 3.83598L6.53565 4.76804C7.20831 5.01291 7.95212 4.66604 8.1969 3.99338C8.44178 3.32082 8.0949 2.57701 7.42224 2.33213ZM41.928 10.4699H44.6532C45.3691 10.4699 45.9494 9.8896 45.9494 9.17373C45.9494 8.45785 45.3691 7.87754 44.6532 7.87754H41.928C41.2121 7.87754 40.6318 8.45785 40.6318 9.17373C40.6319 9.8896 41.2122 10.4699 41.928 10.4699ZM40.5782 16.0153L43.1391 16.9474C43.8118 17.1923 44.5556 16.8454 44.8004 16.1727C45.0452 15.5001 44.6984 14.7563 44.0257 14.5115L41.4648 13.5794C40.7922 13.3345 40.0484 13.6814 39.8036 14.3541C39.5587 15.0267 39.9056 15.7704 40.5782 16.0153ZM40.5782 2.33213L43.1391 1.40007C43.8118 1.1552 44.5556 1.50207 44.8004 2.17473C45.0452 2.84738 44.6984 3.5912 44.0257 3.83598L41.4648 4.76804C40.7922 5.01291 40.0484 4.66604 39.8036 3.99338C39.5587 3.32082 39.9056 2.57701 40.5782 2.33213Z" fill="#059669"/>
<path d="M39.1516 31.0752C39.1516 31.0752 40.1042 24.2237 40.1147 24.1902C38.7791 23.8898 37.433 24.6947 37.0754 26.029L35.6438 31.372C35.4922 31.9375 35.1222 32.4197 34.6152 32.7125L39.1516 31.0752Z" fill="#DF9380"/>
<path d="M43.2491 22.4842C41.8737 22.1029 40.4539 22.9159 40.0852 24.2917L38.6535 29.6348C38.502 30.2003 38.132 30.6824 37.625 30.9752L42.2607 29.7802L43.2491 22.4842Z" fill="#EAAC9D"/>
<path d="M47.9716 22.029C48.0771 21.6353 47.8767 21.2192 47.4986 21.0669C45.5442 20.2801 43.4062 21.39 42.8779 23.3613L41.6626 27.897C41.5876 28.177 41.4581 28.4395 41.2817 28.6695C41.1052 28.8995 40.8851 29.0924 40.6341 29.2374L32.3251 34.0345C31.7305 34.3779 31.0177 33.8308 31.1953 33.1676L31.8236 30.8229C32.3174 28.9802 31.2256 27.0862 29.3846 26.5893C28.8175 26.4362 28.2302 26.7709 28.0781 27.3383L25.9622 35.2351C25.4945 36.9807 25.2576 38.78 25.2576 40.5872V47.8947C25.2576 47.9528 25.3046 47.9998 25.3627 47.9998H33.3968C33.4548 47.9998 33.5018 47.9528 33.5018 47.8947V44.8566C33.5018 44.0751 33.6565 43.3014 33.9569 42.58C34.2573 41.8586 34.6975 41.2038 35.2522 40.6533L44.9154 31.0622C45.4828 30.499 45.8907 29.7955 46.0976 29.0233L47.9716 22.029Z" fill="#FFCBBE"/>
<path d="M8.84835 31.0752C8.84835 31.0752 7.89575 24.2237 7.88525 24.1902C9.22082 23.8898 10.567 24.6947 10.9245 26.029L12.3562 31.372C12.5077 31.9375 12.8777 32.4197 13.3847 32.7125L8.84835 31.0752Z" fill="#DF9380"/>
<path d="M4.75146 22.4842C6.12687 22.1029 7.54662 22.9159 7.91534 24.2917L9.347 29.6348C9.49855 30.2003 9.86852 30.6824 10.3755 30.9752L5.73978 29.7802L4.75146 22.4842Z" fill="#EAAC9D"/>
<path d="M0.028708 22.029C-0.0767607 21.6353 0.123583 21.2192 0.501677 21.0669C2.45608 20.2801 4.59415 21.39 5.12233 23.3613L6.33771 27.897C6.41273 28.177 6.54218 28.4395 6.71866 28.6695C6.89513 28.8995 7.11518 29.0924 7.36624 29.2374L15.6752 34.0345C16.2698 34.3779 16.9826 33.8308 16.805 33.1676L16.1767 30.8229C15.6829 28.9802 16.7747 27.0862 18.6157 26.5893C19.1828 26.4362 19.7701 26.7709 19.9222 27.3383L22.0381 35.2351C22.5058 36.9807 22.7427 38.78 22.7427 40.5872V47.8947C22.7427 47.9528 22.6957 47.9998 22.6376 47.9998H14.6036C14.5758 47.9998 14.549 47.9888 14.5293 47.969C14.5096 47.9493 14.4986 47.9226 14.4986 47.8947V44.8566C14.4986 44.0751 14.3439 43.3014 14.0435 42.58C13.7431 41.8586 13.3029 41.2038 12.7482 40.6533L3.08505 31.0623C2.51765 30.4991 2.10969 29.7956 1.90277 29.0234L0.028708 22.029Z" fill="#FFCBBE"/>
</g>
<defs>
<clipPath id="clip0_2401_850">
<rect width="48" height="48" fill="white"/>
</clipPath>
</defs>
</svg>
