<svg width="24" height="24" viewBox="0 0 24 24" fill="none" xmlns="http://www.w3.org/2000/svg">
<path d="M16.1007 10.0932L5.77149 3.2074C5.42637 2.97742 5.02532 2.8454 4.61107 2.82542C4.19683 2.80543 3.78493 2.89824 3.41928 3.09393C3.05363 3.28963 2.74794 3.58089 2.5348 3.93665C2.32165 4.29241 2.20905 4.69934 2.20899 5.11407V18.8857C2.20848 19.3007 2.32074 19.708 2.53376 20.0641C2.74678 20.4202 3.05255 20.7117 3.4184 20.9075C3.78425 21.1033 4.19642 21.196 4.61088 21.1758C5.02534 21.1555 5.4265 21.023 5.77149 20.7924L16.1048 13.9066C16.4189 13.6974 16.6764 13.4139 16.8545 13.0813C17.0326 12.7487 17.1258 12.3772 17.1258 11.9999C17.1258 11.6226 17.0326 11.2511 16.8545 10.9185C16.6764 10.5859 16.4189 10.3024 16.1048 10.0932H16.1007ZM19.9173 3.04157C19.4202 3.04223 18.9437 3.23999 18.5922 3.59147C18.2407 3.94296 18.043 4.41949 18.0423 4.91657V19.0832C18.0423 19.5805 18.2399 20.0574 18.5915 20.4091C18.9431 20.7607 19.42 20.9582 19.9173 20.9582C20.4146 20.9582 20.8915 20.7607 21.2431 20.4091C21.5948 20.0574 21.7923 19.5805 21.7923 19.0832V4.91657C21.7917 4.41949 21.5939 3.94296 21.2424 3.59147C20.8909 3.23999 20.4144 3.04223 19.9173 3.04157Z" fill="white"/>
</svg>
