<svg width="24" height="24" viewBox="0 0 24 24" fill="none" xmlns="http://www.w3.org/2000/svg">
<path d="M16.9457 18.0358C10.8811 18.0358 5.96542 13.1193 5.96542 7.05479C5.96542 5.6059 6.2469 4.22358 6.75745 2.95805C7.1327 2.02792 6.2605 0.948928 5.4289 1.50965C2.15468 3.71738 0.000767507 7.45822 0.000767507 11.7046C0.000767507 18.4954 5.50512 23.9997 12.2959 23.9997C16.5417 23.9997 20.2821 21.8464 22.49 18.5729C23.0509 17.7412 21.9715 16.8688 21.0413 17.244C19.7759 17.7545 18.3938 18.0358 16.9457 18.0358Z" fill="#FFD93B"/>
<path d="M4.69685 2.05444C3.05238 4.14384 2.06416 6.77422 2.06416 9.64051C2.06416 16.4312 7.56852 21.9356 14.3592 21.9356C17.2255 21.9356 19.8559 20.9474 21.9453 19.3029C19.6953 22.1592 16.2135 23.9996 12.2952 23.9996C5.50448 23.9996 0.000127417 18.4953 0.000127417 11.7045C0.000127417 7.78626 1.84055 4.30521 4.69685 2.05444Z" fill="#F4C534"/>
</svg>
