<svg width="20" height="20" viewBox="0 0 20 20" fill="none" xmlns="http://www.w3.org/2000/svg">
<g clip-path="url(#clip0_2401_1074)">
<path d="M18.334 9.06833C18.113 9.06833 17.901 8.98054 17.7447 8.82426C17.5884 8.66797 17.5007 8.45601 17.5007 8.235C17.5007 5.8975 16.5907 3.70083 14.9382 2.0475C14.7819 1.89124 14.6941 1.67931 14.6941 1.45833C14.6941 1.23735 14.7819 1.02542 14.9382 0.869167C15.0944 0.71291 15.3063 0.625126 15.5273 0.625126C15.7483 0.625126 15.9602 0.71291 16.1165 0.869167C17.0868 1.83421 17.8561 2.98214 18.3797 4.24649C18.9034 5.51083 19.1711 6.8665 19.1673 8.235C19.1673 8.45601 19.0795 8.66797 18.9232 8.82426C18.767 8.98054 18.555 9.06833 18.334 9.06833ZM1.66732 9.06833C1.4463 9.06833 1.23434 8.98054 1.07806 8.82426C0.921782 8.66797 0.833984 8.45601 0.833984 8.235C0.833984 5.4525 1.91732 2.83667 3.88482 0.869167C4.04107 0.71291 4.253 0.625126 4.47398 0.625126C4.69496 0.625126 4.90689 0.71291 5.06315 0.869167C5.21941 1.02542 5.30719 1.23735 5.30719 1.45833C5.30719 1.67931 5.21941 1.89124 5.06315 2.0475C4.24814 2.8582 3.60201 3.8225 3.16215 4.88459C2.7223 5.94667 2.49746 7.08544 2.50065 8.235C2.50065 8.45601 2.41285 8.66797 2.25657 8.82426C2.10029 8.98054 1.88833 9.06833 1.66732 9.06833ZM17.8165 14.0942C17.1948 13.5697 16.6953 12.9157 16.3529 12.178C16.0104 11.4403 15.8333 10.6367 15.834 9.82333V7.5C15.834 4.5675 13.6557 2.14 10.834 1.73333V0.833333C10.834 0.61232 10.7462 0.400358 10.5899 0.244078C10.4336 0.0877974 10.2217 0 10.0007 0C9.77964 0 9.56768 0.0877974 9.4114 0.244078C9.25512 0.400358 9.16732 0.61232 9.16732 0.833333V1.73333C6.34482 2.14 4.16732 4.5675 4.16732 7.5V9.82333C4.16764 10.6383 3.98968 11.4435 3.64591 12.1824C3.30215 12.9213 2.8009 13.5761 2.17732 14.1008C1.95195 14.2951 1.79132 14.5536 1.71694 14.8417C1.64256 15.1298 1.65797 15.4337 1.76113 15.7128C1.86428 15.9919 2.05024 16.2328 2.29411 16.4033C2.53798 16.5738 2.82811 16.6657 3.12565 16.6667H16.8757C17.6798 16.6667 18.334 16.0125 18.334 15.2083C18.334 14.7817 18.1482 14.3783 17.8165 14.0942ZM10.0007 20C10.7207 19.999 11.4183 19.7498 11.976 19.2944C12.5337 18.839 12.9174 18.2053 13.0623 17.5H6.93898C7.08391 18.2053 7.46756 18.839 8.02527 19.2944C8.58297 19.7498 9.28064 19.999 10.0007 20Z" fill="white"/>
</g>
<defs>
<clipPath id="clip0_2401_1074">
<rect width="20" height="20" fill="white"/>
</clipPath>
</defs>
</svg>
