<svg width="55" height="56" viewBox="0 0 55 56" fill="none" xmlns="http://www.w3.org/2000/svg">
<g clip-path="url(#clip0_2401_1081)">
<path d="M11.2041 34.649L11.3834 34.8017L11.3806 34.5637L11.3798 34.5464C11.3795 33.1671 12.4757 32.0511 13.823 32.0511C14.0701 32.0511 14.3141 32.0886 14.5483 32.1625L14.7656 32.2312L14.6794 32.0167C14.559 31.7183 14.4972 31.3987 14.4973 31.076C14.4973 30.3088 14.8403 29.6219 15.3781 29.1651C14.6463 28.5372 13.7019 28.1582 12.6701 28.1582C10.3476 28.1582 8.46484 30.0752 8.46484 32.4399C8.46484 32.8704 8.5279 33.2857 8.64402 33.6776C9.58136 33.6938 10.4849 34.0367 11.2041 34.649Z" fill="#FD4755"/>
<path d="M11.1995 34.505C10.8565 33.8728 10.6772 33.1621 10.6782 32.4399C10.6782 30.4654 11.9914 28.8038 13.7767 28.3091C13.4161 28.209 13.0439 28.1582 12.6701 28.1582C10.3476 28.1582 8.46484 30.0752 8.46484 32.4399C8.46484 32.8304 8.51716 33.2082 8.6133 33.5676C9.5917 33.5762 10.4892 33.9262 11.1995 34.505Z" fill="#FB2B3A"/>
<path d="M9.67623 40.1212C9.40077 39.7091 9.25372 39.222 9.25428 38.7235C9.25428 37.3517 10.3505 36.2355 11.6979 36.2355C11.7197 36.2355 11.7411 36.237 11.7626 36.2385L11.8072 36.2413L12.0396 36.2518L11.8966 36.0649C11.5873 35.6627 11.4086 35.1726 11.3852 34.6623C10.6406 33.9813 9.65615 33.5664 8.57634 33.5664C6.25388 33.5664 4.3711 35.4834 4.3711 37.8481C4.37011 38.6524 4.59275 39.4405 5.01327 40.1212H9.67623Z" fill="#FDB441"/>
<path d="M7.04375 40.0119C6.8403 39.502 6.73575 38.9568 6.73588 38.4065C6.73588 36.135 8.47332 34.2777 10.6688 34.1347C10.0324 33.7616 9.31072 33.5656 8.57634 33.5664C6.25388 33.5664 4.3711 35.4834 4.3711 37.8481C4.37026 38.6089 4.56947 39.3561 4.94806 40.012H7.04375V40.0119Z" fill="#FE9901"/>
<path d="M36.1992 28.0959C36.3214 28.3902 36.3862 28.7059 36.3899 29.0254L36.3925 29.2452L36.5632 29.1105C36.9962 28.7684 37.5131 28.5876 38.0577 28.5876C39.4051 28.5876 40.5013 29.7037 40.5013 31.0756C40.5013 31.3532 40.4534 31.6249 40.3643 31.8866C40.4564 31.774 40.5671 31.6788 40.6915 31.6052C40.8816 31.4935 41.0991 31.4368 41.3379 31.4368C41.6822 31.4368 42.0683 31.5564 42.4545 31.783L42.5951 31.8655L42.6148 31.7014C42.8086 30.0824 43.6413 28.9072 44.5948 28.9072C45.2814 28.9072 45.9163 29.5093 46.2933 30.518L46.3596 30.6955L46.4771 30.548C46.5733 30.427 46.6756 30.3112 46.7835 30.2009C47.2794 29.6961 47.8658 29.3343 48.4718 29.1457C48.4712 29.0273 48.4557 28.9094 48.4258 28.795C48.2637 28.1789 47.6989 27.737 46.9227 27.5233C47.9676 26.1608 48.2311 24.6041 47.4728 23.832C46.9146 23.2636 45.9385 23.2599 44.9285 23.7216C44.9456 23.5563 44.9553 23.388 44.9553 23.2166C44.9553 21.1558 43.6774 19.4854 42.1011 19.4854C40.5248 19.4854 39.2469 21.1558 39.2469 23.2166C39.2469 23.3854 39.2563 23.5513 39.2729 23.7142C38.2631 23.2529 37.2874 23.2568 36.7293 23.825C35.97 24.5982 36.2353 26.1582 37.284 27.5221C36.8422 27.6431 36.4694 27.8377 36.1992 28.0959Z" fill="#68CA44"/>
<path d="M42.5079 31.6887C42.5735 31.1407 42.7125 30.6382 42.9062 30.2108V24.2217C42.9062 23.7686 42.5456 23.4014 42.1006 23.4014C41.6555 23.4014 41.2949 23.7686 41.2949 24.2217V31.3289C41.6765 31.3186 42.0938 31.4458 42.5079 31.6887Z" fill="#80D261"/>
<path d="M40.3187 32.0162L40.2324 32.2308L40.4498 32.1621C40.6847 32.088 40.9292 32.0505 41.175 32.0507C42.5224 32.0507 43.6186 33.1667 43.6186 34.5386C43.6186 35.0952 43.44 35.6229 43.1021 36.0646L42.9591 36.2515L43.1916 36.241L43.2361 36.2383C43.2575 36.2368 43.2789 36.2352 43.3008 36.2352C44.6482 36.2352 45.7445 37.3514 45.7445 38.7233C45.7445 39.2396 45.5894 39.721 45.3225 40.121H49.2772C49.5003 39.61 49.3985 38.9739 49.0437 38.3449C50.6599 38.1423 51.8754 37.2685 51.8754 36.2212C51.8754 35.4503 51.216 34.7737 50.2235 34.3894C50.3471 34.2878 50.4655 34.1797 50.578 34.0655C51.9506 32.6679 52.1967 30.6525 51.1277 29.564C50.0586 28.4755 48.0793 28.7261 46.7066 30.1237C46.5961 30.2366 46.4913 30.3552 46.3929 30.4792C46.0154 29.469 45.3511 28.7979 44.594 28.7979C43.5639 28.7979 42.7048 30.039 42.5075 31.6882C41.8374 31.2951 41.1585 31.204 40.6372 31.5105C40.5619 31.5548 40.4927 31.6068 40.4281 31.6646C40.4003 31.7844 40.3637 31.9019 40.3187 32.0162Z" fill="#017B4E"/>
<path d="M48.5207 32.2197C48.4489 32.1467 48.3637 32.0887 48.27 32.0492C48.1762 32.0096 48.0757 31.9893 47.9742 31.9893C47.8728 31.9893 47.7723 32.0096 47.6785 32.0492C47.5847 32.0887 47.4995 32.1467 47.4278 32.2197L43.5762 36.1414C44.1363 36.2026 44.6607 36.4515 45.0668 36.8491L48.5207 33.3324C48.6656 33.1848 48.747 32.9847 48.747 32.7761C48.747 32.5674 48.6656 32.3673 48.5207 32.2197Z" fill="#026841"/>
<path d="M42.2256 7.04366C42.4718 7.46005 42.5426 7.84724 42.423 8.17296C42.2152 8.73821 41.4482 9.06229 40.3185 9.06229C39.3975 9.06229 38.3064 8.83993 37.2463 8.43612C36.0429 7.97773 34.9907 7.3358 34.2837 6.62891C33.5983 5.94346 33.3236 5.28623 33.5104 4.77818C33.6636 4.36124 34.1219 4.0761 34.8048 3.9548C30.7108 3.10802 27.2933 3.78593 26.5421 5.83059C25.5976 8.40123 29.2253 12.1588 34.6449 14.2231C40.0644 16.2875 45.2236 15.8771 46.1681 13.3064C46.8413 11.474 45.1913 9.03899 42.2256 7.04366Z" fill="#FFF3DE"/>
<path d="M30.4098 6.45685C30.8155 5.3526 32.0001 4.64844 33.648 4.36669C33.854 4.15472 34.158 3.99974 34.5348 3.90218C30.5615 3.13994 27.2767 3.83064 26.5421 5.83002C25.5976 8.40066 29.2253 12.1582 34.6449 14.2226C36.7405 15.0208 38.7958 15.4474 40.5849 15.5238C39.8837 15.3336 39.1921 15.1085 38.5125 14.8494C33.0931 12.7851 29.4653 9.0276 30.4098 6.45685Z" fill="#FEF0AE"/>
<path d="M42.5129 8.19148C42.9311 7.05198 41.2297 5.35188 38.7126 4.39419C36.1956 3.4365 33.8161 3.58388 33.3979 4.72338C32.9797 5.86288 34.6811 7.56298 37.1982 8.52067C39.7152 9.47836 42.0947 9.33098 42.5129 8.19148Z" fill="#FDB441"/>
<path d="M39.7415 9.10074C37.2248 8.14207 35.524 6.44129 35.9426 5.30193C36.2038 4.59089 37.2288 4.2667 38.574 4.35617C36.1141 3.46039 33.8211 3.62281 33.411 4.73931C32.9924 5.87867 34.6932 7.57945 37.2099 8.53812C38.156 8.89851 39.0829 9.1026 39.8934 9.15663C39.8427 9.13815 39.7922 9.11999 39.7415 9.10074Z" fill="#FE9901"/>
<path d="M45.4479 40.1212C45.7119 39.7046 45.8523 39.2193 45.8521 38.7235C45.8521 37.289 44.71 36.1261 43.3012 36.1261C43.2627 36.1261 43.2252 36.1303 43.1872 36.132C43.5238 35.6919 43.7263 35.14 43.7263 34.5389C43.7263 33.1044 42.5842 31.9416 41.1754 31.9416C40.9118 31.9416 40.6576 31.9823 40.4184 32.0579C40.5439 31.7463 40.6085 31.4127 40.6085 31.0758C40.6085 29.6414 39.4664 28.4785 38.0576 28.4785C37.469 28.4785 36.9287 28.6835 36.4971 29.0243C36.4803 27.6045 35.3461 26.4584 33.9476 26.4584C33.1918 26.4584 32.5148 26.795 32.0478 27.3267C31.6612 26.3926 30.754 25.7368 29.696 25.7368C28.7594 25.7368 27.9429 26.2523 27.4993 27.0184C27.0556 26.2523 26.2392 25.7368 25.3026 25.7368C24.2446 25.7368 23.3373 26.3926 22.9508 27.3267C22.4837 26.7949 21.8068 26.4584 21.051 26.4584C19.6526 26.4584 18.5183 27.6045 18.5015 29.0243C18.0699 28.6835 17.5296 28.4785 16.941 28.4785C15.5322 28.4785 14.3901 29.6414 14.3901 31.0758C14.3901 31.4237 14.4584 31.7548 14.5802 32.0579C14.3351 31.9806 14.0799 31.9413 13.8232 31.9416C12.4144 31.9416 11.2723 33.1044 11.2723 34.5389C11.2723 35.14 11.4747 35.6919 11.8114 36.132C11.7734 36.1303 11.7359 36.1261 11.6974 36.1261C10.2886 36.1261 9.14648 37.289 9.14648 38.7235C9.14648 39.2391 9.29602 39.7177 9.55071 40.1212H45.4479Z" fill="#EA9B58"/>
<path d="M38.0576 28.478C37.469 28.478 36.9287 28.683 36.4971 29.0238C36.4803 27.604 35.3461 26.4579 33.9476 26.4579C33.1918 26.4579 32.5149 26.7945 32.0478 27.3262C31.6613 26.3921 30.754 25.7363 29.696 25.7363C28.7594 25.7363 27.9429 26.2518 27.4993 27.0179C27.0556 26.2519 26.2392 25.7363 25.3026 25.7363C24.2446 25.7363 23.3373 26.3921 22.9508 27.3262C22.4837 26.7944 21.8068 26.4579 21.051 26.4579C19.6526 26.4579 18.5183 27.604 18.5015 29.0238C18.0699 28.683 17.5296 28.478 16.941 28.478C15.5322 28.478 14.3901 29.6409 14.3901 31.0754C14.3901 31.4232 14.4584 31.7544 14.5802 32.0574C14.3351 31.9801 14.0799 31.9408 13.8232 31.9411C12.4144 31.9411 11.2723 33.1039 11.2723 34.5384C11.2723 35.1395 11.4747 35.6914 11.8114 36.1315C11.7734 36.1298 11.7359 36.1256 11.6974 36.1256C10.2886 36.1256 9.14648 37.2885 9.14648 38.723C9.14648 39.1925 9.27013 39.6318 9.48422 40.0113H13.0391C13.4604 37.6186 14.771 35.4368 16.712 33.6584C16.691 33.5848 16.6803 33.5086 16.6802 33.432C16.6802 32.0229 17.8061 30.8765 19.19 30.8765C19.6035 30.8765 20.0006 30.9787 20.3542 31.1673C23.0432 29.8073 26.282 29.0132 29.7678 29.0132C33.834 29.0132 37.5639 30.0935 40.4775 31.8925C40.5641 31.629 40.6083 31.3529 40.6084 31.075C40.6085 29.6409 39.4664 28.478 38.0576 28.478Z" fill="#D88A55"/>
<path d="M17.4873 34.2529C17.2736 34.2529 17.0687 34.1665 16.9176 34.0127C16.7665 33.8588 16.6816 33.6502 16.6816 33.4326C16.6816 32.0235 17.8075 30.8772 19.1914 30.8772C19.9691 30.8772 20.6901 31.2353 21.1695 31.8596C21.3011 32.031 21.3605 32.2486 21.3346 32.4645C21.3086 32.6805 21.1995 32.8771 21.0312 33.0111C20.9478 33.0774 20.8524 33.1264 20.7505 33.1553C20.6485 33.1841 20.542 33.1922 20.437 33.1791C20.332 33.166 20.2305 33.132 20.1384 33.0789C20.0463 33.0259 19.9654 32.955 19.9002 32.8701C19.8164 32.7601 19.7089 32.6712 19.586 32.6101C19.4632 32.5491 19.3282 32.5175 19.1914 32.5178C18.696 32.5178 18.293 32.9282 18.293 33.4326C18.293 33.6502 18.2081 33.8588 18.057 34.0127C17.9059 34.1665 17.701 34.2529 17.4873 34.2529ZM28.7937 32.9181C28.58 32.9181 28.3751 32.8317 28.224 32.6779C28.0729 32.524 27.988 32.3154 27.988 32.0978C27.988 31.5934 27.5849 31.183 27.0894 31.183C26.9527 31.1827 26.8178 31.2142 26.6949 31.2753C26.5721 31.3364 26.4647 31.4253 26.3809 31.5353C26.3157 31.6202 26.2348 31.6911 26.1427 31.7442C26.0506 31.7972 25.9491 31.8312 25.8441 31.8443C25.7391 31.8574 25.6326 31.8493 25.5306 31.8205C25.4287 31.7917 25.3333 31.7427 25.2499 31.6764C25.1666 31.61 25.0969 31.5276 25.0448 31.4339C24.9927 31.3401 24.9593 31.2368 24.9464 31.1299C24.9336 31.0229 24.9415 30.9145 24.9698 30.8107C24.9981 30.7069 25.0462 30.6098 25.1114 30.5249C25.5908 29.9006 26.3118 29.5425 27.0894 29.5425C28.4734 29.5425 29.5993 30.6888 29.5993 32.0979C29.5993 32.3155 29.5144 32.5241 29.3633 32.6779C29.2122 32.8317 29.0073 32.9181 28.7937 32.9181ZM34.292 35.063C34.1647 35.063 34.0393 35.0324 33.926 34.9736C33.8126 34.9148 33.7146 34.8295 33.6398 34.7247C33.5651 34.6199 33.5157 34.4986 33.4959 34.3707C33.476 34.2427 33.4862 34.1118 33.5256 33.9887C33.7663 33.2351 34.3234 32.6474 35.0541 32.3765C35.6839 32.1428 36.3656 32.1731 36.9733 32.4615C37.581 32.7499 38.0419 33.262 38.2713 33.9035C38.3444 34.1079 38.3347 34.3335 38.2444 34.5307C38.1541 34.7279 37.9906 34.8805 37.7898 34.9549C37.6904 34.9918 37.5848 35.0084 37.4791 35.0037C37.3734 34.999 37.2696 34.9732 37.1737 34.9277C37.0778 34.8821 36.9917 34.8178 36.9202 34.7384C36.8487 34.6589 36.7933 34.5659 36.7572 34.4647C36.7171 34.3516 36.6554 34.2478 36.5757 34.1592C36.4959 34.0706 36.3997 33.999 36.2926 33.9485C36.1857 33.8974 36.07 33.8684 35.952 33.8632C35.8341 33.8579 35.7163 33.8766 35.6055 33.918C35.4769 33.9654 35.3608 34.0421 35.2659 34.1422C35.171 34.2424 35.0999 34.3634 35.0581 34.496C35.0054 34.6607 34.903 34.8042 34.7654 34.9061C34.6278 35.0079 34.4621 35.0628 34.292 35.063ZM22.7424 37.728C22.6152 37.728 22.4898 37.6974 22.3764 37.6386C22.2631 37.5798 22.165 37.4946 22.0903 37.3898C22.0155 37.285 21.9662 37.1636 21.9463 37.0357C21.9265 36.9078 21.9367 36.7769 21.976 36.6537C22.2168 35.9 22.774 35.3125 23.5045 35.0415C23.8141 34.9258 24.1431 34.8738 24.4725 34.8884C24.8019 34.903 25.1252 34.984 25.4237 35.1266C25.723 35.2676 25.9918 35.4677 26.2146 35.7152C26.4374 35.9627 26.6098 36.2528 26.7217 36.5686C26.7938 36.7728 26.7835 36.9978 26.693 37.1942C26.6026 37.3907 26.4394 37.5427 26.2391 37.6169C26.0389 37.6911 25.8179 37.6815 25.6246 37.5902C25.4313 37.499 25.2813 37.3334 25.2076 37.1298C25.1675 37.0168 25.1058 36.913 25.0261 36.8244C24.9463 36.7358 24.8501 36.6642 24.743 36.6137C24.6362 36.5626 24.5204 36.5336 24.4025 36.5284C24.2845 36.5231 24.1668 36.5418 24.0559 36.5832C23.9274 36.6305 23.8112 36.7072 23.7163 36.8074C23.6214 36.9076 23.5503 37.0286 23.5085 37.1611C23.4559 37.3258 23.3534 37.4693 23.2158 37.5711C23.0782 37.6729 22.9125 37.7279 22.7424 37.728Z" fill="#C57A44"/>
<path d="M6.11523 43.6194C8.35219 47.281 11.9785 50.286 16.436 52.1815C16.776 52.3263 17.1409 52.4011 17.5095 52.4013H37.4907C37.8591 52.4013 38.2241 52.3261 38.5642 52.1815C43.0216 50.286 46.648 47.281 48.8849 43.6194H6.11523Z" fill="#D8ECFE"/>
<path d="M12.7767 43.6194H6.11523C8.35208 47.281 11.9784 50.286 16.436 52.1815C16.776 52.3263 17.1409 52.4011 17.5095 52.4013H24.1709C23.8023 52.401 23.4375 52.3263 23.0975 52.1815C18.6399 50.2859 15.0135 47.281 12.7767 43.6194Z" fill="#C4E2FF"/>
<path d="M53.34 43.7289H1.65999C0.743145 43.7289 0 42.9721 0 42.0387V41.7021C0 40.7687 0.743145 40.012 1.65999 40.012H53.3401C54.2569 40.012 55.0001 40.7686 55.0001 41.7021V42.0387C55 42.9721 54.2569 43.7289 53.34 43.7289Z" fill="#EAF6FF"/>
<path d="M4.70325 42.0387V41.7021C4.70325 40.7687 5.4464 40.012 6.36324 40.012H1.65999C0.743145 40.012 0 40.7687 0 41.7021V42.0387C0 42.9721 0.743145 43.7289 1.65999 43.7289H6.36324C5.4464 43.7289 4.70325 42.9721 4.70325 42.0387Z" fill="#D8ECFE"/>
<path d="M11.3203 21.8717C12.4563 23.0283 14.2105 23.1718 15.5 22.3022C15.792 22.1053 15.8337 21.685 15.586 21.4328L11.7513 17.5284C11.5037 17.2763 11.091 17.3187 10.8975 17.616C10.0434 18.9289 10.1843 20.715 11.3203 21.8717Z" fill="#FE9901"/>
<path d="M21.943 14.1118C22.213 14.0382 22.3919 13.7703 22.3479 13.4894C22.2167 12.6528 21.8348 11.8492 21.2015 11.2043C20.5681 10.5594 19.7789 10.1707 18.9572 10.0371C18.6813 9.99221 18.4182 10.1744 18.3459 10.4493L17.2772 14.5098C17.167 14.9287 17.5434 15.3121 17.955 15.1999L21.943 14.1118Z" fill="#FB2B3A"/>
<path d="M10.6493 5.49128C10.577 5.21642 10.3139 5.0342 10.0379 5.07904C9.21628 5.21259 8.42705 5.60142 7.79369 6.24629C7.16033 6.89117 6.77855 7.69475 6.64728 8.53136C6.60324 8.81234 6.7822 9.0802 7.05216 9.15381L11.0402 10.2419C11.4516 10.3541 11.8281 9.97084 11.7179 9.55183L10.6493 5.49128Z" fill="#68CA44"/>
</g>
<defs>
<clipPath id="clip0_2401_1081">
<rect width="55" height="56" fill="white"/>
</clipPath>
</defs>
</svg>
