<svg width="48" height="48" viewBox="0 0 48 48" fill="none" xmlns="http://www.w3.org/2000/svg">
<path d="M42.0143 10.044V7.23071C42.0143 6.03724 41.5401 4.89265 40.6962 4.04873C39.8523 3.20482 38.7077 2.73071 37.5143 2.73071H32.4143C31.9324 2.7307 31.4632 2.88541 31.0758 3.17205C30.6885 3.45869 30.4034 3.86213 30.2625 4.32296L29.3048 7.45871C29.2086 7.77423 29.183 8.10704 29.2297 8.43356C29.2765 8.76008 29.3944 9.07233 29.5753 9.3482C29.7561 9.62406 29.9954 9.85679 30.2761 10.0299C30.5569 10.203 30.8723 10.3123 31.2 10.35L35.0618 10.7925C33.5404 17.3845 34.0636 24.2835 36.5618 30.5707C35.4125 29.026 33.9688 27.7241 32.3139 26.7401C30.659 25.7561 28.8257 25.1094 26.9196 24.8375C25.0136 24.5656 23.0726 24.6737 21.2085 25.1557C19.3445 25.6377 17.5943 26.484 16.059 27.6457C10.35 18.9592 0.75975 25.0402 0.75 25.044V45.4807L1.05 45.5737C4.00476 46.4831 7.12419 46.7272 10.1844 46.2884C13.2447 45.8495 16.1698 44.7388 18.75 43.0357C26.5103 46.7107 36.7088 43.9822 44.0288 38.904C45.0028 38.2311 45.8026 37.336 46.362 36.2926C46.9214 35.2492 47.2242 34.0876 47.2455 32.904C47.373 24.075 44.7848 17.025 42.0143 10.044Z" fill="#FFB680"/>
<path d="M42.0143 10.044V7.23071C42.0143 6.63398 41.7772 6.06168 41.3552 5.63972C40.9333 5.21777 40.361 4.98071 39.7643 4.98071H34.0215C33.5396 4.9807 33.0705 5.13541 32.6831 5.42205C32.2957 5.70869 32.0106 6.11213 31.8698 6.57296L31.5217 7.71221C31.4252 8.02787 31.3993 8.36091 31.4458 8.68771C31.4924 9.01451 31.6103 9.32706 31.7912 9.6032C31.972 9.87933 32.2114 10.1123 32.4924 10.2855C32.7734 10.4588 33.0891 10.5681 33.417 10.6057L35.0625 10.794H37.3567C36.0592 16.794 35.25 25.5 36.5625 30.5722C30 24.75 20.8793 26.3452 16.0598 30.075C12.0675 24 6.18525 25.1452 3 26.385V46.0657C5.6956 46.6202 8.47405 46.638 11.1765 46.1181C13.879 45.5981 16.4525 44.5507 18.75 43.0357C26.5088 46.7107 36.705 43.983 44.025 38.907C45.0009 38.2338 45.8025 37.3378 46.3633 36.2933C46.9241 35.2487 47.2281 34.0856 47.25 32.9002C47.3715 24.075 44.784 17.025 42.0143 10.044Z" fill="#FFDAAA"/>
<path d="M25.5 9.375H21.225L24.375 1.5H16.5L12 12.75H16.5L15.375 21.75L25.5 9.375Z" fill="#FFD179"/>
<path d="M23.475 3.75H17.85L14.25 12.75H18.75L15.375 21.75L25.5 9.375H21.225L23.475 3.75Z" fill="#FFBE43"/>
<path d="M4.75725 41.4587C6.3855 38.5074 11.5215 35.9184 15.75 35.9184C15.8992 35.9184 16.0423 35.9777 16.1477 36.0832C16.2532 36.1887 16.3125 36.3318 16.3125 36.4809C16.3125 36.6301 16.2532 36.7732 16.1477 36.8787C16.0423 36.9842 15.8992 37.0434 15.75 37.0434C11.9437 37.0434 7.17375 39.4067 5.74275 42.0024C5.70742 42.0674 5.65964 42.1247 5.60214 42.1712C5.54464 42.2176 5.47854 42.2523 5.40763 42.2732C5.33672 42.2941 5.26239 42.3008 5.18889 42.293C5.11538 42.2851 5.04414 42.2629 4.97925 42.2274C4.91431 42.1921 4.85697 42.1443 4.81051 42.0868C4.76405 42.0293 4.72938 41.9632 4.70849 41.8923C4.68759 41.8214 4.68088 41.7471 4.68873 41.6736C4.69658 41.6001 4.71884 41.5288 4.75425 41.4639L4.75725 41.4587ZM30.093 40.0359C27.1392 40.006 24.3003 38.8876 22.1197 36.8949C22.0593 36.8468 22.0094 36.7867 21.9731 36.7184C21.9369 36.6501 21.9151 36.5751 21.9092 36.498C21.9033 36.421 21.9133 36.3435 21.9386 36.2705C21.9639 36.1974 22.0041 36.1304 22.0565 36.0736C22.1088 36.0167 22.1724 35.9713 22.2431 35.9401C22.3139 35.9089 22.3903 35.8927 22.4676 35.8923C22.5449 35.892 22.6214 35.9076 22.6924 35.9382C22.7634 35.9687 22.8274 36.0136 22.8802 36.0699C26.1217 39.0414 30.99 39.8019 34.2052 37.8369C34.3326 37.7628 34.484 37.7415 34.6268 37.7777C34.7697 37.8139 34.8927 37.9046 34.9694 38.0304C35.0462 38.1562 35.0706 38.3071 35.0373 38.4507C35.0041 38.5943 34.916 38.7191 34.7917 38.7984C33.3686 39.6339 31.7431 40.062 30.093 40.0359Z" fill="#F5C6AF"/>
<path d="M33.2251 5.73071C33.3677 5.77369 33.5216 5.75835 33.6529 5.68805C33.7842 5.61775 33.8823 5.49823 33.9256 5.35571L34.7123 2.73071H33.5378L32.8501 5.03021C32.8071 5.17283 32.8225 5.32668 32.8928 5.458C32.9631 5.58932 33.0826 5.6874 33.2251 5.73071Z" fill="#FFD4CA"/>
<path d="M32.8501 5.31896C32.8708 5.41455 32.9164 5.50297 32.9822 5.57528C33.0481 5.64759 33.1319 5.70121 33.2251 5.73071C33.3677 5.77369 33.5216 5.75835 33.6529 5.68805C33.7842 5.61775 33.8823 5.49823 33.9256 5.35571L34.0373 4.98071H34.0216C33.6073 4.98302 33.2018 5.1001 32.8501 5.31896Z" fill="#F5C6AF"/>
<path d="M36.9254 5.35346L37.7091 2.74046C37.6439 2.74046 37.5801 2.73071 37.5141 2.73071H36.5391L35.8499 5.03021C35.8287 5.10098 35.8216 5.17523 35.8291 5.24873C35.8365 5.32224 35.8584 5.39355 35.8934 5.45859C35.9285 5.52364 35.976 5.58115 36.0332 5.62784C36.0905 5.67453 36.1564 5.70949 36.2271 5.73071C36.2979 5.75194 36.3722 5.75902 36.4457 5.75154C36.5192 5.74407 36.5905 5.7222 36.6555 5.68717C36.7206 5.65214 36.7781 5.60464 36.8248 5.54738C36.8715 5.49012 36.9064 5.42423 36.9276 5.35346H36.9254Z" fill="#FFD4CA"/>
<path d="M35.8499 5.03027C35.8287 5.10103 35.8216 5.17529 35.8291 5.24879C35.8365 5.32229 35.8584 5.3936 35.8934 5.45865C35.9285 5.52369 35.976 5.5812 36.0332 5.62789C36.0905 5.67459 36.1564 5.70954 36.2271 5.73077C36.2979 5.75199 36.3722 5.75907 36.4457 5.7516C36.5192 5.74413 36.5905 5.72225 36.6555 5.68722C36.7206 5.65219 36.7781 5.60469 36.8248 5.54743C36.8715 5.49017 36.9064 5.42428 36.9276 5.35352L37.0394 4.97852H35.8626L35.8499 5.03027Z" fill="#F5C6AF"/>
</svg>
