<svg width="48" height="48" viewBox="0 0 48 48" fill="none" xmlns="http://www.w3.org/2000/svg">
<g clip-path="url(#clip0_2401_813)">
<path d="M46.1015 27.0157C45.8222 27.2669 45.2886 27.6403 44.7829 27.8926C46.0694 30.4459 44.9463 33.3497 41.9753 33.935C41.9753 34.0819 42.089 34.751 41.9846 35.6103C41.5926 38.8213 38.5761 40.389 35.6019 39.7117C35.6019 39.7686 36.9608 41.6186 37.0445 44.5069C37.059 44.9723 36.6898 45.3746 36.2245 45.3787H32.2503C31.7808 45.3828 31.4044 45.0085 31.4178 44.539C31.4623 43.0664 30.8067 41.6052 29.2782 40.6858C26.2472 40.1657 23.4643 38.3735 22.2792 35.5193C17.969 36.117 14.4508 35.4935 13.4084 31.2845C13.2771 30.7385 13.304 30.7613 13.2937 30.7613C9.56665 32.208 5.29672 31.2783 2.58523 28.3652C-0.356871 25.2049 -0.838776 20.3714 1.45493 16.5989C-0.129259 13.035 3.15607 9.29624 6.89756 10.452C8.03986 2.65092 18.2994 0.979349 21.909 5.91525C23.0941 3.67636 25.7591 2.22651 28.4468 2.71669C30.5171 3.09415 32.2482 4.56778 33.0879 6.54297C37.3651 3.87698 41.9473 7.95249 40.6816 11.9122C43.1149 12.0383 44.4841 14.2876 44.0632 16.5999C48.7478 18.6061 49.0208 24.3424 46.1015 27.0157Z" fill="#F8C98B"/>
<path d="M35.5659 7.90006C34.1664 8.16118 32.862 8.9042 31.9234 10.0309C31.527 10.5067 30.8152 10.5486 30.3538 10.1356C26.3933 6.5922 18.0969 8.20089 16.4056 14.6334C16.2712 15.1448 15.7838 15.4832 15.2571 15.4365C11.9906 15.1463 9.58574 18.243 10.5913 21.3258C10.6868 21.6184 10.6577 21.9353 10.5113 22.206C9.19826 24.6333 8.9844 27.4416 9.79009 29.9443C10.0337 30.7012 9.42473 31.4609 8.63424 31.3751C1.47216 30.5983 -2.24926 22.691 1.45479 16.5989C-0.129395 13.035 3.15593 9.29624 6.89742 10.452C8.03972 2.65092 18.2992 0.979348 21.9089 5.91525C23.094 3.67636 25.7589 2.22651 28.4466 2.71669C30.517 3.09415 32.2481 4.56778 33.0878 6.54297C33.8047 6.09602 34.5301 5.83852 35.2352 5.73821C36.6394 5.53831 36.9602 7.63987 35.5659 7.90006Z" fill="#FFDAAA"/>
<path d="M41.9754 33.9362C41.9754 34.0328 42.0275 34.3725 42.0287 34.8482C42.03 35.2929 41.6748 35.6627 41.2303 35.6733C41.1547 35.675 41.0788 35.6755 41.0028 35.6745C40.5626 35.6688 40.2028 35.2908 40.2028 34.8507V34.718C40.2669 34.3095 40.6237 34.0169 41.0373 34.02C41.357 34.0231 41.6713 33.9941 41.9754 33.9362ZM32.8698 34.7098C32.8324 34.8921 32.7342 35.0564 32.5912 35.1757C32.4482 35.295 32.269 35.3622 32.0829 35.3664C30.0885 35.4076 26.9379 36.4062 23.6787 36.9751C23.3448 37.0334 23.0075 36.8844 22.8298 36.5958C22.6181 36.2522 22.4341 35.8923 22.2794 35.5195C25.7965 35.0314 29.5566 33.7945 32.0406 33.718C32.572 33.7015 32.9784 34.1886 32.8698 34.7098ZM38.6682 27.2345C40.2818 28.6638 42.5229 29.0464 44.783 27.8928C44.927 28.1783 45.0426 28.4773 45.1282 28.7854C45.2421 29.1962 45.0105 29.6239 44.6105 29.771C42.0358 30.7177 39.4536 30.1453 37.5601 28.4605C37.1916 28.1326 37.2038 27.5514 37.5759 27.2274C37.8897 26.9542 38.3566 26.9585 38.6682 27.2345ZM33.8616 26.0707C33.6576 26.0705 33.4608 25.9948 33.3092 25.8583C33.1575 25.7219 33.0617 25.5342 33.04 25.3313C32.8694 23.7365 33.5818 22.2059 34.8992 21.3367C36.3247 20.3953 38.2404 20.4308 39.6658 21.4252C39.8458 21.5507 39.9685 21.7426 40.007 21.9586C40.0454 22.1746 39.9965 22.3971 39.871 22.577C39.8089 22.6661 39.7297 22.7421 39.6382 22.8007C39.5467 22.8592 39.4445 22.8991 39.3375 22.9182C39.2306 22.9372 39.1209 22.935 39.0148 22.9117C38.9087 22.8884 38.8082 22.8444 38.7191 22.7822C37.8445 22.1722 36.6758 22.1462 35.8106 22.7176C35.0118 23.2446 34.5807 24.1787 34.6852 25.1554C34.7374 25.6432 34.3556 26.0707 33.8616 26.0707ZM22.2903 27.6735C22.0911 27.5831 21.9359 27.4174 21.8586 27.2128C21.7812 27.0082 21.7881 26.7813 21.8776 26.5818C21.9671 26.3822 22.132 26.2262 22.3362 26.1479C22.5404 26.0695 22.7673 26.0753 22.9673 26.1638C24.5209 26.8603 26.2229 26.2861 27.1093 24.9319C27.2295 24.7484 27.4177 24.62 27.6325 24.5752C27.8472 24.5304 28.071 24.5727 28.2546 24.6929C28.4382 24.813 28.5665 25.0012 28.6114 25.216C28.6562 25.4308 28.6139 25.6546 28.4937 25.8382C27.1411 27.9045 24.5527 28.688 22.2903 27.6735ZM13.1014 28.9238C13.1242 29.597 13.1903 30.2082 13.2937 30.7614C13.0712 30.8478 12.8457 30.9261 12.6175 30.9963C12.1243 31.1479 11.6147 30.8167 11.5508 30.3046C11.4963 29.8609 11.4619 29.415 11.4477 28.9683C11.4322 28.4998 11.8148 28.1182 12.2833 28.1213C12.7121 28.1242 13.0864 28.4681 13.1014 28.9238ZM18.38 25.7779C18.1247 25.3418 17.2712 24.0742 15.6624 23.3894C15.8954 22.4712 15.8425 21.5154 15.4908 20.6017C15.4523 20.4996 15.394 20.406 15.3192 20.3265C15.2444 20.247 15.1547 20.183 15.0551 20.1384C14.9554 20.0937 14.848 20.0692 14.7389 20.0662C14.6297 20.0633 14.5211 20.082 14.4192 20.1212C14.3174 20.1604 14.2243 20.2194 14.1453 20.2948C14.0663 20.3701 14.0031 20.4604 13.9591 20.5603C13.9152 20.6603 13.8915 20.7679 13.8894 20.877C13.8872 20.9862 13.9067 21.0947 13.9467 21.1963C14.1735 21.7852 14.2077 22.3893 14.0607 22.9752C11.6366 22.7174 9.92352 24.1456 9.5896 24.4499C9.5093 24.5231 9.4442 24.6114 9.39803 24.7098C9.35185 24.8081 9.3255 24.9146 9.32048 25.0231C9.31546 25.1317 9.33186 25.2401 9.36876 25.3423C9.40565 25.4445 9.46232 25.5384 9.53551 25.6187C9.6087 25.699 9.69699 25.7641 9.79534 25.8103C9.89369 25.8565 10.0002 25.8828 10.1087 25.8878C10.2172 25.8928 10.3257 25.8764 10.4279 25.8395C10.5301 25.8027 10.624 25.746 10.7043 25.6728C10.8588 25.5321 12.2687 24.3081 14.19 24.664C15.9198 24.9835 16.7944 26.3443 16.9521 26.6138C17.0067 26.708 17.0795 26.7905 17.1661 26.8565C17.2527 26.9226 17.3515 26.9709 17.4568 26.9987C17.5621 27.0264 17.6719 27.0331 17.7798 27.0184C17.8878 27.0036 17.9917 26.9677 18.0857 26.9127C18.1797 26.8577 18.2619 26.7846 18.3276 26.6977C18.3933 26.6108 18.4412 26.5118 18.4686 26.4064C18.4959 26.301 18.5022 26.1912 18.487 26.0833C18.4718 25.9754 18.4354 25.8716 18.38 25.7779ZM21.4342 16.1499C21.4543 16.0426 21.4954 15.9403 21.5553 15.849C21.6151 15.7576 21.6924 15.679 21.7827 15.6177C21.873 15.5563 21.9746 15.5135 22.0816 15.4916C22.1885 15.4697 22.2988 15.4692 22.4059 15.4902C22.5131 15.5111 22.6151 15.553 22.7059 15.6135C22.7968 15.674 22.8748 15.7519 22.9354 15.8427C22.9961 15.9336 23.0381 16.0355 23.0592 16.1426C23.0802 16.2497 23.0799 16.36 23.0581 16.467C22.6866 18.3704 24.1522 19.8769 25.9464 19.8361C26.4013 19.8276 26.7818 20.188 26.7919 20.6448C26.7968 20.8641 26.7144 21.0764 26.5627 21.235C26.4111 21.3935 26.2026 21.4854 25.9833 21.4903C23.0956 21.5552 20.8678 19.0507 21.4342 16.1499ZM30.9143 15.0789C31.1936 15.8096 31.5754 16.505 32.058 17.1657C32.3114 17.5111 32.27 18.0199 31.8709 18.3188C31.5027 18.5887 30.9877 18.5039 30.7178 18.1347C30.4604 17.7856 30.2249 17.4209 30.0125 17.0427C28.7183 17.2726 27.4509 17.1733 26.2369 16.7893C25.8016 16.6518 25.5596 16.1864 25.6971 15.751C25.8347 15.3157 26.3 15.0737 26.7354 15.2112C27.574 15.4763 28.4465 15.567 29.2949 15.4749C27.8273 11.4043 29.1925 7.26341 31.7313 5.46454C32.025 5.25151 32.4365 5.33941 32.6268 5.64861C32.8022 5.93514 32.9563 6.23411 33.088 6.54314C30.3412 8.26031 29.7464 12.0451 30.9143 15.0789ZM21.4748 11.0292C21.6074 11.4426 21.3993 11.8696 21.0249 12.0364C20.5782 12.236 20.0518 12.0075 19.9029 11.5421C19.2515 9.51637 19.3878 7.29071 20.321 5.38708C20.5074 5.00683 21.0164 4.91935 21.3148 5.21976C21.5301 5.43638 21.7287 5.66892 21.909 5.91542C21.087 7.4449 20.9163 9.29599 21.4748 11.0292ZM13.4003 13.6238C12.9411 13.8927 12.2824 14.1854 11.4789 14.2826C11.5727 14.7264 11.7633 15.2106 12.0456 15.6642C12.2875 16.052 12.1686 16.5618 11.7808 16.8038C11.5946 16.9197 11.3699 16.9569 11.1562 16.9073C10.9425 16.8576 10.7573 16.7252 10.6412 16.539C10.1877 15.8135 9.89212 15.0006 9.77357 14.1533C8.005 13.6529 6.88472 12.5067 6.18865 10.9608C6.04656 10.6452 6.33053 10.3023 6.66611 10.3871C6.74385 10.4068 6.82105 10.4284 6.89765 10.4522C6.90199 10.4228 6.90634 10.3935 6.91089 10.3644C6.97407 9.95908 7.53064 9.8839 7.69652 10.2591C8.01337 10.9761 8.42558 11.5456 8.91731 11.9134C9.76219 12.5463 10.6143 12.6466 10.6236 12.6476C11.4509 12.7303 12.1345 12.448 12.5626 12.1967C12.9566 11.9651 13.4633 12.0975 13.695 12.4915C13.9266 12.8855 13.7943 13.3922 13.4003 13.6238ZM4.60809 22.7821C4.49566 22.5937 4.46267 22.3683 4.51639 22.1556C4.57011 21.9429 4.70614 21.7602 4.89454 21.6478C5.23115 21.4468 5.83922 20.9915 6.12888 20.1991C6.68317 18.6875 5.5751 17.2992 5.52763 17.2409C5.38923 17.0707 5.32412 16.8524 5.34663 16.6341C5.36915 16.4159 5.47745 16.2155 5.6477 16.0771C5.81795 15.9387 6.03621 15.8736 6.25447 15.8961C6.47273 15.9186 6.6731 16.0269 6.81151 16.1972C6.99114 16.4182 8.54213 18.4241 7.68266 20.768C7.21771 22.0396 6.26745 22.7552 5.74242 23.0685C5.34863 23.3035 4.84139 23.173 4.60809 22.7821Z" fill="#02000F"/>
</g>
<defs>
<clipPath id="clip0_2401_813">
<rect width="48" height="48" fill="white"/>
</clipPath>
</defs>
</svg>
