<svg width="48" height="48" viewBox="0 0 48 48" fill="none" xmlns="http://www.w3.org/2000/svg">
<g clip-path="url(#clip0_2401_803)">
<path d="M31.2138 26.9086C22.3318 26.9228 15.0406 19.6929 14.9831 10.8111C14.9683 8.52173 15.4283 6.34138 16.2704 4.36288C16.711 3.32769 15.5855 2.31866 14.6179 2.89279C9.04909 6.19691 5.29731 12.2412 5.22184 19.1684C5.10643 29.7644 13.7845 38.5417 24.3812 38.5417C33.0361 38.5417 40.3503 32.8031 42.7273 24.9234C43.0499 23.854 41.8082 22.9938 40.9154 23.6651C38.2128 25.6967 34.8541 26.9029 31.2138 26.9086Z" fill="#EEC06B"/>
<path d="M42.005 23.5005C39.0801 30.3406 32.2909 35.134 24.3812 35.1341C14.4304 35.1342 6.17218 27.3943 5.29778 17.6768C5.25333 18.1728 5.228 18.6703 5.22184 19.1682C5.10643 29.7643 13.7845 38.5416 24.3812 38.5416C33.0361 38.5416 40.3502 32.8029 42.7273 24.9233C42.9241 24.2708 42.5383 23.6969 42.005 23.5005Z" fill="#E9A52D"/>
<path d="M25.3462 26.3596V38.5169C31.5992 38.2066 37.063 34.8992 40.3307 30.001C40.2851 28.155 39.5327 26.4853 38.3325 25.2517C36.1845 26.3087 33.7687 26.9047 31.2139 26.9088C29.1338 26.9121 27.141 26.5181 25.3079 25.7986C25.3323 25.9834 25.3462 26.1706 25.3462 26.3596Z" fill="#E9A52D"/>
<path d="M19.5583 21.9616C20.0642 22.4842 20.6042 22.9724 21.175 23.4232C22.216 24.2451 22.8322 25.4912 22.8322 26.8176V46.6401C22.8322 47.3911 23.441 47.9999 24.192 47.9999H27.5917C30.3059 47.9999 32.5064 45.7995 32.5064 43.0853V41.7882H34.1339C36.1704 41.7882 37.8212 40.1374 37.8212 38.101V30.6365C37.8212 26.7331 34.6569 23.5688 30.7535 23.5688H27.7949V23.3155C27.7949 21.1629 25.6439 19.6735 23.6289 20.4311L19.5583 21.9616Z" fill="#DDEBFD"/>
<path d="M30.7539 23.5686H28.3216C32.225 23.5686 35.3893 26.7329 35.3893 30.6363V38.1008C35.3893 40.1372 33.7385 41.7881 31.7021 41.7881H31.3716C30.6553 41.7881 30.0746 42.3688 30.0746 43.0851C30.0746 45.7994 27.8742 47.9998 25.1599 47.9998H27.5922C30.3064 47.9998 32.5068 45.7994 32.5068 43.0851V41.7881H34.1344C36.1709 41.7881 37.8217 40.1372 37.8217 38.1008V30.6363C37.8217 26.7329 34.6573 23.5686 30.7539 23.5686Z" fill="#BED9FD"/>
<path d="M28.4609 30.4733C28.5484 30.4733 28.635 30.4561 28.7158 30.4226C28.7966 30.3892 28.87 30.3401 28.9319 30.2783C28.9937 30.2164 29.0428 30.143 29.0763 30.0622C29.1097 29.9814 29.1269 29.8948 29.1269 29.8073V23.5686H27.7949V29.8073C27.7949 29.8948 27.8121 29.9814 27.8456 30.0622C27.8791 30.143 27.9281 30.2164 27.99 30.2783C28.0518 30.3401 28.1252 30.3892 28.206 30.4226C28.2868 30.4561 28.3735 30.4733 28.4609 30.4733ZM33.1724 34.4249C33.085 34.4248 32.9983 34.4421 32.9175 34.4755C32.8367 34.509 32.7633 34.558 32.7015 34.6199C32.6396 34.6817 32.5906 34.7552 32.5571 34.836C32.5236 34.9168 32.5064 35.0034 32.5064 35.0909V41.7881H33.8384V35.0909C33.8384 34.9142 33.7683 34.7448 33.6434 34.6199C33.5185 34.495 33.3491 34.4249 33.1724 34.4249Z" fill="#BED9FD"/>
<path d="M31.8877 17.3335H29.1799C29.0079 17.3335 28.8391 17.2874 28.691 17.2C28.5428 17.1126 28.4208 16.9871 28.3375 16.8366C28.2543 16.6861 28.2128 16.5161 28.2175 16.3441C28.2222 16.1722 28.2729 16.0047 28.3642 15.8589L30.5973 12.3021H28.729C28.5398 12.3021 28.3583 12.2269 28.2245 12.0931C28.0906 11.9593 28.0155 11.7778 28.0155 11.5885C28.0155 11.3993 28.0906 11.2178 28.2245 11.084C28.3583 10.9502 28.5398 10.875 28.729 10.875H31.4369C31.6089 10.8751 31.7777 10.9212 31.9259 11.0086C32.074 11.0961 32.1961 11.2216 32.2793 11.3721C32.3625 11.5226 32.4039 11.6927 32.3992 11.8647C32.3944 12.0366 32.3437 12.2042 32.2523 12.3499L30.0195 15.9065H31.8877C32.077 15.9065 32.2584 15.9816 32.3923 16.1155C32.5261 16.2493 32.6013 16.4308 32.6013 16.62C32.6013 16.8092 32.5261 16.9907 32.3923 17.1245C32.2584 17.2584 32.077 17.3335 31.8877 17.3335ZM27.8371 6.45862H25.1293C24.9573 6.45857 24.7884 6.41245 24.6403 6.32507C24.4922 6.23769 24.3701 6.11222 24.2869 5.96172C24.2036 5.81122 24.1622 5.64117 24.1669 5.46923C24.1716 5.2973 24.2222 5.12976 24.3136 4.98403L26.5466 1.42716H24.6783C24.4905 1.425 24.3111 1.34887 24.179 1.21529C24.047 1.0817 23.9729 0.901426 23.9729 0.713578C23.9729 0.52573 24.047 0.345457 24.179 0.211869C24.3111 0.0782813 24.4905 0.00215303 24.6783 0L27.3862 0C27.5582 7.56682e-05 27.7271 0.0462203 27.8752 0.133638C28.0234 0.221056 28.1454 0.346556 28.2286 0.497094C28.3119 0.647633 28.3533 0.817716 28.3485 0.989666C28.3438 1.16162 28.2931 1.32916 28.2017 1.47488L25.9688 5.03147H27.8371C27.9315 5.03039 28.0251 5.04804 28.1127 5.08342C28.2002 5.1188 28.2798 5.17118 28.347 5.23755C28.4141 5.30392 28.4674 5.38295 28.5038 5.47007C28.5401 5.55718 28.5589 5.65064 28.5589 5.74505C28.5589 5.83945 28.5401 5.93291 28.5038 6.02003C28.4674 6.10714 28.4141 6.18617 28.347 6.25254C28.2798 6.31891 28.2002 6.3713 28.1127 6.40667C28.0251 6.44205 27.9315 6.45971 27.8371 6.45862ZM40.3347 11.2639H37.6269C37.4549 11.2638 37.286 11.2177 37.1379 11.1303C36.9897 11.0429 36.8677 10.9174 36.7844 10.7668C36.7012 10.6163 36.6598 10.4462 36.6645 10.2742C36.6693 10.1023 36.72 9.93473 36.8114 9.789L39.0442 6.23241H37.176C37.0813 6.23394 36.9873 6.21662 36.8993 6.18145C36.8114 6.14628 36.7314 6.09397 36.6639 6.02756C36.5964 5.96115 36.5428 5.88197 36.5062 5.79464C36.4696 5.7073 36.4508 5.61356 36.4508 5.51888C36.4508 5.42419 36.4696 5.33045 36.5062 5.24311C36.5428 5.15578 36.5964 5.0766 36.6639 5.01019C36.7314 4.94378 36.8114 4.89147 36.8993 4.8563C36.9873 4.82113 37.0813 4.80381 37.176 4.80534H39.8838C40.0559 4.80542 40.2247 4.85156 40.3729 4.93898C40.521 5.0264 40.643 5.1519 40.7263 5.30244C40.8095 5.45298 40.8509 5.62306 40.8461 5.79501C40.8414 5.96696 40.7907 6.1345 40.6993 6.28022L38.4664 9.83681H40.3347C40.4294 9.83528 40.5234 9.8526 40.6113 9.88777C40.6992 9.92294 40.7793 9.97525 40.8468 10.0417C40.9143 10.1081 40.9679 10.1872 41.0044 10.2746C41.041 10.3619 41.0599 10.4557 41.0599 10.5503C41.0599 10.645 41.041 10.7388 41.0044 10.8261C40.9679 10.9134 40.9143 10.9926 40.8468 11.059C40.7793 11.1254 40.6992 11.1777 40.6113 11.2129C40.5234 11.2481 40.4294 11.2654 40.3347 11.2639Z" fill="#8C818F"/>
</g>
<defs>
<clipPath id="clip0_2401_803">
<rect width="48" height="48" fill="white"/>
</clipPath>
</defs>
</svg>
