<svg width="64" height="64" viewBox="0 0 64 64" fill="none" xmlns="http://www.w3.org/2000/svg">
<path d="M34.0245 3.47272L42.2516 20.3287L60.6474 23.0321C62.6091 23.3201 63.3922 25.7578 61.9725 27.1563L48.6606 40.277L51.8028 58.8034C52.1376 60.7789 50.0877 62.2847 48.3333 61.3528L31.879 52.606L15.4247 61.3528C13.6703 62.2858 11.6204 60.7789 11.9551 58.8034L15.0974 40.277L1.78756 27.1563C0.367846 25.7578 1.15103 23.3201 3.1127 23.0321L21.5085 20.3287L29.7356 3.47272C30.6123 1.67576 33.1467 1.67576 34.0245 3.47272Z" fill="#0284C7"/>
<path d="M61.9746 27.151L48.6594 40.2749L51.8049 58.8077C52.1343 60.7736 50.0834 62.2826 48.33 61.3475L31.88 52.6018L15.43 61.3475C13.6766 62.2826 11.6256 60.7736 11.9551 58.8077L13.6128 49.0631C28.4795 43.4416 41.8796 33.9308 52.1131 21.7739L60.6463 23.0279C62.6122 23.3148 63.3879 25.7589 61.9746 27.151Z" fill="#0F9DE5"/>
</svg>
