<svg width="24" height="24" viewBox="0 0 24 24" fill="none" xmlns="http://www.w3.org/2000/svg">
<g clip-path="url(#clip0_2401_1050)">
<path d="M8.26758 3.74219C8.68179 3.74219 9.01758 3.4064 9.01758 2.99219C9.01758 2.57797 8.68179 2.24219 8.26758 2.24219C7.85336 2.24219 7.51758 2.57797 7.51758 2.99219C7.51758 3.4064 7.85336 3.74219 8.26758 3.74219Z" fill="#FED402"/>
<path d="M15.7305 21.7607C16.1447 21.7607 16.4805 21.425 16.4805 21.0107C16.4805 20.5965 16.1447 20.2607 15.7305 20.2607C15.3163 20.2607 14.9805 20.5965 14.9805 21.0107C14.9805 21.425 15.3163 21.7607 15.7305 21.7607Z" fill="#FED402"/>
<path d="M2.99023 9.01953C3.40445 9.01953 3.74023 8.68374 3.74023 8.26953C3.74023 7.85532 3.40445 7.51953 2.99023 7.51953C2.57602 7.51953 2.24023 7.85532 2.24023 8.26953C2.24023 8.68374 2.57602 9.01953 2.99023 9.01953Z" fill="#FED402"/>
<path d="M21.0078 16.4829C21.422 16.4829 21.7578 16.1471 21.7578 15.7329C21.7578 15.3187 21.422 14.9829 21.0078 14.9829C20.5936 14.9829 20.2578 15.3187 20.2578 15.7329C20.2578 16.1471 20.5936 16.4829 21.0078 16.4829Z" fill="#FED402"/>
<path d="M2.99023 16.4829C3.40445 16.4829 3.74023 16.1471 3.74023 15.7329C3.74023 15.3187 3.40445 14.9829 2.99023 14.9829C2.57602 14.9829 2.24023 15.3187 2.24023 15.7329C2.24023 16.1471 2.57602 16.4829 2.99023 16.4829Z" fill="#FED402"/>
<path d="M21.0078 9.01953C21.422 9.01953 21.7578 8.68374 21.7578 8.26953C21.7578 7.85532 21.422 7.51953 21.0078 7.51953C20.5936 7.51953 20.2578 7.85532 20.2578 8.26953C20.2578 8.68374 20.5936 9.01953 21.0078 9.01953Z" fill="#FED402"/>
<path d="M8.26758 21.7605C8.68179 21.7605 9.01758 21.4247 9.01758 21.0105C9.01758 20.5963 8.68179 20.2605 8.26758 20.2605C7.85336 20.2605 7.51758 20.5963 7.51758 21.0105C7.51758 21.4247 7.85336 21.7605 8.26758 21.7605Z" fill="#FED402"/>
<path d="M15.7305 3.74219C16.1447 3.74219 16.4805 3.4064 16.4805 2.99219C16.4805 2.57797 16.1447 2.24219 15.7305 2.24219C15.3163 2.24219 14.9805 2.57797 14.9805 2.99219C14.9805 3.4064 15.3163 3.74219 15.7305 3.74219Z" fill="#FED402"/>
<path d="M12 19.5001C16.1422 19.5001 19.5001 16.1422 19.5001 12C19.5001 7.85789 16.1422 4.5 12 4.5C7.85789 4.5 4.5 7.85789 4.5 12C4.5 16.1422 7.85789 19.5001 12 19.5001Z" fill="#FED402"/>
<path d="M6.91453 12C6.91453 8.26894 9.63952 5.17416 13.2076 4.5967C12.8083 4.5322 12.4045 4.49986 12 4.5C7.85789 4.5 4.5 7.85789 4.5 12C4.5 16.1422 7.85789 19.5 12 19.5C12.4111 19.5 12.8143 19.467 13.2073 19.4034C9.63924 18.8259 6.91453 15.7312 6.91453 12Z" fill="#FAC600"/>
<path d="M11.978 0H12.022C12.4241 0 12.75 0.325969 12.75 0.728016V2.27198C12.75 2.67408 12.4241 3 12.022 3H11.978C11.5759 3 11.25 2.67408 11.25 2.27198V0.728016C11.25 0.325969 11.5759 0 11.978 0ZM11.978 21H12.022C12.4241 21 12.75 21.326 12.75 21.728V23.272C12.75 23.6741 12.424 24 12.022 24H11.978C11.5759 24 11.25 23.674 11.25 23.272V21.728C11.25 21.3259 11.5759 21 11.978 21Z" fill="#FED402"/>
<path d="M3.49838 3.53043L3.52946 3.49936C3.81375 3.21506 4.27472 3.21506 4.55902 3.49936L5.65079 4.59112C5.93508 4.87542 5.93508 5.33639 5.65079 5.62068L5.61971 5.65176C5.33541 5.93606 4.87444 5.93606 4.59014 5.65176L3.49838 4.56004C3.21408 4.2757 3.21408 3.81478 3.49838 3.53043ZM18.3476 18.3797L18.3787 18.3486C18.663 18.0643 19.124 18.0643 19.4083 18.3486L20.5 19.4404C20.7843 19.7247 20.7843 20.1856 20.5 20.4699L20.469 20.501C20.1847 20.7853 19.7237 20.7853 19.4394 20.501L18.3476 19.4092C18.0633 19.1249 18.0633 18.664 18.3476 18.3797Z" fill="#FED402"/>
<path d="M0 12.022V11.978C0 11.5759 0.325969 11.25 0.728016 11.25H2.27198C2.67408 11.25 3 11.5759 3 11.978V12.022C3 12.4241 2.67408 12.75 2.27198 12.75H0.728016C0.325969 12.75 0 12.4241 0 12.022ZM21 12.022V11.978C21 11.5759 21.326 11.25 21.728 11.25H23.272C23.6741 11.25 24 11.576 24 11.978V12.022C24 12.4241 23.674 12.75 23.272 12.75H21.728C21.3259 12.75 21 12.4241 21 12.022Z" fill="#FED402"/>
<path d="M3.52946 20.501L3.49838 20.4699C3.21408 20.1856 3.21408 19.7247 3.49838 19.4404L4.59014 18.3486C4.87444 18.0643 5.33541 18.0643 5.61971 18.3486L5.65079 18.3797C5.93508 18.664 5.93508 19.1249 5.65079 19.4092L4.55902 20.501C4.27472 20.7853 3.8138 20.7853 3.52946 20.501ZM18.3787 5.65176L18.3476 5.62068C18.0633 5.33639 18.0633 4.87542 18.3476 4.59112L19.4394 3.49936C19.7237 3.21506 20.1847 3.21506 20.469 3.49936L20.5 3.53043C20.7843 3.81473 20.7843 4.2757 20.5 4.56L19.4083 5.65176C19.124 5.93606 18.663 5.93606 18.3787 5.65176Z" fill="#FED402"/>
</g>
<defs>
<clipPath id="clip0_2401_1050">
<rect width="24" height="24" fill="white"/>
</clipPath>
</defs>
</svg>
