<svg width="24" height="24" viewBox="0 0 24 24" fill="none" xmlns="http://www.w3.org/2000/svg">
<path d="M12 1C9.82441 1 7.69767 1.64514 5.88873 2.85383C4.07979 4.06253 2.66989 5.78049 1.83733 7.79048C1.00477 9.80047 0.786929 12.0122 1.21137 14.146C1.6358 16.2798 2.68345 18.2398 4.22183 19.7782C5.76021 21.3166 7.72022 22.3642 9.85401 22.7886C11.9878 23.2131 14.1995 22.9952 16.2095 22.1627C18.2195 21.3301 19.9375 19.9202 21.1462 18.1113C22.3549 16.3023 23 14.1756 23 12C22.9966 9.08367 21.8365 6.28778 19.7744 4.22563C17.7122 2.16347 14.9163 1.00344 12 1ZM12 21C10.22 21 8.47992 20.4722 6.99987 19.4832C5.51983 18.4943 4.36628 17.0887 3.68509 15.4442C3.0039 13.7996 2.82567 11.99 3.17294 10.2442C3.5202 8.49836 4.37737 6.89471 5.63604 5.63604C6.89472 4.37737 8.49836 3.5202 10.2442 3.17293C11.99 2.82567 13.7996 3.0039 15.4442 3.68508C17.0887 4.36627 18.4943 5.51983 19.4832 6.99987C20.4722 8.47991 21 10.22 21 12C20.9971 14.3861 20.0479 16.6735 18.3608 18.3607C16.6736 20.0479 14.3861 20.9971 12 21Z" fill="white"/>
<path d="M12.998 11.5862V6.00024C12.998 5.73503 12.8927 5.48067 12.7052 5.29314C12.5176 5.1056 12.2633 5.00024 11.998 5.00024C11.7328 5.00024 11.4785 5.1056 11.2909 5.29314C11.1034 5.48067 10.998 5.73503 10.998 6.00024V12.0002C10.9981 12.2654 11.1035 12.5198 11.291 12.7072L14.291 15.7072C14.4796 15.8894 14.7323 15.9902 14.9944 15.9879C15.2566 15.9856 15.5075 15.8805 15.6929 15.6951C15.8783 15.5097 15.9834 15.2588 15.9857 14.9966C15.988 14.7344 15.8872 14.4818 15.705 14.2932L12.998 11.5862Z" fill="white"/>
</svg>
