<svg width="48" height="48" viewBox="0 0 48 48" fill="none" xmlns="http://www.w3.org/2000/svg">
<path d="M42.3998 12.8V38.4C42.3998 40.168 40.9678 41.6 39.1998 41.6H3.9998C2.2318 41.6 0.799805 40.168 0.799805 38.4V12.8L1.5998 11.2H41.5998L42.3998 12.8Z" fill="#FFDAAA"/>
<path d="M26.4 21.6C27.7255 21.6 28.8 20.5255 28.8 19.2C28.8 17.8746 27.7255 16.8 26.4 16.8C25.0745 16.8 24 17.8746 24 19.2C24 20.5255 25.0745 21.6 26.4 21.6Z" fill="#EB975D"/>
<path d="M16.7999 21.6C18.1254 21.6 19.1999 20.5255 19.1999 19.2C19.1999 17.8746 18.1254 16.8 16.7999 16.8C15.4744 16.8 14.3999 17.8746 14.3999 19.2C14.3999 20.5255 15.4744 21.6 16.7999 21.6Z" fill="#EB975D"/>
<path d="M36.0001 21.6C37.3256 21.6 38.4001 20.5255 38.4001 19.2C38.4001 17.8746 37.3256 16.8 36.0001 16.8C34.6746 16.8 33.6001 17.8746 33.6001 19.2C33.6001 20.5255 34.6746 21.6 36.0001 21.6Z" fill="#EB975D"/>
<path d="M36.0001 29.6C37.3256 29.6 38.4001 28.5255 38.4001 27.2C38.4001 25.8746 37.3256 24.8 36.0001 24.8C34.6746 24.8 33.6001 25.8746 33.6001 27.2C33.6001 28.5255 34.6746 29.6 36.0001 29.6Z" fill="#EB975D"/>
<path d="M7.20029 29.6C8.52578 29.6 9.60029 28.5255 9.60029 27.2C9.60029 25.8746 8.52578 24.8 7.20029 24.8C5.87481 24.8 4.80029 25.8746 4.80029 27.2C4.80029 28.5255 5.87481 29.6 7.20029 29.6Z" fill="#EB975D"/>
<path d="M16.7999 29.6C18.1254 29.6 19.1999 28.5255 19.1999 27.2C19.1999 25.8746 18.1254 24.8 16.7999 24.8C15.4744 24.8 14.3999 25.8746 14.3999 27.2C14.3999 28.5255 15.4744 29.6 16.7999 29.6Z" fill="#EB975D"/>
<path d="M26.4 29.6C27.7255 29.6 28.8 28.5255 28.8 27.2C28.8 25.8746 27.7255 24.8 26.4 24.8C25.0745 24.8 24 25.8746 24 27.2C24 28.5255 25.0745 29.6 26.4 29.6Z" fill="#EB975D"/>
<path d="M26.4 37.6C27.7255 37.6 28.8 36.5255 28.8 35.2C28.8 33.8746 27.7255 32.8 26.4 32.8C25.0745 32.8 24 33.8746 24 35.2C24 36.5255 25.0745 37.6 26.4 37.6Z" fill="#EB975D"/>
<path d="M7.20029 37.6C8.52578 37.6 9.60029 36.5255 9.60029 35.2C9.60029 33.8746 8.52578 32.8 7.20029 32.8C5.87481 32.8 4.80029 33.8746 4.80029 35.2C4.80029 36.5255 5.87481 37.6 7.20029 37.6Z" fill="#EB975D"/>
<path d="M16.7999 37.6C18.1254 37.6 19.1999 36.5255 19.1999 35.2C19.1999 33.8746 18.1254 32.8 16.7999 32.8C15.4744 32.8 14.3999 33.8746 14.3999 35.2C14.3999 36.5255 15.4744 37.6 16.7999 37.6Z" fill="#EB975D"/>
<path d="M42.3998 8.00005V12.8H0.799805V8.00005C0.799805 6.23205 2.2318 4.80005 3.9998 4.80005H39.1998C40.9678 4.80005 42.3998 6.23205 42.3998 8.00005Z" fill="#059669"/>
<path d="M8.8001 2.40005C8.8001 1.51639 8.08375 0.800049 7.2001 0.800049C6.31644 0.800049 5.6001 1.51639 5.6001 2.40005V7.20005C5.6001 8.0837 6.31644 8.80005 7.2001 8.80005C8.08375 8.80005 8.8001 8.0837 8.8001 7.20005V2.40005Z" fill="#FFDAAA"/>
<path d="M18.4002 2.40005C18.4002 1.51639 17.6839 0.800049 16.8002 0.800049C15.9165 0.800049 15.2002 1.51639 15.2002 2.40005V7.20005C15.2002 8.0837 15.9165 8.80005 16.8002 8.80005C17.6839 8.80005 18.4002 8.0837 18.4002 7.20005V2.40005Z" fill="#FFDAAA"/>
<path d="M27.9998 2.40005C27.9998 1.51639 27.2835 0.800049 26.3998 0.800049C25.5161 0.800049 24.7998 1.51639 24.7998 2.40005V7.20005C24.7998 8.0837 25.5161 8.80005 26.3998 8.80005C27.2835 8.80005 27.9998 8.0837 27.9998 7.20005V2.40005Z" fill="#FFDAAA"/>
<path d="M37.5999 2.40005C37.5999 1.51639 36.8836 0.800049 35.9999 0.800049C35.1162 0.800049 34.3999 1.51639 34.3999 2.40005V7.20005C34.3999 8.0837 35.1162 8.80005 35.9999 8.80005C36.8836 8.80005 37.5999 8.0837 37.5999 7.20005V2.40005Z" fill="#FFDAAA"/>
</svg>
