<svg width="48" height="48" viewBox="0 0 48 48" fill="none" xmlns="http://www.w3.org/2000/svg">
<path d="M44.8429 40.065V40.2281C44.843 41.016 44.5676 41.7791 44.0644 42.3853C43.5612 42.9915 42.862 43.4028 42.0876 43.5478L30.3435 45.75H17.6554L5.91132 43.5478C5.13694 43.4028 4.43764 42.9915 3.93447 42.3853C3.4313 41.7791 3.15592 41.016 3.15601 40.2281V40.065C3.15598 39.6214 3.24333 39.1822 3.41308 38.7723C3.58282 38.3625 3.83163 37.9901 4.14529 37.6765C4.45895 37.3628 4.83133 37.114 5.24116 36.9443C5.65098 36.7745 6.09023 36.6872 6.53382 36.6872H7.53413C7.63538 36.6872 7.73757 36.6919 7.83976 36.7013L17.6554 37.5938L18.2591 35.7816H18.2601L19.4685 32.1562L19.4994 28.5H28.4994L28.5304 32.1562L29.7388 35.7816H29.7398L30.3435 37.5938L40.1591 36.7013C40.2613 36.6919 40.3635 36.6872 40.4648 36.6872H41.4651C41.9087 36.6872 42.3479 36.7745 42.7577 36.9443C43.1676 37.114 43.5399 37.3628 43.8536 37.6765C44.1673 37.9901 44.4161 38.3625 44.5858 38.7723C44.7556 39.1822 44.8429 39.6214 44.8429 40.065Z" fill="#FFDAAA"/>
<path d="M44.8429 40.0649V40.2281C44.843 41.0159 44.5676 41.779 44.0644 42.3852C43.5612 42.9915 42.862 43.4027 42.0876 43.5477L30.3435 45.7499H17.6554L5.91132 43.5477C5.13694 43.4027 4.43764 42.9915 3.93447 42.3852C3.4313 41.779 3.15592 41.0159 3.15601 40.2281V40.0649C3.15598 39.6213 3.24333 39.1821 3.41308 38.7723C3.58282 38.3624 3.83163 37.9901 4.14529 37.6764C4.45895 37.3627 4.83133 37.1139 5.24116 36.9442C5.65098 36.7744 6.09023 36.6871 6.53382 36.6871H7.53413C7.63538 36.6871 7.73757 36.6918 7.83976 36.7012L17.6554 37.5937L18.2591 35.7815H29.7398L30.3435 37.5937L40.1591 36.7012C40.2613 36.6918 40.3635 36.6871 40.4648 36.6871H41.4651C41.9087 36.6871 42.3479 36.7744 42.7577 36.9442C43.1676 37.1139 43.5399 37.3627 43.8536 37.6764C44.1673 37.9901 44.4161 38.3624 44.5858 38.7723C44.7556 39.1821 44.8429 39.6213 44.8429 40.0649Z" fill="#059669"/>
<path d="M30.3439 17.656V22.1879L28.4998 28.5001H19.4998L17.6558 22.1879V17.656H20.8273C20.9463 17.6561 21.0642 17.6328 21.1742 17.5873C21.2841 17.5418 21.3841 17.4751 21.4682 17.391C21.5524 17.3069 21.6192 17.2071 21.6648 17.0971C21.7104 16.9872 21.7339 16.8694 21.7339 16.7504V12.2185H26.2648V16.7504C26.2648 16.8694 26.2883 16.9872 26.3339 17.0971C26.3795 17.2071 26.4463 17.3069 26.5305 17.391C26.6147 17.4751 26.7146 17.5418 26.8246 17.5873C26.9345 17.6328 27.0524 17.6561 27.1714 17.656H30.3439Z" fill="#FFDAAA"/>
<path d="M26.2648 12.2185V14.9119C25.6339 15.4528 24.8303 15.7501 23.9994 15.7501C23.1684 15.7501 22.3648 15.4528 21.7339 14.9119V12.2185H26.2648Z" fill="#F7B488"/>
<path d="M25.8125 3.15625V6.78119H28.5312V10.4062C28.5312 11.3676 28.9132 12.2897 29.593 12.9695C30.2728 13.6493 31.1949 14.0313 32.1563 14.0313V6.78119C32.1563 6.30515 32.0625 5.83377 31.8803 5.39396C31.6982 4.95416 31.4311 4.55454 31.0945 4.21794C30.7579 3.88133 30.3583 3.61432 29.9185 3.43215C29.4787 3.24999 29.0073 3.15624 28.5312 3.15625H25.8125Z" fill="#61311C"/>
<path d="M19.9216 10.4062H21.281V7.6875H19.9216C19.5611 7.6875 19.2153 7.83072 18.9604 8.08565C18.7055 8.34058 18.5623 8.68635 18.5623 9.04688C18.5623 9.4074 18.7055 9.75317 18.9604 10.0081C19.2153 10.263 19.5611 10.4062 19.9216 10.4062ZM28.0779 7.6875H26.7185V10.4062H28.0779C28.4384 10.4063 28.7842 10.263 29.0391 10.0081C29.294 9.75317 29.4373 9.4074 29.4373 9.04688C29.4373 8.68635 29.294 8.34058 29.0391 8.08565C28.7842 7.83072 28.4384 7.6875 28.0779 7.6875Z" fill="#FEB784"/>
<path d="M24 14.0313C23.2235 14.0313 22.4692 13.7717 21.8571 13.2938C21.245 12.8159 20.8102 12.1471 20.6218 11.3938L20.5137 10.9608C20.4216 10.5925 20.375 10.2143 20.375 9.83469V7.68753C20.375 6.72611 20.7569 5.80407 21.4367 5.12425C22.1166 4.44442 23.0386 4.0625 24 4.0625C24.9615 4.0625 25.8835 4.44442 26.5633 5.12425C27.2431 5.80407 27.6251 6.72611 27.6251 7.68753V9.83441C27.625 10.214 27.5785 10.5922 27.4864 10.9605L27.3782 11.3935C27.1899 12.1469 26.7552 12.8158 26.1431 13.2937C25.5309 13.7717 24.7766 14.0313 24 14.0313Z" fill="#FFDAAA"/>
<path d="M24.9058 4.96875C24.9058 4.96875 25.8119 6.78122 28.2777 9.17813C28.4457 8.39028 28.5305 7.58697 28.5308 6.78141C28.5308 6.18633 28.4136 5.59709 28.1859 5.0473C27.9582 4.49752 27.6244 3.99798 27.2037 3.5772C26.7829 3.15641 26.2834 2.82263 25.7336 2.59491C25.1838 2.36719 24.5946 2.24999 23.9995 2.25C22.7977 2.25 21.6452 2.72739 20.7954 3.57716C19.9457 4.42693 19.4683 5.57946 19.4683 6.78122C19.4685 7.24739 19.497 7.71312 19.5537 8.17584C20.9498 7.66875 22.9391 7.45312 24.9058 4.96875Z" fill="#6E3C26"/>
<path d="M23.2498 32.1562H24.7498V35.7813H23.2498V32.1562Z" fill="#F7B488"/>
<path d="M29.5248 22.5675L28.531 17.6562H27.6249L26.6485 19.6089C26.4424 20.0315 26.1394 20.3996 25.7643 20.6831C25.3891 20.9666 24.9524 21.1576 24.4895 21.2406C23.8698 21.3453 23.2329 21.2482 22.6726 20.9637C22.1123 20.6792 21.6581 20.2222 21.377 19.6602L20.375 17.6562H19.4688L18.475 22.5675L18.0136 23.2956C16.852 25.1275 17.5598 27.5301 19.4996 28.5H28.4996C30.4395 27.5301 31.1473 25.1275 29.9862 23.2956L29.5248 22.5675Z" fill="#059669"/>
<path d="M13.2812 44.4685C13.2812 44.8084 13.4163 45.1344 13.6566 45.3747C13.897 45.615 14.2229 45.7501 14.5628 45.7501H24.1563L29.6237 45.0366L42.0588 43.4148C42.9096 43.3039 43.6864 42.8734 44.2314 42.2106C44.7764 41.5479 45.0487 40.7025 44.9931 39.8463C44.9375 38.99 44.5581 38.187 43.932 37.6003C43.3059 37.0136 42.4799 36.6871 41.6219 36.6873C40.8566 36.6872 40.095 36.7913 39.3578 36.9966L28.6563 40.5188L24.1563 42.0001L22.6675 41.0757C22.3006 40.8481 21.8759 40.7309 21.4442 40.738C21.0125 40.7452 20.592 40.8764 20.2328 41.116L18.7188 42.1248H17.1259C15.8246 42.1251 14.5767 42.642 13.6562 43.5619C13.4163 43.8026 13.2814 44.1286 13.2812 44.4685Z" fill="#F7B488"/>
<path d="M28.6562 40.5188L29.6237 45.0366L42.0587 43.4148C42.9096 43.3039 43.6864 42.8734 44.2314 42.2106C44.7764 41.5479 45.0487 40.7025 44.9931 39.8463C44.9375 38.99 44.5581 38.187 43.932 37.6003C43.3059 37.0136 42.4799 36.6871 41.6219 36.6873C40.8566 36.6872 40.095 36.7913 39.3578 36.9966L28.6562 40.5188Z" fill="#059669"/>
<path d="M34.8747 44.4685C34.8747 44.8084 34.7397 45.1344 34.4994 45.3747C34.259 45.615 33.9331 45.7501 33.5932 45.7501H23.9997L18.5322 45.0366L6.09724 43.4148C5.24637 43.3039 4.46958 42.8734 3.92459 42.2106C3.3796 41.5479 3.10726 40.7025 3.16287 39.8463C3.21847 38.99 3.59785 38.187 4.22398 37.6003C4.85011 37.0136 5.67606 36.6871 6.53412 36.6873C7.29934 36.6872 8.06101 36.7913 8.79818 36.9966L19.4997 40.5188L23.9997 42.0001L25.4885 41.0757C25.8554 40.8481 26.2801 40.7309 26.7118 40.738C27.1435 40.7452 27.564 40.8764 27.9232 41.116L29.4372 42.1248H31.0301C32.3314 42.1251 33.5793 42.642 34.4997 43.5619C34.7397 43.8026 34.8746 44.1286 34.8747 44.4685Z" fill="#FFDAAA"/>
<path d="M19.4997 40.5188L18.5322 45.0366L6.09724 43.4148C5.24637 43.3039 4.46958 42.8734 3.92459 42.2106C3.3796 41.5479 3.10726 40.7025 3.16287 39.8463C3.21847 38.99 3.59785 38.187 4.22398 37.6003C4.85011 37.0136 5.67606 36.6871 6.53412 36.6873C7.29934 36.6872 8.06101 36.7913 8.79818 36.9966L19.4997 40.5188Z" fill="#059669"/>
<path d="M13.2659 20.143L10.406 29.4375L5.87479 35.7813L4.96851 38.5001V41.2188H9.49972V36.6875L14.9372 30.3438L17.656 22.1876V17.6562H16.6328C15.8794 17.6563 15.1459 17.8978 14.5399 18.3453C13.934 18.7929 13.4874 19.4229 13.2659 20.143ZM42.1247 35.7813L37.5935 29.4375L34.7341 20.143C34.5126 19.4229 34.066 18.7929 33.46 18.3453C32.854 17.8978 32.1205 17.6563 31.3672 17.6562H30.3435V22.1876L33.0623 30.3438L38.4998 36.6875V41.2188H43.031V38.5001L42.1247 35.7813Z" fill="#FFDAAA"/>
</svg>
